<svg width="24" height="24" viewBox="0 0 24 24" fill="none" xmlns="http://www.w3.org/2000/svg">
<path d="M20.016 7.59061V5.57461L12 10.5906L3.984 5.57461V7.59061L12 12.5586L20.016 7.59061ZM20.016 3.55861C20.56 3.55861 21.024 3.75861 21.408 4.15861C21.792 4.55861 21.984 5.03061 21.984 5.57461V17.5746C21.984 18.1186 21.792 18.5906 21.408 18.9906C21.024 19.3906 20.56 19.5906 20.016 19.5906H3.984C3.44 19.5906 2.976 19.3906 2.592 18.9906C2.208 18.5906 2.016 18.1186 2.016 17.5746V5.57461C2.016 5.03061 2.208 4.55861 2.592 4.15861C2.976 3.75861 3.44 3.55861 3.984 3.55861H20.016Z" fill="black" fill-opacity="0.4"/>
</svg>
