<?xml version="1.0" encoding="utf-8"?>
<!-- Generator: Adobe Illustrator 16.0.0, SVG Export Plug-In . SVG Version: 6.00 Build 0)  -->
<!DOCTYPE svg PUBLIC "-//W3C//DTD SVG 1.1//EN" "http://www.w3.org/Graphics/SVG/1.1/DTD/svg11.dtd">
<svg version="1.1" id="圖層_1" xmlns="http://www.w3.org/2000/svg" xmlns:xlink="http://www.w3.org/1999/xlink" x="0px" y="0px"
	 width="130.648px" height="33.628px" viewBox="0 0 130.648 33.628" enable-background="new 0 0 130.648 33.628"
	 xml:space="preserve">
<path fill="#140B0B" d="M53.752,29.106c0-1.547,0.568-3.016,2.743-3.016c0.487,0,1.004,0.096,1.343,0.201l-0.146,0.816
	c-0.34-0.133-0.768-0.213-1.167-0.213c-1.297,0-1.807,0.904-1.807,2.227c0,1.252,0.584,2.037,1.829,2.037
	c0.392,0,0.931-0.098,1.231-0.209l0.097,0.826c-0.312,0.104-0.863,0.199-1.365,0.199c-2.145,0-2.758-1.342-2.758-2.861V29.106z
	 M62.201,31.813l-0.746,0.131c-0.146-0.189-0.235-0.439-0.272-0.697c-0.249,0.469-0.768,0.721-1.297,0.721
	c-0.658,0-1.389-0.332-1.389-1.334c0-1.033,0.556-1.342,2.574-1.43v-0.289c0-0.434-0.08-0.723-0.767-0.723
	c-0.434,0-0.862,0.125-1.275,0.338l-0.191-0.736c0.39-0.186,0.996-0.34,1.571-0.34c1.128,0,1.497,0.473,1.497,1.455v1.666
	C61.906,31.12,62.001,31.577,62.201,31.813 M59.324,30.61c0,0.525,0.436,0.637,0.73,0.637c0.523,0,0.93-0.369,1.017-0.791v-0.598
	C59.731,29.933,59.324,30.044,59.324,30.61 M64.881,31.216v0.672l-0.407,0.021c-0.73,0.035-1.202-0.23-1.202-1.018v-2.559h-0.678
	V27.64h0.678v-0.973l0.871-0.221v1.193h0.892v0.693h-0.892v2.227c0,0.502,0.111,0.656,0.486,0.656H64.881z M67.998,27.507
	c1.098,0,1.393,0.693,1.393,1.461v2.904h-0.877v-2.684c0-0.547-0.186-0.953-0.781-0.953c-0.415,0-0.833,0.201-1.056,0.475v3.162
	h-0.892v-5.855l0.892-0.131v2.152C66.956,27.751,67.46,27.507,67.998,27.507 M73.932,31.813l-0.745,0.131
	c-0.146-0.189-0.235-0.439-0.272-0.697c-0.252,0.469-0.767,0.721-1.297,0.721c-0.658,0-1.388-0.332-1.388-1.334
	c0-1.033,0.553-1.342,2.574-1.43v-0.289c0-0.434-0.081-0.723-0.769-0.723c-0.435,0-0.861,0.125-1.275,0.338l-0.192-0.736
	c0.392-0.186,0.996-0.34,1.571-0.34c1.131,0,1.498,0.473,1.498,1.455v1.666C73.637,31.12,73.733,31.577,73.932,31.813 M71.057,30.61
	c0,0.525,0.433,0.637,0.729,0.637c0.524,0,0.929-0.369,1.018-0.791v-0.598C71.46,29.933,71.057,30.044,71.057,30.61 M77.195,27.589
	h0.973c-0.354,1.066-1.024,3.037-1.46,4.127c-0.36,0.916-0.715,1.549-1.038,1.912l-0.864-0.383c0.332-0.313,0.724-0.893,1.047-1.668
	l-1.666-3.988h0.987l1.123,3.037C76.605,29.733,76.975,28.45,77.195,27.589"/>
<path fill="#140B0B" d="M81.965,31.083h2.324v0.789h-3.224v-5.664h0.899V31.083z M85.94,26.946h-0.922v-0.813h0.922V26.946z
	 M85.927,31.872h-0.893v-4.283h0.893V31.872z M86.642,28.333V27.64h0.73v-0.178c0-0.707,0.289-1.592,1.482-1.592
	c0.267,0,0.575,0.029,0.79,0.088l-0.126,0.723c-0.155-0.043-0.392-0.074-0.553-0.074c-0.532,0-0.729,0.266-0.729,0.885v0.148h0.95
	v0.693h-0.95v3.539h-0.864v-3.539H86.642z M91.828,31.247c0.436,0,0.908-0.098,1.246-0.246l0.162,0.709
	c-0.271,0.133-0.832,0.287-1.482,0.287c-1.54,0-2.159-0.951-2.159-2.213c0-1.32,0.699-2.344,2.042-2.344
	c1.188,0,1.66,0.813,1.66,1.932v0.516h-2.817c-0.008,0.922,0.507,1.359,1.343,1.359H91.828z M91.542,28.126
	c-0.627,0-0.996,0.563-1.042,1.129h1.983c-0.006-0.693-0.249-1.129-0.936-1.129H91.542z"/>
<path fill="#140B0B" d="M97.433,31.872h-0.916v-5.664h0.916V31.872z M99.386,27.522c0.061,0.146,0.126,0.412,0.141,0.559
	c0.28-0.309,0.827-0.576,1.365-0.576c1.105,0,1.4,0.695,1.4,1.463v2.904h-0.885v-2.684c0-0.547-0.184-0.953-0.781-0.953
	c-0.413,0-0.834,0.199-1.062,0.459v3.178h-0.886v-3.355c0-0.301-0.028-0.627-0.103-0.885L99.386,27.522z M105.707,28.376
	c-0.25-0.117-0.627-0.213-0.943-0.213c-0.271,0-0.635,0.096-0.635,0.494c0,0.289,0.206,0.42,0.747,0.678
	c0.61,0.289,1.126,0.598,1.126,1.336c0,1.031-0.759,1.318-1.423,1.318c-0.442,0-1.099-0.109-1.476-0.258l0.2-0.75
	c0.354,0.154,0.854,0.266,1.188,0.266c0.338,0,0.633-0.111,0.633-0.539c0-0.334-0.303-0.518-0.878-0.783
	c-0.596-0.271-0.988-0.539-0.988-1.223c0-1.01,0.864-1.232,1.505-1.232c0.385,0,0.899,0.09,1.157,0.193L105.707,28.376z
	 M108.239,31.968c-1.105,0-1.402-0.701-1.402-1.469v-2.91h0.886v2.699c0,0.537,0.179,0.941,0.782,0.941
	c0.413,0,0.825-0.197,1.054-0.455v-3.186h0.894v3.051c0,0.473,0.037,0.857,0.123,1.189l-0.831,0.117
	c-0.068-0.178-0.111-0.383-0.134-0.539C109.287,31.724,108.777,31.968,108.239,31.968 M113.864,27.528l-0.045,0.791
	c-0.501,0-1.077,0.168-1.283,0.627v2.926h-0.886v-3.193c0-0.396-0.029-0.789-0.104-1.047l0.813-0.109
	c0.06,0.146,0.132,0.471,0.147,0.646C112.729,27.8,113.274,27.528,113.864,27.528 M117.906,31.813l-0.745,0.133
	c-0.148-0.193-0.235-0.441-0.272-0.699c-0.251,0.469-0.767,0.721-1.299,0.721c-0.656,0-1.386-0.332-1.386-1.334
	c0-1.033,0.553-1.342,2.574-1.432v-0.287c0-0.434-0.081-0.723-0.768-0.723c-0.435,0-0.861,0.127-1.276,0.338l-0.189-0.736
	c0.389-0.186,0.994-0.34,1.569-0.34c1.128,0,1.497,0.473,1.497,1.455v1.666C117.611,31.12,117.708,31.577,117.906,31.813
	 M115.031,30.612c0,0.523,0.435,0.635,0.729,0.635c0.522,0,0.929-0.369,1.018-0.791v-0.598
	C115.436,29.933,115.031,30.044,115.031,30.612 M119.492,27.522c0.057,0.146,0.125,0.412,0.14,0.559
	c0.28-0.309,0.825-0.576,1.363-0.576c1.106,0,1.401,0.695,1.401,1.463v2.904h-0.884v-2.684c0-0.547-0.186-0.953-0.782-0.953
	c-0.413,0-0.834,0.199-1.062,0.459v3.178h-0.885v-3.355c0-0.301-0.031-0.627-0.104-0.885L119.492,27.522z M123.336,29.763
	c0-1.201,0.475-2.309,2.126-2.309c0.404,0,0.781,0.082,1.002,0.154l-0.163,0.748c-0.25-0.098-0.575-0.15-0.825-0.15
	c-0.898,0-1.247,0.65-1.247,1.564c0,0.879,0.384,1.469,1.276,1.469c0.258,0,0.627-0.053,0.856-0.156l0.124,0.76
	c-0.198,0.074-0.611,0.154-1.032,0.154c-1.643,0-2.117-1.084-2.117-2.227V29.763z M129.182,31.247c0.436,0,0.907-0.098,1.245-0.246
	l0.163,0.709c-0.271,0.133-0.833,0.287-1.482,0.287c-1.54,0-2.161-0.951-2.161-2.213c0-1.32,0.702-2.344,2.044-2.344
	c1.188,0,1.658,0.813,1.658,1.932v0.516h-2.817c-0.006,0.922,0.509,1.359,1.343,1.359H129.182z M128.893,28.126
	c-0.627,0-0.993,0.563-1.039,1.129h1.984c-0.009-0.693-0.25-1.129-0.937-1.129H128.893z"/>
<path fill="#140B0B" d="M67.473,7.775H54.551c-0.439,0-0.798,0.354-0.798,0.794v11.592c0,0.438,0.356,0.797,0.792,0.797h12.923
	c0.44,0,0.794-0.354,0.794-0.791V8.571C68.262,8.134,67.912,7.775,67.473,7.775 M63.187,8.745h1.114
	c0.058,0.295,0.138,0.753,0.223,1.319h-1.312C63.179,9.454,63.181,8.995,63.187,8.745 M55.561,8.745h6.214
	c0.009,0.25,0.031,0.712,0.089,1.319h-6.303V8.745z M66.458,19.989h-10.9l0.003-8.948h6.414c0.198,1.452,0.587,3.335,1.355,5.086
	c-0.662,0.955-1.448,1.818-2.362,2.443c-0.078,0.053-0.022,0.137-0.022,0.137l0.293,0.561c0,0,0.046,0.113,0.137,0.045
	c0.956-0.543,1.772-1.287,2.474-2.129c0.474,0.85,1.052,1.633,1.761,2.281c0.074,0.084,0.147,0.018,0.147,0.018l0.44-0.521
	c0,0,0.059-0.047-0.01-0.107c-0.676-0.803-1.199-1.705-1.607-2.633c0.5-0.725,0.929-1.496,1.296-2.248
	c0.063-0.122-0.045-0.161-0.045-0.161L64.9,13.438c0,0-0.103-0.044-0.142,0.066c-0.198,0.468-0.423,0.942-0.679,1.409
	c-0.454-1.391-0.683-2.76-0.791-3.872h2.346c0,0,0.334,0,0.318-0.412c-0.133-0.736-0.27-1.47-0.346-1.885h0.853L66.458,19.989z
	 M61.502,17.214V16.53c0-0.115-0.107-0.086-0.107-0.086c-1.824,0.523-4.002,0.705-4.996,0.73h-0.006c-0.083,0-0.15,0.064-0.15,0.148
	l-0.002,1.09c0,0.084,0.067,0.148,0.152,0.148v0.002H56.4c0.004,0,0.004-0.002,0.004-0.002c1.118-0.045,3.526-0.555,5.006-1.213
	C61.41,17.349,61.502,17.312,61.502,17.214 M57.036,15.751h3.675c0.437,0,0.791-0.355,0.791-0.793v-2.271
	c0-0.438-0.353-0.794-0.791-0.796h-3.673c-0.439,0-0.794,0.354-0.794,0.794l-0.002,2.273C56.242,15.396,56.597,15.751,57.036,15.751
	 M57.997,12.724h1.752l-0.002,2.195l-1.75-0.002V12.724z"/>
<path fill="#140B0B" d="M121.282,11.167h-12.694c-0.105,0-0.189,0.08-0.189,0.179v0.578c0,0.101,0.084,0.185,0.189,0.185h12.147
	l-0.315,1.248c0,0.104,0.08,0.19,0.179,0.19h0.872c0.128,0,0.13-0.081,0.174-0.19c0,0,0.334-1.01,0.423-1.362
	C122.15,11.672,122.084,11.167,121.282,11.167 M113.287,16.95h-3.643c-0.437-0.002-0.793,0.352-0.793,0.791v1.715
	c0,0.438,0.354,0.791,0.793,0.791h3.639c0.438,0,0.796-0.354,0.796-0.791v-1.715C114.079,17.304,113.724,16.95,113.287,16.95
	 M112.326,19.417h-1.721v-1.635h1.721V19.417z M108.571,9.233h5.293V9.73h-4.173c-0.083,0-0.149,0.066-0.149,0.146v0.645
	c0,0.083,0.066,0.149,0.149,0.149h10.226c0.08,0,0.146-0.066,0.146-0.149V9.876c0-0.08-0.065-0.146-0.146-0.146h-4.174V9.233h5.295
	c0.081,0,0.149-0.065,0.149-0.148V8.439c0-0.083-0.068-0.148-0.149-0.148h-5.293V7.833c0-0.104-0.081-0.188-0.183-0.188h-1.515
	c-0.101,0-0.182,0.084-0.182,0.188l-0.002,0.457h-5.293c-0.083,0-0.148,0.065-0.148,0.148v0.646
	C108.423,9.167,108.488,9.233,108.571,9.233 M109,14.042c-0.082,0-0.148,0.063-0.148,0.146v0.649c0,0.082,0.066,0.146,0.148,0.146
	h11.609c0.083,0,0.148-0.064,0.148-0.146v-0.649c0-0.082-0.065-0.146-0.148-0.146h-4.866v-0.495h4.174
	c0.08,0,0.146-0.068,0.146-0.149v-0.646c0-0.081-0.065-0.147-0.146-0.147h-10.226c-0.083,0-0.149,0.066-0.149,0.147v0.646
	c0,0.081,0.066,0.149,0.149,0.149h4.173v0.495H109z M121.857,15.481h-14.115c-0.08,0-0.146,0.066-0.146,0.146v0.645
	c0,0.082,0.066,0.148,0.146,0.148h10.519v0.529h-3.512c-0.083,0-0.149,0.064-0.149,0.146v0.645c0,0.084,0.066,0.148,0.149,0.148
	h1.049l0.205,1.387c0,0.078,0.068,0.141,0.154,0.141h1.085c0.047,0,0.087-0.035,0.087-0.08l-0.39-1.447h1.319v1.477
	c-0.009,0.398-0.077,0.617-0.734,0.617h-0.371c-0.048,0-0.054,0.029-0.057,0.045v0.703c0,0.125,0.103,0.227,0.228,0.227h0.685
	c1.56,0,2.054-0.211,2.056-1.566V17.89h0.97c0.081,0,0.148-0.064,0.148-0.148v-0.645c0-0.082-0.067-0.146-0.148-0.146h-0.97v-0.529
	h1.793c0.082,0,0.147-0.066,0.147-0.148v-0.645C122.005,15.548,121.939,15.481,121.857,15.481"/>
<path fill="#140B0B" d="M104.319,20.239l-0.487,0.615c0,0-0.102,0.16-0.253,0.084c-0.002-0.002-0.007-0.002-0.009-0.004h-0.002
	c-3.886-1.584-5.697-4.914-6.541-7.823c-0.842,2.909-2.654,6.239-6.539,7.823c-0.004,0.002-0.009,0.002-0.011,0.004
	c-0.152,0.076-0.254-0.084-0.254-0.084l-0.483-0.615c0,0-0.085-0.125,0.027-0.197c0.273-0.137,0.621-0.328,0.899-0.5
	c5.203-3.328,5.35-10.525,5.344-11.56c0-0.071,0.056-0.126,0.123-0.126h1.788c0.068,0,0.124,0.055,0.124,0.126
	c-0.006,1.035,0.14,8.232,5.345,11.56c0.278,0.172,0.625,0.363,0.897,0.5C104.403,20.114,104.319,20.239,104.319,20.239"/>
<path fill="#140B0B" d="M79.204,14.878h-0.832c-0.098,0-0.181,0.082-0.181,0.178v4.311c-0.01,0.398-0.078,0.617-0.73,0.617h-0.375
	c-0.062,0-0.056,0.053-0.056,0.053v0.697c0,0.127,0.101,0.225,0.225,0.225h0.688c1.559,0.002,2.053-0.209,2.056-1.564L80,15.671
	C80,15.235,79.644,14.878,79.204,14.878 M86.254,15.962c-0.902-0.426-1.93-1.07-2.69-1.82h2.69c0.083,0,0.149-0.065,0.149-0.146
	v-0.796c0-0.08-0.066-0.146-0.149-0.146H77.06c0.325-0.417,0.625-0.842,0.895-1.258h6.564c0.08,0,0.147-0.065,0.147-0.148v-0.792
	c0-0.082-0.067-0.148-0.147-0.148h-5.902c0.256-0.45,0.474-0.874,0.658-1.256h6.454c0.083,0,0.148-0.066,0.148-0.149V8.509
	c0-0.083-0.065-0.146-0.148-0.146h-5.973c0.064-0.161,0.114-0.295,0.149-0.396c0.051-0.147,0.043-0.257-0.122-0.297
	c-0.353-0.074-1.066-0.222-1.273-0.276c-0.279-0.069-0.328,0.211-0.328,0.211L78.063,7.98c-0.037,0.114-0.082,0.244-0.132,0.383
	h-5.326c-0.083,0-0.149,0.063-0.149,0.146v0.793c0,0.083,0.066,0.149,0.149,0.149h4.881c-0.176,0.396-0.382,0.819-0.615,1.256H73.79
	c-0.082,0-0.147,0.066-0.147,0.148v0.792c0,0.083,0.065,0.148,0.147,0.148h2.45c-0.264,0.424-0.552,0.847-0.868,1.258h-3.345
	c-0.08,0-0.146,0.066-0.146,0.146v0.796c0,0.08,0.066,0.146,0.146,0.146h2.415c-0.716,0.748-1.524,1.39-2.423,1.818
	c-0.235,0.078-0.124,0.287-0.124,0.287l0.174,0.424c0,0,0.061,0.174,0.27,0.094c0.567-0.203,1.104-0.473,1.608-0.793
	c1.176,0.295,2.582,0.93,2.93,1.074c0.112,0.057,0.157-0.033,0.157-0.033l0.427-0.895c0,0,0.072-0.113-0.047-0.166
	c-0.488-0.213-1.594-0.529-2.45-0.719c0.412-0.338,0.801-0.705,1.163-1.091h5.763c0.344,0.363,0.737,0.707,1.159,1.027
	c-0.686,0.324-1.796,0.568-2.412,0.641c-0.08,0.008-0.113,0.061-0.091,0.152c0.12,0.357,0.157,0.635,0.274,0.99
	c0.04,0.117,0.095,0.115,0.174,0.094c0.41-0.059,2.188-0.725,2.963-1.248c0.635,0.395,1.308,0.73,1.976,0.973
	c0.207,0.078,0.268-0.096,0.268-0.096l0.176-0.424C86.376,16.251,86.489,16.04,86.254,15.962 M77.618,18.405
	c-0.046-0.318-0.054-0.275-0.12-0.6c-0.004-0.051-0.062-0.111-0.144-0.076c-1.468,0.76-2.929,1.141-4.519,1.58
	c-0.095,0.035-0.124,0.102-0.085,0.188c0.13,0.275,0.35,0.76,0.441,0.967c0.035,0.068,0.134,0.125,0.248,0.082
	c1.295-0.438,2.924-1.262,4.11-1.945C77.626,18.546,77.63,18.493,77.618,18.405 M85.222,19.372c-1.324-0.621-2.866-1.16-4.246-1.475
	c-0.132-0.045-0.153,0.055-0.153,0.055l-0.27,0.582c0,0-0.061,0.123,0.06,0.166c1.326,0.576,2.491,1.041,3.737,1.787
	c0.128,0.055,0.279,0.049,0.369-0.068c0.23-0.342,0.325-0.498,0.559-0.84C85.324,19.505,85.299,19.417,85.222,19.372"/>
<g>
	<defs>
		<path id="SVGID_1_" d="M18.701,1.098c-0.708,0.483-1.786,0.757-2.873,0.637c-2.644-0.294-4.956,0.971-6.134,3.099
			C9.17,5.782,8.245,6.388,7.396,6.674c-2.105,0.715-3.837,2.638-4.072,5.139c-0.108,1.178-0.802,2.108-1.322,2.628
			C0.59,15.853,0,17.505,0,19.198v0.083c3.458-3.598,8.111-6.878,13.606-9.343c8.203-3.682,16.531-4.746,22.928-3.428
			c-0.717-0.327-1.437-0.887-1.877-1.677c-1.178-2.128-3.49-3.393-6.135-3.099c-1.089,0.12-2.162-0.154-2.873-0.637
			C24.656,0.42,23.533,0,22.177,0C20.817,0,19.696,0.42,18.701,1.098"/>
	</defs>
	<clipPath id="SVGID_2_">
		<use xlink:href="#SVGID_1_"  overflow="visible"/>
	</clipPath>
	
		<linearGradient id="SVGID_3_" gradientUnits="userSpaceOnUse" x1="-242.8213" y1="422.7852" x2="-241.7253" y2="422.7852" gradientTransform="matrix(-19.2323 23.7499 23.7499 19.2323 -14683.7666 -2365.7891)">
		<stop  offset="0" style="stop-color:#6FB72F"/>
		<stop  offset="0.1373" style="stop-color:#59AC34"/>
		<stop  offset="0.3649" style="stop-color:#3B9E3A"/>
		<stop  offset="0.5882" style="stop-color:#26943E"/>
		<stop  offset="0.803" style="stop-color:#188E41"/>
		<stop  offset="1" style="stop-color:#168C42"/>
	</linearGradient>
	<polygon clip-path="url(#SVGID_2_)" fill="url(#SVGID_3_)" points="45.965,7.636 22.065,37.151 -9.43,11.646 14.469,-17.868 	"/>
</g>
<g>
	<defs>
		<path id="SVGID_4_" d="M13.606,9.938C8.111,12.403,3.458,15.684,0,19.281c0.041,3.324,2.523,6.06,5.737,6.5
			c3.554-4.244,8.772-8.178,15.111-11.019c7.014-3.147,14.115-4.381,20.026-3.853c-0.51-2.052-2.046-3.58-3.92-4.236
			c-0.139-0.046-0.279-0.101-0.42-0.164c-1.744-0.36-3.636-0.542-5.627-0.542C25.602,5.968,19.572,7.262,13.606,9.938"/>
	</defs>
	<clipPath id="SVGID_5_">
		<use xlink:href="#SVGID_4_"  overflow="visible"/>
	</clipPath>
	
		<linearGradient id="SVGID_6_" gradientUnits="userSpaceOnUse" x1="-241.9028" y1="424.5381" x2="-240.8071" y2="424.5381" gradientTransform="matrix(-22.9329 28.3198 28.3198 22.9329 -17535.6328 -2887.0845)">
		<stop  offset="0" style="stop-color:#43A633"/>
		<stop  offset="0.0434" style="stop-color:#3AA136"/>
		<stop  offset="0.1652" style="stop-color:#29973C"/>
		<stop  offset="0.3136" style="stop-color:#1D903F"/>
		<stop  offset="0.5146" style="stop-color:#178D41"/>
		<stop  offset="1" style="stop-color:#168C42"/>
	</linearGradient>
	<polygon clip-path="url(#SVGID_5_)" fill="url(#SVGID_6_)" points="50.565,13.815 24.687,45.771 -9.69,17.934 16.188,-14.022 	"/>
</g>
<path fill="#158C41" d="M42.346,14.44c-0.518-0.519-1.212-1.45-1.32-2.627c-0.028-0.311-0.081-0.612-0.151-0.903
	c-5.91-0.53-13.012,0.705-20.025,3.851C14.51,17.602,9.291,21.537,5.736,25.781c0.296,0.043,0.603,0.063,0.912,0.063h9.542
	c0.908,0.002,1.643,0.751,1.643,1.659v0.385c0,1.526-1.508,1.729-1.508,1.729l-7.761,1.335c-0.275,0.045-0.511,0.233-0.511,0.508
	v0.95h28.246v-0.95c0-0.274-0.236-0.463-0.514-0.508l-7.758-1.335c0,0-1.506-0.203-1.506-1.729v-0.385
	c0-0.908,0.732-1.657,1.639-1.659h9.545c3.671,0,6.646-2.975,6.646-6.646C44.351,17.505,43.759,15.853,42.346,14.44"/>
</svg>
