<?xml version="1.0" encoding="UTF-8" standalone="no"?>
<svg
   xmlns:dc="http://purl.org/dc/elements/1.1/"
   xmlns:cc="http://creativecommons.org/ns#"
   xmlns:rdf="http://www.w3.org/1999/02/22-rdf-syntax-ns#"
   xmlns:svg="http://www.w3.org/2000/svg"
   xmlns="http://www.w3.org/2000/svg"
   xmlns:sodipodi="http://sodipodi.sourceforge.net/DTD/sodipodi-0.dtd"
   xmlns:inkscape="http://www.inkscape.org/namespaces/inkscape"
   id="svg8"
   version="1.1"
   viewBox="0 0 132.29167 132.29167"
   height="132.29167mm"
   width="132.29167mm"
   sodipodi:docname="圖畫.svg"
   inkscape:version="0.92.2 (5c3e80d, 2017-08-06)">
  <sodipodi:namedview
     pagecolor="#ffffff"
     bordercolor="#666666"
     borderopacity="1"
     objecttolerance="10"
     gridtolerance="10"
     guidetolerance="10"
     inkscape:pageopacity="0"
     inkscape:pageshadow="2"
     inkscape:window-width="1366"
     inkscape:window-height="706"
     id="namedview68"
     showgrid="false"
     fit-margin-top="0"
     fit-margin-left="0"
     fit-margin-right="0"
     fit-margin-bottom="0"
     inkscape:zoom="0.70644681"
     inkscape:cx="280.66738"
     inkscape:cy="222.84629"
     inkscape:window-x="-8"
     inkscape:window-y="-8"
     inkscape:window-maximized="1"
     inkscape:current-layer="svg8" />
  <defs
     id="defs2" />
  <metadata
     id="metadata5">
    <rdf:RDF>
      <cc:Work
         rdf:about="">
        <dc:format>image/svg+xml</dc:format>
        <dc:type
           rdf:resource="http://purl.org/dc/dcmitype/StillImage" />
        <dc:title></dc:title>
      </cc:Work>
    </rdf:RDF>
  </metadata>
  <g
     transform="matrix(0.26458334,0,0,0.26458334,61.407353,18.893458)"
     id="layer1">
    <g
       id="g4600"
       transform="matrix(13.013208,0,0,13.013208,-3377.8662,-11161.557)">
      <g
         id="g2056"
         transform="matrix(1.25,0,0,-1.25,260.95087,852.5175)">
        <path
           d="m 0,0 c -8.346,0 -15.135,-6.791 -15.135,-15.135 0,-8.344 6.789,-15.133 15.135,-15.133 8.344,0 15.131,6.789 15.131,15.133 C 15.131,-6.791 8.344,0 0,0"
           style="fill:#ffffff;fill-opacity:1;fill-rule:nonzero;stroke:none"
           id="path2058"
           inkscape:connector-curvature="0" />
      </g>
      <g
         id="g2060"
         transform="matrix(1.25,0,0,-1.25,273.02125,871.436)">
        <path
           d="m 0,0 c 0,-5.336 -4.324,-9.663 -9.656,-9.663 -5.334,0 -9.658,4.327 -9.658,9.663 0,5.331 4.324,9.658 9.658,9.658 C -4.324,9.658 0,5.331 0,0"
           style="fill:#1cadcb;fill-opacity:1;fill-rule:nonzero;stroke:none"
           id="path2062"
           inkscape:connector-curvature="0" />
      </g>
      <g
         id="g2064"
         transform="matrix(1.25,0,0,-1.25,257.89913,859.65625)">
        <path
           d="m 0,0 -1.668,-5.393 h -1.961 l -2.551,-8.534 c 0,0 3.627,-5.294 8.434,-5.294 4.805,0 7.941,4.216 8.531,5.393 L 8.041,-5.393 H 5.785 L 4.41,0.193 C 4.41,0.193 1.666,0.486 0,0"
           style="fill:#4dc5e1;fill-opacity:1;fill-rule:nonzero;stroke:none"
           id="path2066"
           inkscape:connector-curvature="0" />
      </g>
      <g
         id="g2068"
         transform="matrix(1.25,0,0,-1.25,259.3665,859.53787)">
        <path
           d="m 0,0 -1.271,-5.589 h -1.475 l -3.039,-10.49 c 0,0 3.238,-3.236 6.767,-3.236 3.53,0 6.471,2.056 7.159,3.236 L 4.904,-5.883 H 3.432 l -1.371,5.788 z"
           style="fill:#ffffff;fill-opacity:1;fill-rule:nonzero;stroke:none"
           id="path2070"
           inkscape:connector-curvature="0" />
      </g>
      <g
         id="g2072"
         transform="matrix(1.25,0,0,-1.25,252.70875,880.0285)">
        <path
           d="m 0,0 c 1.746,-1.724 4.143,-2.789 6.787,-2.789 2.484,0 4.75,0.939 6.459,2.482 C 11.518,1.009 9.094,1.832 6.406,1.832 3.939,1.832 1.689,1.138 0,0"
           style="fill:#99d64b;fill-opacity:1;fill-rule:nonzero;stroke:none"
           id="path2074"
           inkscape:connector-curvature="0" />
      </g>
      <g
         id="g2076"
         transform="matrix(1.25,0,0,-1.25,260.77762,872.97775)">
        <path
           d="m 0,0 c -0.531,0.815 -1.693,2.126 -3.736,2.126 0,0 0.816,-3.68 3.57,-4.084 0,0 0.074,0.041 0.166,0.124 0.092,-0.083 0.16,-0.124 0.16,-0.124 2.762,0.404 3.576,4.084 3.576,4.084 C 1.695,2.126 0.529,0.815 0,0"
           style="fill:#99d64b;fill-opacity:1;fill-rule:nonzero;stroke:none"
           id="path2078"
           inkscape:connector-curvature="0" />
      </g>
      <path
         d="M 261.32875,878.4125 H 260.225 v -4.0475 h 1.10375 z"
         style="fill:#99d64b;fill-opacity:1;fill-rule:nonzero;stroke:none;stroke-width:1.25"
         id="path2080"
         inkscape:connector-curvature="0" />
      <g
         id="g2082"
         transform="matrix(1.25,0,0,-1.25,260.95087,859.69525)">
        <path
           d="m 0,0 c -5.182,0 -9.398,-4.214 -9.398,-9.393 0,-5.18 4.216,-9.399 9.398,-9.399 5.182,0 9.395,4.219 9.395,9.399 C 9.395,-4.214 5.182,0 0,0 m 0,-19.316 c -5.471,0 -9.922,4.451 -9.922,9.923 0,5.468 4.451,9.919 9.922,9.919 5.469,0 9.922,-4.451 9.922,-9.919 0,-5.472 -4.453,-9.923 -9.922,-9.923"
           style="fill:#ffffff;fill-opacity:1;fill-rule:nonzero;stroke:none"
           id="path2084"
           inkscape:connector-curvature="0" />
      </g>
      <g
         id="g2086"
         transform="matrix(1.25,0,0,-1.25,247.77225,876.20037)">
        <path
           d="M 0,0 0.607,-1.088 0.484,-1.16 c -0.023,0.047 -0.056,0.091 -0.097,0.149 -0.041,0.06 -0.076,0.095 -0.098,0.111 -0.045,0.026 -0.084,0.037 -0.123,0.039 -0.037,0 -0.076,-0.011 -0.121,-0.031 l -1.789,-0.996 0.012,-0.026 2.564,0.325 0.051,-0.091 -1.703,-1.983 0.011,-0.019 1.473,0.812 c 0.143,0.079 0.244,0.146 0.309,0.205 0.064,0.06 0.101,0.116 0.115,0.176 0.008,0.036 0.002,0.103 -0.02,0.193 -0.021,0.09 -0.039,0.152 -0.05,0.173 l 0.123,0.072 0.55,-0.999 -0.125,-0.066 c -0.031,0.05 -0.07,0.097 -0.115,0.147 -0.043,0.054 -0.09,0.09 -0.133,0.106 -0.054,0.02 -0.119,0.02 -0.195,0.003 -0.076,-0.025 -0.191,-0.08 -0.35,-0.165 l -1.261,-0.701 c -0.071,-0.038 -0.127,-0.079 -0.162,-0.123 -0.037,-0.044 -0.061,-0.089 -0.073,-0.139 -0.009,-0.055 -0.007,-0.109 0.004,-0.171 0.014,-0.062 0.033,-0.115 0.061,-0.169 l -0.121,-0.068 -0.467,0.838 1.459,1.725 -1.879,-0.248 c -0.07,-0.008 -0.139,-0.024 -0.211,-0.042 -0.072,-0.021 -0.115,-0.036 -0.139,-0.046 l -0.443,0.803 0.123,0.072 c 0.018,-0.031 0.045,-0.072 0.084,-0.117 0.037,-0.044 0.066,-0.074 0.086,-0.098 0.033,-0.028 0.074,-0.044 0.113,-0.038 0.039,0.002 0.078,0.021 0.117,0.038 l 1.778,0.981 c 0.041,0.025 0.07,0.054 0.094,0.08 0.019,0.028 0.027,0.067 0.027,0.121 0,0.026 -0.01,0.07 -0.029,0.127 -0.022,0.056 -0.038,0.102 -0.055,0.137 z"
           style="fill:#181210;fill-opacity:1;fill-rule:nonzero;stroke:none"
           id="path2088"
           inkscape:connector-curvature="0" />
      </g>
      <g
         id="g2090"
         transform="matrix(1.25,0,0,-1.25,247.39375,874.3865)">
        <path
           d="M 0,0 0.344,-1.218 0.207,-1.262 C 0.195,-1.229 0.178,-1.18 0.154,-1.115 0.131,-1.05 0.111,-1.01 0.096,-0.981 c -0.03,0.037 -0.061,0.056 -0.098,0.07 -0.031,0.013 -0.072,0.011 -0.125,-0.002 l -1.965,-0.555 c -0.043,-0.013 -0.08,-0.031 -0.105,-0.053 -0.028,-0.025 -0.043,-0.061 -0.047,-0.121 -0.004,-0.044 -0.006,-0.095 -0.004,-0.154 0.004,-0.064 0.008,-0.111 0.016,-0.152 l -0.135,-0.036 -0.344,1.214 0.137,0.037 c 0.011,-0.037 0.029,-0.08 0.053,-0.134 0.023,-0.049 0.048,-0.096 0.072,-0.132 0.029,-0.044 0.064,-0.072 0.103,-0.078 0.039,-0.004 0.078,-0.002 0.121,0.006 l 1.961,0.554 c 0.041,0.013 0.078,0.032 0.106,0.06 0.027,0.028 0.043,0.067 0.049,0.118 0.004,0.028 0.002,0.076 -0.004,0.14 -0.002,0.064 -0.01,0.116 -0.022,0.158 z"
           style="fill:#181210;fill-opacity:1;fill-rule:nonzero;stroke:none"
           id="path2092"
           inkscape:connector-curvature="0" />
      </g>
      <g
         id="g2094"
         transform="matrix(1.25,0,0,-1.25,243.66337,870.72312)">
        <path
           d="m 0,0 c 0.004,-0.036 0.018,-0.096 0.043,-0.17 0.025,-0.072 0.049,-0.129 0.072,-0.16 0.035,-0.047 0.104,-0.067 0.199,-0.083 0.094,-0.01 0.213,-0.01 0.358,0 L 2.729,-0.271 2.74,-0.444 0.561,-2.305 2.01,-2.203 c 0.16,0.013 0.285,0.033 0.373,0.054 0.084,0.028 0.142,0.065 0.178,0.11 0.027,0.034 0.048,0.099 0.068,0.194 0.019,0.098 0.027,0.16 0.027,0.194 L 2.795,-1.644 2.875,-2.8 2.734,-2.807 C 2.732,-2.771 2.713,-2.712 2.684,-2.629 2.656,-2.547 2.633,-2.492 2.609,-2.475 2.572,-2.43 2.512,-2.402 2.436,-2.389 2.359,-2.376 2.227,-2.376 2.045,-2.395 L 0.66,-2.487 C 0.6,-2.492 0.539,-2.505 0.479,-2.531 0.42,-2.557 0.377,-2.588 0.346,-2.624 0.303,-2.676 0.27,-2.743 0.244,-2.828 0.221,-2.911 0.209,-2.978 0.211,-3.029 L 0.068,-3.037 0.014,-2.236 2.045,-0.508 0.711,-0.601 C 0.547,-0.613 0.422,-0.632 0.334,-0.66 0.25,-0.687 0.193,-0.717 0.166,-0.762 0.143,-0.8 0.123,-0.862 0.105,-0.949 0.086,-1.031 0.076,-1.097 0.078,-1.141 l -0.139,-0.009 -0.078,1.14 z"
           style="fill:#181210;fill-opacity:1;fill-rule:nonzero;stroke:none"
           id="path2096"
           inkscape:connector-curvature="0" />
      </g>
      <g
         id="g2098"
         transform="matrix(1.25,0,0,-1.25,247.323,868.82612)">
        <path
           d="m 0,0 -0.168,-1.255 -0.137,0.019 c 0,0.036 0.002,0.085 0.01,0.158 0.004,0.063 0,0.11 -0.008,0.143 -0.011,0.044 -0.029,0.081 -0.056,0.104 -0.028,0.023 -0.065,0.036 -0.12,0.044 L -2.5,-0.514 c -0.047,0.003 -0.086,0 -0.119,-0.009 -0.033,-0.009 -0.065,-0.04 -0.09,-0.091 C -2.732,-0.653 -2.75,-0.7 -2.777,-0.757 -2.795,-0.815 -2.811,-0.865 -2.82,-0.9 l -0.137,0.017 0.164,1.254 0.141,-0.018 c -0.002,-0.036 -0.006,-0.09 -0.006,-0.144 0.004,-0.06 0.008,-0.108 0.015,-0.152 0.008,-0.054 0.03,-0.088 0.063,-0.112 0.033,-0.023 0.072,-0.036 0.113,-0.041 l 2.024,-0.268 c 0.043,-0.007 0.084,0 0.117,0.01 0.037,0.012 0.068,0.043 0.092,0.085 0.015,0.029 0.035,0.073 0.054,0.129 0.022,0.062 0.035,0.117 0.041,0.159 z"
           style="fill:#181210;fill-opacity:1;fill-rule:nonzero;stroke:none"
           id="path2100"
           inkscape:connector-curvature="0" />
      </g>
      <g
         id="g2102"
         transform="matrix(1.25,0,0,-1.25,246.47337,865.9135)">
        <path
           d="M 0,0 C 0.08,0.041 0.164,0.059 0.248,0.066 0.332,0.069 0.422,0.054 0.523,0.025 0.762,-0.053 0.932,-0.196 1.027,-0.424 1.129,-0.648 1.137,-0.891 1.057,-1.151 1.02,-1.272 0.963,-1.386 0.887,-1.494 0.811,-1.601 0.734,-1.693 0.654,-1.76 l 0.112,-0.127 -0.047,-0.151 -0.93,0.263 0.047,0.152 c 0.123,-0.006 0.236,0 0.344,0.013 0.103,0.015 0.209,0.044 0.306,0.089 0.098,0.042 0.18,0.099 0.252,0.176 0.073,0.071 0.127,0.168 0.162,0.286 0.028,0.086 0.039,0.165 0.037,0.241 -0.001,0.07 -0.017,0.133 -0.046,0.188 -0.03,0.051 -0.069,0.098 -0.12,0.134 -0.048,0.036 -0.111,0.067 -0.185,0.091 -0.106,0.031 -0.215,0.031 -0.326,0 -0.114,-0.029 -0.211,-0.099 -0.297,-0.202 -0.059,-0.078 -0.127,-0.157 -0.197,-0.25 -0.075,-0.093 -0.139,-0.173 -0.202,-0.237 -0.115,-0.13 -0.24,-0.22 -0.376,-0.274 -0.137,-0.049 -0.295,-0.044 -0.471,0.011 -0.104,0.03 -0.194,0.083 -0.268,0.154 -0.076,0.064 -0.135,0.147 -0.179,0.25 -0.045,0.094 -0.071,0.199 -0.075,0.307 -0.007,0.114 0.006,0.222 0.039,0.331 0.041,0.123 0.096,0.229 0.162,0.312 0.073,0.09 0.143,0.165 0.221,0.232 L -1.488,0.343 -1.441,0.495 -0.547,0.231 -0.592,0.082 C -0.703,0.085 -0.812,0.085 -0.914,0.077 -1.021,0.074 -1.119,0.054 -1.211,0.022 c -0.092,-0.034 -0.172,-0.079 -0.238,-0.146 -0.067,-0.065 -0.119,-0.152 -0.155,-0.269 -0.039,-0.121 -0.031,-0.235 0.02,-0.339 0.049,-0.112 0.131,-0.181 0.242,-0.218 0.115,-0.036 0.221,-0.038 0.313,-0.005 0.093,0.026 0.179,0.088 0.259,0.173 0.077,0.079 0.143,0.157 0.202,0.237 0.06,0.08 0.121,0.152 0.185,0.23 0.057,0.062 0.115,0.123 0.18,0.183 C -0.139,-0.075 -0.07,-0.031 0,0"
           style="fill:#181210;fill-opacity:1;fill-rule:nonzero;stroke:none"
           id="path2104"
           inkscape:connector-curvature="0" />
      </g>
      <g
         id="g2106"
         transform="matrix(1.25,0,0,-1.25,247.34987,862.15138)">
        <path
           d="m 0,0 -0.066,-0.118 c -0.049,0.011 -0.108,0.021 -0.18,0.028 -0.07,0.003 -0.143,0.003 -0.213,-0.002 C -0.531,-0.097 -0.6,-0.11 -0.662,-0.128 -0.725,-0.146 -0.77,-0.175 -0.797,-0.208 -0.822,-0.244 -0.85,-0.286 -0.881,-0.334 -0.916,-0.389 -0.947,-0.443 -0.971,-0.486 L -1.027,-0.59 0.941,-1.689 c 0.036,-0.024 0.073,-0.034 0.116,-0.037 0.039,0 0.082,0.013 0.121,0.044 0.019,0.016 0.056,0.055 0.105,0.117 0.051,0.056 0.088,0.103 0.11,0.137 L 1.516,-1.496 0.867,-2.654 0.744,-2.585 c 0.016,0.034 0.039,0.086 0.068,0.155 0.032,0.07 0.047,0.121 0.053,0.153 0.006,0.048 0,0.088 -0.019,0.121 -0.02,0.034 -0.053,0.062 -0.098,0.09 l -1.982,1.112 -0.057,-0.103 c -0.018,-0.037 -0.043,-0.08 -0.072,-0.131 -0.026,-0.058 -0.049,-0.109 -0.073,-0.164 -0.017,-0.035 -0.015,-0.089 0,-0.154 0.018,-0.064 0.043,-0.129 0.077,-0.191 0.035,-0.062 0.07,-0.123 0.115,-0.183 0.041,-0.057 0.08,-0.105 0.111,-0.137 l -0.068,-0.124 -0.662,0.371 1.199,2.143 z"
           style="fill:#181210;fill-opacity:1;fill-rule:nonzero;stroke:none"
           id="path2108"
           inkscape:connector-curvature="0" />
      </g>
      <g
         id="g2110"
         transform="matrix(1.25,0,0,-1.25,249.17113,859.96388)">
        <path
           d="M 0,0 C -0.127,0.116 -0.258,0.174 -0.4,0.165 -0.539,0.157 -0.668,0.094 -0.789,-0.036 l -0.232,-0.25 0.888,-0.818 0.178,0.194 c 0.123,0.134 0.184,0.286 0.182,0.451 C 0.221,-0.286 0.146,-0.134 0,0 M 2.25,-0.65 1.738,-1.209 c -0.31,0.054 -0.58,0.095 -0.812,0.125 -0.233,0.029 -0.479,0.055 -0.735,0.078 L -0.004,-1.223 0.65,-1.826 c 0.037,-0.031 0.071,-0.052 0.108,-0.065 0.035,-0.012 0.076,-0.008 0.121,0.016 0.023,0.01 0.057,0.035 0.103,0.071 0.047,0.04 0.084,0.073 0.114,0.107 L 1.199,-1.795 0.398,-2.667 0.295,-2.575 c 0.019,0.028 0.045,0.064 0.082,0.111 0.035,0.052 0.055,0.088 0.064,0.109 0.014,0.041 0.014,0.078 0.002,0.113 -0.011,0.039 -0.039,0.072 -0.074,0.105 l -1.504,1.381 c -0.031,0.03 -0.068,0.055 -0.101,0.068 -0.035,0.012 -0.075,0.009 -0.123,-0.01 -0.032,-0.019 -0.069,-0.044 -0.11,-0.073 -0.043,-0.034 -0.08,-0.063 -0.105,-0.085 l -0.102,0.095 0.875,0.954 c 0.084,0.088 0.168,0.163 0.254,0.219 0.092,0.063 0.184,0.107 0.279,0.133 0.098,0.022 0.19,0.022 0.288,0.003 C 0.115,0.529 0.209,0.475 0.297,0.393 0.377,0.32 0.434,0.246 0.475,0.16 0.514,0.081 0.533,-0.005 0.533,-0.09 0.537,-0.175 0.523,-0.261 0.498,-0.351 0.473,-0.441 0.437,-0.531 0.387,-0.624 c 0.23,-0.026 0.425,-0.044 0.58,-0.062 0.152,-0.015 0.342,-0.037 0.566,-0.062 0.098,-0.008 0.176,-0.008 0.235,0 0.06,0.008 0.115,0.022 0.164,0.041 0.035,0.013 0.076,0.037 0.117,0.067 0.039,0.031 0.072,0.062 0.097,0.082 z"
           style="fill:#181210;fill-opacity:1;fill-rule:nonzero;stroke:none"
           id="path2112"
           inkscape:connector-curvature="0" />
      </g>
      <g
         id="g2114"
         transform="matrix(1.25,0,0,-1.25,252.6135,856.3835)">
        <path
           d="m 0,0 c -0.016,-0.013 -0.039,-0.038 -0.07,-0.082 -0.034,-0.04 -0.053,-0.072 -0.063,-0.099 -0.023,-0.053 -0.039,-0.094 -0.047,-0.121 -0.002,-0.023 -0.007,-0.083 -0.011,-0.173 -0.004,-0.177 0,-0.352 0.011,-0.526 0.014,-0.171 0.032,-0.39 0.053,-0.655 0.006,-0.096 0.016,-0.171 0.033,-0.223 0.016,-0.054 0.051,-0.118 0.106,-0.2 l 0.302,-0.444 c 0.028,-0.041 0.061,-0.067 0.096,-0.085 0.035,-0.019 0.076,-0.024 0.129,-0.013 0.031,0.005 0.076,0.019 0.147,0.049 0.062,0.028 0.119,0.053 0.154,0.075 l 0.08,-0.117 -1.088,-0.738 -0.08,0.117 c 0.029,0.022 0.072,0.059 0.129,0.103 0.057,0.051 0.094,0.085 0.111,0.113 0.029,0.041 0.041,0.082 0.033,0.122 -0.002,0.039 -0.017,0.08 -0.046,0.121 l -0.385,0.562 c -0.014,0.021 -0.043,0.047 -0.098,0.08 -0.053,0.03 -0.113,0.062 -0.182,0.104 -0.152,0.079 -0.318,0.167 -0.496,0.259 -0.183,0.094 -0.338,0.174 -0.468,0.238 -0.08,0.037 -0.141,0.065 -0.192,0.078 -0.051,0.011 -0.099,0.018 -0.152,0.018 -0.039,-0.002 -0.078,-0.01 -0.119,-0.026 -0.045,-0.017 -0.082,-0.036 -0.112,-0.052 l -0.08,0.115 0.993,0.675 0.08,-0.111 C -1.344,-0.919 -1.414,-0.98 -1.453,-1.023 -1.49,-1.065 -1.5,-1.1 -1.484,-1.125 c 0.004,-0.008 0.015,-0.019 0.035,-0.028 0.015,-0.013 0.039,-0.029 0.068,-0.047 0.033,-0.018 0.072,-0.032 0.117,-0.057 0.045,-0.028 0.086,-0.049 0.127,-0.072 0.119,-0.062 0.235,-0.123 0.354,-0.183 0.121,-0.062 0.277,-0.139 0.467,-0.237 -0.018,0.394 -0.032,0.701 -0.045,0.916 -0.016,0.216 -0.034,0.34 -0.055,0.371 -0.016,0.024 -0.041,0.039 -0.07,0.041 -0.03,0 -0.061,-0.002 -0.098,-0.016 -0.035,-0.009 -0.074,-0.028 -0.115,-0.053 -0.037,-0.021 -0.074,-0.044 -0.11,-0.06 l -0.078,0.119 0.809,0.547 z"
           style="fill:#181210;fill-opacity:1;fill-rule:nonzero;stroke:none"
           id="path2116"
           inkscape:connector-curvature="0" />
      </g>
      <g
         id="g2118"
         transform="matrix(1.25,0,0,-1.25,257.76975,857.4175)">
        <path
           d="M 0,0 C 0.041,0.134 0.055,0.277 0.049,0.436 0.041,0.59 0.012,0.758 -0.037,0.941 -0.09,1.127 -0.154,1.289 -0.234,1.437 -0.314,1.58 -0.406,1.702 -0.506,1.789 -0.605,1.883 -0.719,1.941 -0.838,1.97 -0.963,2.007 -1.09,1.998 -1.229,1.963 -1.383,1.919 -1.502,1.846 -1.59,1.745 -1.678,1.647 -1.738,1.529 -1.773,1.396 -1.807,1.266 -1.816,1.119 -1.807,0.961 -1.795,0.802 -1.768,0.639 -1.721,0.474 -1.67,0.29 -1.607,0.131 -1.535,-0.009 c 0.076,-0.139 0.164,-0.256 0.267,-0.352 0.1,-0.094 0.211,-0.159 0.332,-0.19 0.124,-0.035 0.256,-0.031 0.401,0.008 0.137,0.036 0.252,0.104 0.342,0.198 C -0.098,-0.249 -0.037,-0.138 0,0 M -0.246,2.001 C -0.09,1.908 0.043,1.787 0.162,1.624 0.275,1.47 0.367,1.281 0.426,1.065 0.484,0.851 0.506,0.646 0.484,0.453 0.465,0.257 0.408,0.079 0.322,-0.078 0.234,-0.233 0.123,-0.364 -0.016,-0.479 c -0.136,-0.103 -0.295,-0.182 -0.472,-0.237 -0.188,-0.049 -0.371,-0.062 -0.551,-0.036 -0.18,0.026 -0.346,0.091 -0.496,0.183 -0.149,0.09 -0.279,0.215 -0.395,0.377 -0.113,0.155 -0.201,0.336 -0.256,0.536 -0.058,0.22 -0.08,0.429 -0.058,0.617 0.019,0.194 0.072,0.372 0.162,0.534 0.084,0.157 0.195,0.292 0.338,0.401 0.139,0.111 0.295,0.185 0.469,0.237 0.179,0.049 0.359,0.059 0.537,0.039 0.177,-0.024 0.342,-0.08 0.492,-0.171"
           style="fill:#181210;fill-opacity:1;fill-rule:nonzero;stroke:none"
           id="path2120"
           inkscape:connector-curvature="0" />
      </g>
      <g
         id="g2122"
         transform="matrix(1.25,0,0,-1.25,261.68088,855.0505)">
        <path
           d="m 0,0 -0.148,-0.006 c -0.034,0.104 -0.096,0.212 -0.19,0.328 -0.092,0.115 -0.178,0.181 -0.26,0.189 -0.039,0 -0.088,0.005 -0.146,0.005 -0.055,0.003 -0.121,0 -0.192,-0.005 l -0.472,-0.014 0.039,-1.128 0.324,0.009 c 0.098,0.002 0.176,0.016 0.229,0.036 0.05,0.025 0.099,0.059 0.136,0.104 0.024,0.029 0.045,0.074 0.067,0.135 0.019,0.065 0.031,0.129 0.037,0.199 l 0.148,0.005 0.037,-1.104 -0.148,-0.002 c -0.008,0.054 -0.023,0.121 -0.047,0.193 -0.027,0.073 -0.053,0.123 -0.082,0.16 -0.039,0.043 -0.092,0.078 -0.152,0.093 -0.063,0.018 -0.133,0.023 -0.217,0.02 l -0.326,-0.013 0.031,-0.967 c 0.006,-0.042 0.014,-0.086 0.033,-0.119 0.018,-0.033 0.051,-0.056 0.094,-0.08 0.019,-0.007 0.064,-0.02 0.129,-0.028 0.068,-0.01 0.119,-0.016 0.154,-0.018 l 0.004,-0.139 -1.219,-0.041 -0.002,0.139 c 0.037,0.007 0.088,0.013 0.155,0.018 0.064,0.01 0.107,0.02 0.127,0.028 0.041,0.021 0.068,0.047 0.084,0.082 0.017,0.034 0.025,0.072 0.023,0.124 l -0.07,2.031 c 0,0.044 -0.008,0.079 -0.026,0.114 -0.015,0.033 -0.047,0.057 -0.095,0.077 -0.036,0.018 -0.082,0.031 -0.143,0.044 -0.061,0.01 -0.107,0.018 -0.145,0.018 l -0.003,0.142 2.207,0.072 z"
           style="fill:#181210;fill-opacity:1;fill-rule:nonzero;stroke:none"
           id="path2124"
           inkscape:connector-curvature="0" />
      </g>
      <g
         id="g2126"
         transform="matrix(1.25,0,0,-1.25,266.31712,857.6775)">
        <path
           d="m 0,0 -0.277,-0.783 -2.244,0.637 0.039,0.133 c 0.039,-0.007 0.091,-0.015 0.158,-0.025 0.062,-0.008 0.109,-0.01 0.129,-0.008 0.043,0.008 0.082,0.024 0.107,0.052 0.022,0.022 0.041,0.059 0.057,0.108 l 0.552,1.949 c 0.012,0.041 0.016,0.08 0.01,0.115 -0.006,0.039 -0.025,0.073 -0.064,0.106 -0.028,0.029 -0.071,0.055 -0.125,0.083 -0.053,0.029 -0.098,0.048 -0.131,0.062 L -1.752,2.563 0.338,1.972 0.154,1.316 0.008,1.355 C 0.012,1.461 -0.014,1.579 -0.068,1.709 -0.119,1.846 -0.184,1.928 -0.256,1.959 -0.295,1.972 -0.342,1.99 -0.395,2.008 -0.447,2.026 -0.512,2.047 -0.578,2.064 L -1.004,2.188 -1.311,1.112 -1.008,1.027 c 0.1,-0.028 0.174,-0.041 0.225,-0.036 0.051,0.008 0.097,0.027 0.144,0.062 0.035,0.031 0.077,0.072 0.116,0.13 0.035,0.053 0.062,0.107 0.086,0.167 L -0.293,1.306 -0.596,0.24 -0.74,0.282 c 0.011,0.062 0.017,0.131 0.013,0.206 -0.002,0.073 -0.009,0.126 -0.025,0.168 -0.025,0.06 -0.059,0.106 -0.107,0.134 -0.043,0.031 -0.11,0.057 -0.19,0.08 L -1.355,0.955 -1.586,0.143 c -0.021,-0.078 -0.035,-0.147 -0.037,-0.2 -0.002,-0.046 0.012,-0.089 0.037,-0.124 0.027,-0.033 0.066,-0.063 0.123,-0.087 0.053,-0.021 0.133,-0.044 0.24,-0.075 0.037,-0.012 0.094,-0.028 0.162,-0.049 0.071,-0.017 0.129,-0.036 0.178,-0.039 0.049,-0.012 0.1,-0.014 0.156,-0.017 0.055,0 0.098,0.005 0.123,0.023 0.081,0.044 0.165,0.121 0.266,0.228 0.098,0.104 0.164,0.184 0.201,0.238 z"
           style="fill:#181210;fill-opacity:1;fill-rule:nonzero;stroke:none"
           id="path2128"
           inkscape:connector-curvature="0" />
      </g>
      <g
         id="g2130"
         transform="matrix(1.25,0,0,-1.25,269.48363,858.6125)">
        <path
           d="M 0,0 C 0.094,0.163 0.156,0.32 0.191,0.478 0.223,0.638 0.225,0.789 0.199,0.935 0.176,1.076 0.119,1.202 0.037,1.327 -0.047,1.448 -0.162,1.549 -0.301,1.629 -0.346,1.654 -0.4,1.686 -0.459,1.717 -0.521,1.747 -0.564,1.775 -0.594,1.788 l -1.084,-1.873 c -0.06,-0.101 -0.072,-0.191 -0.035,-0.266 0.039,-0.077 0.119,-0.15 0.246,-0.221 0.147,-0.088 0.287,-0.135 0.428,-0.145 0.137,-0.01 0.266,0.007 0.387,0.06 0.127,0.056 0.242,0.139 0.347,0.244 C -0.199,-0.308 -0.098,-0.168 0,0 m 0.418,-0.245 c -0.121,-0.209 -0.264,-0.363 -0.43,-0.472 -0.166,-0.105 -0.34,-0.173 -0.517,-0.199 -0.186,-0.025 -0.369,-0.018 -0.555,0.028 -0.184,0.044 -0.357,0.109 -0.525,0.209 l -1.01,0.583 0.072,0.124 c 0.031,-0.022 0.078,-0.044 0.135,-0.069 0.057,-0.021 0.096,-0.036 0.117,-0.036 0.043,-0.01 0.082,0 0.115,0.02 0.032,0.022 0.059,0.05 0.082,0.094 l 1.018,1.757 c 0.027,0.041 0.039,0.077 0.043,0.118 0.006,0.036 -0.01,0.078 -0.035,0.119 -0.026,0.038 -0.059,0.073 -0.094,0.103 -0.037,0.037 -0.07,0.059 -0.102,0.08 l 0.075,0.122 1.062,-0.617 C 0.016,1.636 0.146,1.525 0.264,1.398 0.377,1.272 0.467,1.141 0.529,1.001 0.613,0.818 0.648,0.617 0.633,0.408 0.619,0.193 0.549,-0.022 0.418,-0.245"
           style="fill:#181210;fill-opacity:1;fill-rule:nonzero;stroke:none"
           id="path2132"
           inkscape:connector-curvature="0" />
      </g>
      <g
         id="g2134"
         transform="matrix(1.25,0,0,-1.25,274.20775,860.74137)">
        <path
           d="M 0,0 C -0.025,0.023 -0.07,0.058 -0.131,0.099 -0.193,0.135 -0.25,0.161 -0.305,0.174 -0.355,0.187 -0.422,0.161 -0.502,0.108 -0.582,0.055 -0.672,-0.022 -0.768,-0.12 l -0.867,-0.865 c -0.113,-0.109 -0.23,-0.181 -0.355,-0.219 -0.131,-0.034 -0.256,-0.042 -0.385,-0.019 -0.123,0.026 -0.24,0.07 -0.342,0.124 -0.105,0.062 -0.191,0.129 -0.265,0.204 -0.122,0.122 -0.211,0.243 -0.274,0.369 -0.062,0.124 -0.098,0.245 -0.105,0.364 -0.01,0.116 0.002,0.224 0.043,0.323 0.037,0.1 0.091,0.191 0.166,0.265 l 1.181,1.175 c 0.032,0.033 0.055,0.064 0.067,0.095 0.011,0.035 0.009,0.076 -0.004,0.129 -0.012,0.036 -0.031,0.074 -0.059,0.124 -0.031,0.041 -0.054,0.074 -0.076,0.103 l 0.098,0.097 0.824,-0.825 -0.102,-0.097 c -0.025,0.025 -0.064,0.05 -0.111,0.082 -0.043,0.033 -0.08,0.054 -0.103,0.067 -0.043,0.02 -0.084,0.022 -0.12,0.01 C -1.596,1.368 -1.627,1.345 -1.66,1.312 L -2.762,0.215 C -2.816,0.161 -2.865,0.102 -2.912,0.034 -2.961,-0.035 -2.99,-0.118 -3.008,-0.2 c -0.015,-0.088 -0.01,-0.181 0.022,-0.279 0.029,-0.094 0.101,-0.197 0.211,-0.31 0.103,-0.101 0.209,-0.173 0.306,-0.212 0.104,-0.038 0.203,-0.046 0.297,-0.038 0.09,0.016 0.168,0.038 0.24,0.077 0.073,0.042 0.137,0.088 0.194,0.142 l 0.818,0.818 c 0.104,0.104 0.182,0.193 0.233,0.275 0.05,0.081 0.074,0.146 0.064,0.197 -0.008,0.056 -0.035,0.119 -0.078,0.189 -0.043,0.07 -0.078,0.12 -0.108,0.152 l 0.1,0.098 0.811,-0.81 z"
           style="fill:#181210;fill-opacity:1;fill-rule:nonzero;stroke:none"
           id="path2136"
           inkscape:connector-curvature="0" />
      </g>
      <g
         id="g2138"
         transform="matrix(1.25,0,0,-1.25,272.5745,864.59762)">
        <path
           d="m 0,0 c -0.084,0.144 -0.141,0.299 -0.164,0.467 -0.022,0.165 -0.008,0.33 0.039,0.495 0.047,0.167 0.129,0.322 0.246,0.477 0.117,0.15 0.274,0.284 0.467,0.4 C 0.781,1.956 0.973,2.03 1.166,2.063 1.359,2.1 1.543,2.1 1.717,2.063 1.893,2.027 2.051,1.957 2.197,1.852 2.342,1.751 2.463,1.623 2.557,1.46 2.629,1.339 2.678,1.225 2.709,1.112 2.736,1.001 2.752,0.882 2.746,0.766 H 2.908 L 2.986,0.627 2.137,0.101 2.053,0.234 C 2.125,0.307 2.199,0.387 2.275,0.479 2.354,0.574 2.41,0.668 2.447,0.758 2.492,0.856 2.516,0.96 2.516,1.057 2.512,1.16 2.482,1.256 2.424,1.352 2.361,1.46 2.275,1.551 2.172,1.611 2.066,1.68 1.945,1.716 1.809,1.729 1.676,1.738 1.529,1.723 1.363,1.674 1.201,1.627 1.029,1.551 0.855,1.442 0.699,1.352 0.572,1.252 0.463,1.132 0.357,1.016 0.279,0.895 0.225,0.766 0.17,0.632 0.145,0.502 0.152,0.368 0.154,0.24 0.193,0.107 0.266,-0.009 c 0.056,-0.092 0.121,-0.169 0.195,-0.228 0.074,-0.058 0.152,-0.102 0.234,-0.13 0.084,-0.026 0.172,-0.044 0.26,-0.049 0.09,-0.002 0.18,0.005 0.272,0.023 L 1.242,-0.558 C 0.943,-0.604 0.695,-0.578 0.498,-0.482 0.297,-0.38 0.133,-0.22 0,0"
           style="fill:#181210;fill-opacity:1;fill-rule:nonzero;stroke:none"
           id="path2140"
           inkscape:connector-curvature="0" />
      </g>
      <g
         id="g2142"
         transform="matrix(1.25,0,0,-1.25,275.35762,867.24288)">
        <path
           d="M 0,0 0.916,0.748 -0.26,0.813 Z m -0.756,-1.425 -0.353,1.115 0.132,0.041 c 0.038,-0.094 0.077,-0.175 0.118,-0.229 0.037,-0.062 0.072,-0.086 0.099,-0.077 0.012,0.003 0.024,0.007 0.039,0.018 0.018,0.007 0.032,0.013 0.041,0.026 l 0.532,0.41 -0.301,0.944 c -0.102,0.013 -0.186,0.019 -0.258,0.019 h -0.199 c -0.063,0 -0.112,0 -0.145,-0.006 C -1.088,0.831 -1.115,0.823 -1.139,0.817 -1.187,0.8 -1.215,0.748 -1.217,0.658 -1.221,0.572 -1.207,0.478 -1.182,0.377 L -1.314,0.333 -1.635,1.342 -1.502,1.386 C -1.49,1.353 -1.469,1.313 -1.439,1.27 -1.412,1.223 -1.383,1.187 -1.354,1.158 -1.307,1.122 -1.258,1.097 -1.211,1.079 -1.162,1.061 -1.105,1.052 -1.029,1.045 -0.65,1.022 -0.225,0.994 0.248,0.963 0.719,0.932 1.141,0.905 1.508,0.883 L 1.555,0.73 -0.479,-0.9 C -0.52,-0.931 -0.553,-0.968 -0.574,-1.001 -0.6,-1.035 -0.617,-1.079 -0.633,-1.13 -0.639,-1.164 -0.645,-1.208 -0.639,-1.257 -0.635,-1.308 -0.633,-1.35 -0.621,-1.38 Z"
           style="fill:#181210;fill-opacity:1;fill-rule:nonzero;stroke:none"
           id="path2144"
           inkscape:connector-curvature="0" />
      </g>
      <g
         id="g2146"
         transform="matrix(1.25,0,0,-1.25,277.1375,871.64238)">
        <path
           d="m 0,0 -0.01,0.137 c 0.043,0.015 0.1,0.041 0.162,0.078 0.061,0.035 0.119,0.076 0.176,0.123 0.059,0.039 0.106,0.089 0.149,0.14 0.041,0.051 0.062,0.098 0.068,0.142 0,0.038 0,0.092 -0.004,0.153 0,0.066 -0.002,0.123 -0.008,0.177 L 0.523,1.063 -1.721,0.883 C -1.766,0.877 -1.807,0.867 -1.84,0.846 -1.873,0.823 -1.902,0.786 -1.918,0.74 -1.922,0.718 -1.934,0.663 -1.941,0.589 -1.951,0.511 -1.955,0.449 -1.953,0.41 l -0.137,-0.011 -0.109,1.322 0.14,0.01 C -2.055,1.698 -2.043,1.644 -2.031,1.563 -2.018,1.492 -2.002,1.437 -1.99,1.411 -1.969,1.368 -1.941,1.34 -1.906,1.321 -1.873,1.303 -1.828,1.298 -1.773,1.3 L 0.49,1.483 0.482,1.6 C 0.477,1.639 0.475,1.689 0.465,1.749 0.459,1.809 0.451,1.866 0.441,1.923 0.432,1.964 0.402,2.007 0.35,2.049 0.299,2.092 0.244,2.132 0.182,2.167 0.119,2.201 0.055,2.229 -0.016,2.256 -0.082,2.283 -0.139,2.297 -0.186,2.307 L -0.197,2.446 0.562,2.508 0.758,0.06 Z"
           style="fill:#181210;fill-opacity:1;fill-rule:nonzero;stroke:none"
           id="path2148"
           inkscape:connector-curvature="0" />
      </g>
      <g
         id="g2150"
         transform="matrix(1.25,0,0,-1.25,274.35175,873.60037)">
        <path
           d="M 0,0 0.125,1.262 0.266,1.249 C 0.264,1.213 0.264,1.161 0.262,1.094 0.26,1.024 0.264,0.979 0.27,0.95 0.283,0.903 0.307,0.87 0.332,0.849 0.361,0.823 0.4,0.811 0.451,0.805 L 2.484,0.604 c 0.043,-0.008 0.082,0 0.116,0.01 0.033,0.01 0.062,0.041 0.091,0.093 0.018,0.037 0.039,0.085 0.057,0.145 0.02,0.057 0.035,0.105 0.037,0.147 L 2.926,0.981 2.803,-0.276 2.662,-0.263 c 0,0.041 0,0.09 -0.002,0.148 0,0.053 -0.008,0.108 -0.015,0.149 C 2.633,0.085 2.609,0.122 2.576,0.143 2.543,0.165 2.504,0.176 2.463,0.181 L 0.432,0.383 C 0.389,0.387 0.348,0.383 0.312,0.367 0.279,0.352 0.246,0.323 0.223,0.276 0.211,0.248 0.193,0.206 0.174,0.145 0.156,0.082 0.146,0.031 0.141,-0.01 Z"
           style="fill:#181210;fill-opacity:1;fill-rule:nonzero;stroke:none"
           id="path2152"
           inkscape:connector-curvature="0" />
      </g>
      <g
         id="g2154"
         transform="matrix(1.25,0,0,-1.25,274.22,876.47388)">
        <path
           d="m 0,0 c 0.094,-0.105 0.207,-0.199 0.342,-0.278 0.137,-0.076 0.293,-0.143 0.472,-0.195 0.184,-0.056 0.36,-0.091 0.524,-0.102 0.166,-0.014 0.314,-0.003 0.443,0.033 0.131,0.037 0.242,0.099 0.336,0.184 0.092,0.087 0.158,0.196 0.201,0.33 C 2.363,0.124 2.369,0.263 2.334,0.393 2.295,0.521 2.229,0.635 2.133,0.738 2.043,0.836 1.928,0.926 1.787,1.001 1.646,1.078 1.496,1.144 1.33,1.195 1.15,1.252 0.979,1.283 0.822,1.298 0.666,1.309 0.52,1.301 0.385,1.265 0.254,1.229 0.139,1.169 0.043,1.084 -0.051,1.001 -0.119,0.891 -0.164,0.743 -0.207,0.606 -0.213,0.478 -0.184,0.352 -0.154,0.219 -0.094,0.104 0,0 M 1.818,-0.872 C 1.658,-0.954 1.48,-0.998 1.283,-1.015 c -0.195,-0.012 -0.4,0.017 -0.611,0.08 -0.213,0.066 -0.397,0.164 -0.549,0.282 -0.154,0.124 -0.273,0.266 -0.359,0.428 -0.086,0.153 -0.135,0.318 -0.155,0.496 -0.015,0.175 0,0.351 0.057,0.524 0.057,0.188 0.147,0.351 0.266,0.488 C 0.051,1.42 0.191,1.525 0.352,1.601 0.51,1.672 0.686,1.719 0.881,1.731 1.078,1.739 1.273,1.714 1.475,1.654 1.693,1.587 1.877,1.489 2.027,1.365 2.176,1.249 2.295,1.106 2.385,0.95 2.473,0.792 2.521,0.624 2.541,0.446 2.555,0.271 2.541,0.093 2.486,-0.077 2.43,-0.255 2.346,-0.415 2.229,-0.555 2.115,-0.688 1.975,-0.797 1.818,-0.872"
           style="fill:#181210;fill-opacity:1;fill-rule:nonzero;stroke:none"
           id="path2156"
           inkscape:connector-curvature="0" />
      </g>
      <g
         id="g2158"
         transform="matrix(1.25,0,0,-1.25,274.1565,882.18925)">
        <path
           d="m 0,0 c 0.021,0.031 0.041,0.086 0.064,0.162 0.03,0.075 0.04,0.133 0.041,0.171 -0.003,0.062 -0.041,0.118 -0.111,0.184 -0.07,0.064 -0.166,0.136 -0.287,0.213 l -1.74,1.107 0.094,0.144 2.859,0.203 -1.227,0.781 C -0.443,3.05 -0.557,3.111 -0.639,3.14 -0.723,3.171 -0.793,3.177 -0.848,3.161 -0.887,3.151 -0.943,3.111 -1.016,3.047 -1.09,2.978 -1.135,2.934 -1.152,2.908 L -1.271,2.983 -0.65,3.961 -0.531,3.884 C -0.547,3.853 -0.57,3.793 -0.596,3.71 -0.621,3.625 -0.635,3.571 -0.629,3.541 -0.623,3.481 -0.594,3.425 -0.537,3.373 -0.48,3.313 -0.377,3.238 -0.221,3.139 L 0.949,2.392 C 1.002,2.358 1.059,2.338 1.121,2.32 1.182,2.308 1.238,2.308 1.285,2.317 1.348,2.335 1.412,2.369 1.48,2.42 1.555,2.467 1.602,2.519 1.631,2.558 L 1.75,2.482 1.32,1.807 -1.34,1.623 -0.211,0.906 C -0.072,0.815 0.039,0.759 0.125,0.729 0.209,0.7 0.273,0.694 0.322,0.713 0.359,0.729 0.414,0.767 0.48,0.823 0.545,0.883 0.59,0.929 0.615,0.965 L 0.734,0.888 0.121,-0.077 Z"
           style="fill:#181210;fill-opacity:1;fill-rule:nonzero;stroke:none"
           id="path2160"
           inkscape:connector-curvature="0" />
      </g>
      <g
         id="g2162"
         transform="matrix(1.25,0,0,-1.25,260.95087,852.5175)">
        <path
           d="m 0,0 c -8.346,0 -15.135,-6.791 -15.135,-15.135 0,-8.344 6.789,-15.133 15.135,-15.133 8.344,0 15.131,6.789 15.131,15.133 C 15.131,-6.791 8.344,0 0,0 m 0,-30.502 c -8.475,0 -15.371,6.895 -15.371,15.367 0,8.471 6.896,15.371 15.371,15.371 8.473,0 15.367,-6.9 15.367,-15.371 0,-8.472 -6.894,-15.367 -15.367,-15.367"
           style="fill:#181210;fill-opacity:1;fill-rule:nonzero;stroke:none"
           id="path2164"
           inkscape:connector-curvature="0" />
      </g>
      <g
         id="g2166"
         transform="matrix(1.25,0,0,-1.25,254.95725,883.44038)">
        <path
           d="M 0,0 0.111,-0.064 C 0.191,-0.171 0.049,-0.338 -0.318,-0.57 L -0.053,-0.754 0.92,-1.3 C 0.881,-1.541 0.742,-1.598 0.512,-1.471 0.52,-1.435 0.236,-1.265 -0.34,-0.955 l -0.336,0.13 -0.283,-0.148 c -0.187,0.057 -0.277,0.202 -0.271,0.434 l 0.048,0.095 C -0.857,-0.501 -0.463,-0.353 0,0 m -0.125,-1.391 0.127,-0.077 c 0.111,-0.054 0.004,-0.254 -0.32,-0.594 -0.11,-0.154 -0.319,-0.355 -0.627,-0.611 0.119,-0.413 0.33,-0.769 0.634,-1.068 l 0.176,-0.175 c -0.08,-0.23 -0.353,-0.235 -0.822,-0.016 -0.102,0.036 -0.221,0.394 -0.361,1.069 l -0.01,0.009 c -0.147,-0.07 -0.371,-0.124 -0.676,-0.162 -0.098,0 -0.201,0.02 -0.305,0.064 -0.171,0.117 -0.246,0.323 -0.224,0.614 l 0.068,0.129 0.026,0.006 c 0.316,-0.264 0.668,-0.338 1.056,-0.225 l -0.096,0.993 0.042,0.081 c 0.048,0.046 0.095,0.054 0.132,0.033 l 0.098,-0.059 c 0.035,-0.003 0.061,-0.145 0.08,-0.431 l 0.084,-0.478 c 0.231,0.091 0.512,0.385 0.844,0.884 z M -1.75,0.517 -2.02,0.119 -1.863,0.025 c 0.183,0.037 0.379,0.102 0.584,0.2 l -0.004,0.018 z m 0.049,0.698 0.137,-0.08 C -1.465,1.032 -1.479,0.906 -1.605,0.764 L -1.15,0.462 c 0.046,-0.028 0.056,-0.088 0.027,-0.171 l 0.326,0.15 0.08,-0.044 c 0.045,-0.193 -0.22,-0.376 -0.795,-0.559 l 0.26,-0.174 c -0.09,-0.226 -0.244,-0.255 -0.469,-0.074 l -0.209,0.137 -0.478,-0.063 0.82,-0.498 c 0.102,-0.128 -0.002,-0.193 -0.316,-0.178 l -0.604,-0.09 0.039,-0.333 0.471,-0.209 c 0.045,-0.211 -0.129,-0.229 -0.52,-0.059 l -0.025,-0.041 c -0.049,-0.209 -0.191,-0.451 -0.428,-0.727 -0.375,-0.202 -0.761,-0.104 -1.162,0.293 l 0.051,0.456 h 0.043 l 0.357,-0.293 c 0.297,-0.152 0.516,-0.131 0.655,0.07 l 0.177,0.309 c -0.16,0.067 -0.619,0.17 -1.371,0.307 -0.08,0.039 -0.111,0.086 -0.101,0.147 l 0.076,0.142 c 0.01,0.147 0.301,0.114 0.871,-0.106 l 0.627,-0.193 c 0.041,0.018 -0.002,0.209 -0.139,0.568 l 0.037,0.072 0.049,0.015 c 0.055,-0.007 0.127,-0.077 0.213,-0.209 l 0.399,0.09 0.013,0.024 c -0.318,0.294 -0.758,0.459 -1.314,0.501 l -0.201,0.061 c -0.139,0.109 -0.204,0.274 -0.192,0.48 l 0.049,0.091 c 0.02,0.026 0.119,-0.037 0.291,-0.17 0.277,-0.194 0.668,-0.274 1.172,-0.241 l 0.037,0.021 -0.756,0.433 -0.346,0.145 -0.054,0.116 0.058,0.114 C -3.357,0.828 -3.285,0.85 -3.217,0.836 -3.16,0.77 -2.854,0.586 -2.299,0.3 L -2.1,0.726 -2.768,1.02 -2.795,1.133 -2.734,1.241 -2.551,1.3 -1.965,0.968 -1.801,1.202 Z"
           style="fill:#181210;fill-opacity:1;fill-rule:nonzero;stroke:none"
           id="path2168"
           inkscape:connector-curvature="0" />
      </g>
      <g
         id="g2170"
         transform="matrix(1.25,0,0,-1.25,261.178,885.4595)">
        <path
           d="m 0,0 c -0.137,-0.145 -0.367,-0.325 -0.689,-0.534 v -0.013 c 0.199,-0.099 0.722,-0.099 1.57,0 l 0.012,0.06 -0.348,0.476 z M -0.135,-1.435 -0.773,-1.509 -0.785,-1.765 1.1,-1.774 v 0.291 l -0.059,0.048 z m 1.223,-0.609 -1.887,-0.082 -0.039,-0.266 1.904,-0.013 z m 0.193,0.903 H 1.42 c 0.139,0.011 0.139,-0.213 0,-0.66 l -0.014,-0.87 c 0.047,-0.124 0.047,-0.324 0,-0.6 -0.299,-0.148 -0.414,0.054 -0.34,0.6 -0.587,0.034 -1.267,0 -2.037,-0.079 -0.242,-0.361 -0.599,-0.561 -1.072,-0.584 -0.215,0.073 -0.385,0.207 -0.516,0.4 v 0.111 c 0,0.042 0.063,0.052 0.186,0.042 0.258,-0.018 0.564,0.028 0.918,0.144 0.371,0.116 0.48,0.58 0.328,1.383 l 0.088,0.088 c 0.008,-0.025 0.277,-0.025 0.807,0 L 1.164,-1.169 Z M -0.01,0.88 H 0.156 C 0.309,0.888 0.334,0.697 0.232,0.308 l 1.914,0.007 0.52,0.029 C 2.783,0.176 2.637,0.008 2.227,-0.154 L 0.971,-0.033 1.402,-0.668 C 1.412,-0.82 1.346,-0.887 1.199,-0.874 l -1.511,-0.011 c -0.002,0.033 -0.227,0.033 -0.668,0 -0.157,-0.033 -0.262,-0.008 -0.331,0.085 v 0.119 c -0.033,0.044 0.133,0.169 0.497,0.379 L -0.52,0 c -0.244,0.016 -0.798,-0.028 -1.662,-0.129 -0.111,-0.054 -0.23,-0.044 -0.351,0.034 l -0.026,0.157 0.186,0.183 c 0.008,-0.022 0.4,-0.013 1.174,0.036 L -0.076,0.308 -0.16,0.697 V 0.73 c 0.025,0.093 0.074,0.142 0.15,0.15"
           style="fill:#181210;fill-opacity:1;fill-rule:nonzero;stroke:none"
           id="path2172"
           inkscape:connector-curvature="0" />
      </g>
      <g
         id="g2174"
         transform="matrix(1.25,0,0,-1.25,269.16138,883.08888)">
        <path
           d="m 0,0 1.189,-1.344 c 0.235,0.162 0.397,0.368 0.483,0.624 l 0.01,0.199 -0.104,0.15 C 1.473,-0.269 1.291,-0.25 1.027,-0.312 0.984,-0.291 0.91,-0.396 0.812,-0.624 0.766,-0.671 0.715,-0.684 0.666,-0.652 L 0.598,-0.576 0.641,0.488 0.611,0.491 Z M -0.424,0.006 0.801,0.988 C 1.031,1.053 1.092,0.834 0.979,0.323 l -0.016,-0.3 c 0.006,-0.031 0.096,-0.031 0.269,0 C 1.625,0.028 1.879,-0.11 2,-0.393 2.117,-0.795 1.914,-1.191 1.389,-1.576 L 1.914,-2.149 C 1.971,-2.227 1.99,-2.31 1.975,-2.404 1.895,-2.526 1.791,-2.531 1.666,-2.425 1.568,-2.289 1.037,-1.661 0.078,-0.545 l -0.301,0.316 c -0.019,-0.062 -0.082,-0.098 -0.179,-0.106 l -0.102,0.101 c -0.031,0.069 -0.004,0.143 0.08,0.24 m -0.293,-2.767 c -0.092,-0.036 -0.047,-0.143 0.123,-0.327 l 0.276,-0.331 0.107,0.008 0.637,0.529 0.146,0.101 c 0.057,0.036 -0.039,0.198 -0.297,0.482 l -0.127,0.15 c -0.041,0.048 -0.261,-0.104 -0.662,-0.45 z m -0.431,0.026 c 0.027,0.044 0.132,0.101 0.318,0.173 l 0.797,0.626 c 0.012,0.055 0.056,0.101 0.133,0.145 0.091,0.075 0.267,-0.101 0.523,-0.519 L 0.895,-2.632 C 0.975,-2.698 0.969,-2.781 0.887,-2.877 0.859,-2.841 0.525,-3.1 -0.109,-3.646 l -0.188,-0.149 -0.09,0.016 c 0.024,0.025 -0.142,0.226 -0.486,0.603 l -0.299,0.33 z m -0.702,1.992 0.112,0.091 c 0.101,0.09 0.234,-0.019 0.388,-0.33 l 0.659,0.539 c 0.17,-0.148 0.146,-0.287 -0.073,-0.416 l -1.117,-0.896 -0.24,-0.248 -0.113,-0.004 -0.071,0.082 c -0.023,0.08 -0.017,0.153 0.016,0.204 0.1,0.041 0.33,0.229 0.695,0.555 l -0.287,0.229 c -0.031,0.081 -0.021,0.142 0.031,0.194 m 1.03,-0.31 0.105,0.083 c 0.115,0.082 0.223,-0.07 0.32,-0.449 l 0.026,-0.036 0.39,0.338 C 0.187,-1.15 0.219,-1.254 0.119,-1.422 L -0.635,-2.016 C -0.803,-2.11 -1.145,-2.409 -1.66,-2.919 -1.717,-2.944 -1.758,-2.946 -1.789,-2.923 l -0.066,0.079 c -0.032,0.092 -0.018,0.166 0.037,0.225 0.064,0.036 0.224,0.166 0.484,0.388 0.014,0.033 -0.082,0.085 -0.289,0.159 l -0.168,0.098 c -0.016,0.06 -0.004,0.111 0.027,0.148 l 0.123,0.097 c 0.059,0.096 0.215,-0.01 0.467,-0.318 l 0.018,-0.038 0.601,0.482 -0.285,0.458 z"
           style="fill:#181210;fill-opacity:1;fill-rule:nonzero;stroke:none"
           id="path2176"
           inkscape:connector-curvature="0" />
      </g>
    </g>
  </g>
</svg>
