<?xml version="1.0" encoding="UTF-8" standalone="no"?>
<svg
   xmlns:dc="http://purl.org/dc/elements/1.1/"
   xmlns:cc="http://creativecommons.org/ns#"
   xmlns:rdf="http://www.w3.org/1999/02/22-rdf-syntax-ns#"
   xmlns:svg="http://www.w3.org/2000/svg"
   xmlns="http://www.w3.org/2000/svg"
   xmlns:sodipodi="http://sodipodi.sourceforge.net/DTD/sodipodi-0.dtd"
   xmlns:inkscape="http://www.inkscape.org/namespaces/inkscape"
   viewBox="0 0 835.9692 201.28363"
   height="201.28363"
   width="835.96924"
   xml:space="preserve"
   version="1.1"
   id="svg2"
   sodipodi:docname="1233333.svg"
   inkscape:version="0.92.2 (5c3e80d, 2017-08-06)"><sodipodi:namedview
     pagecolor="#ffffff"
     bordercolor="#666666"
     borderopacity="1"
     objecttolerance="10"
     gridtolerance="10"
     guidetolerance="10"
     inkscape:pageopacity="0"
     inkscape:pageshadow="2"
     inkscape:window-width="1366"
     inkscape:window-height="706"
     id="namedview103"
     showgrid="false"
     fit-margin-top="0"
     fit-margin-left="0"
     fit-margin-right="0"
     fit-margin-bottom="0"
     inkscape:zoom="0.44853435"
     inkscape:cx="414.52577"
     inkscape:cy="97.490315"
     inkscape:window-x="-8"
     inkscape:window-y="-8"
     inkscape:window-maximized="1"
     inkscape:current-layer="svg2" /><metadata
     id="metadata8"><rdf:RDF><cc:Work
         rdf:about=""><dc:format>image/svg+xml</dc:format><dc:type
           rdf:resource="http://purl.org/dc/dcmitype/StillImage" /><dc:title></dc:title></cc:Work></rdf:RDF></metadata><defs
     id="defs6"><clipPath
       id="clipPath16"
       clipPathUnits="userSpaceOnUse"><path
         id="path18"
         d="M 351.298,369.303 C 348.87,405.315 239.703,422.789 81.475,279.3 v 0 h 33.468 c 103.221,118.615 250.72,130.916 228.005,68.082 v 0 c 0,0 64.387,69.145 140.651,43.564 v 0 c 0.372,-0.39 0.887,-0.431 1.136,-0.116 v 0 c 0.274,0.358 -0.089,0.984 -0.281,1.422 v 0 c -14.658,5.773 -29.122,8.046 -42.796,8.047 v 0 c -50.518,0.003 -90.36,-30.996 -90.36,-30.996"
         inkscape:connector-curvature="0" /></clipPath><linearGradient
       id="linearGradient24"
       spreadMethod="pad"
       gradientTransform="matrix(300.43179,122.97845,122.97845,-300.43179,99.032715,278.68066)"
       gradientUnits="userSpaceOnUse"
       y2="0"
       x2="1"
       y1="0"
       x1="0"><stop
         id="stop26"
         offset="0"
         style="stop-opacity:1;stop-color:#e1740d" /><stop
         id="stop28"
         offset="1"
         style="stop-opacity:1;stop-color:#f3d922" /></linearGradient><clipPath
       id="clipPath36"
       clipPathUnits="userSpaceOnUse"><path
         id="path38"
         d="M 0,595.28 H 841.89 V 0 H 0 Z"
         inkscape:connector-curvature="0" /></clipPath></defs><g
     transform="matrix(1.25,0,0,-1.25,-101.84375,500.37375)"
     id="g10"><g
       id="g12"><g
         clip-path="url(#clipPath16)"
         id="g14"><g
           id="g20"><g
             id="g22"><path
               id="path30"
               style="fill:url(#linearGradient24);stroke:none"
               d="M 351.298,369.303 C 348.87,405.315 239.703,422.789 81.475,279.3 v 0 h 33.468 c 103.221,118.615 250.72,130.916 228.005,68.082 v 0 c 0,0 64.387,69.145 140.651,43.564 v 0 c 0.372,-0.39 0.887,-0.431 1.136,-0.116 v 0 c 0.274,0.358 -0.089,0.984 -0.281,1.422 v 0 c -14.658,5.773 -29.122,8.046 -42.796,8.047 v 0 c -50.518,0.003 -90.36,-30.996 -90.36,-30.996"
               inkscape:connector-curvature="0" /></g></g></g></g><g
       id="g32"><g
         clip-path="url(#clipPath36)"
         id="g34"><g
           transform="translate(325.2246,344.2568)"
           id="g40"><path
             id="path42"
             style="fill:#4285f4;fill-opacity:1;fill-rule:nonzero;stroke:none"
             d="m 0,0 c -20.073,0 -39.287,-15.107 -42.833,-33.675 -3.537,-18.568 9.915,-33.68 29.989,-33.68 20.078,0 39.29,15.112 42.832,33.68 C 33.528,-15.107 20.076,0 0,0"
             inkscape:connector-curvature="0" /></g><g
           transform="translate(473.2344,325.8306)"
           id="g44"><path
             id="path46"
             style="fill:#4285f4;fill-opacity:1;fill-rule:nonzero;stroke:none"
             d="m 0,0 h -15.311 l -8.729,-45.816 h -11.581 c -9.728,0 -6.712,9.434 -6.712,9.434 l 6.947,36.437 h -52.175 c -3.41,0 -6.184,-1.016 -6.728,-3.894 -0.551,-2.875 1.727,-4.202 4.853,-4.202 h 22.373 c 0.716,0.012 18.186,0.262 13.867,-19.801 -1.316,-6.115 -5.893,-17.974 -20.531,-17.974 h -48.371 c 3.69,11.878 7.499,15.365 14.838,15.365 h 28.775 c 3.24,0 5.875,0.618 6.433,3.557 0.562,2.941 -1.927,3.449 -5.1,3.449 h -20.674 c -0.024,-0.006 -20.089,-0.649 -15.94,19.438 3.749,18.157 20.52,19.382 21.201,19.382 H 11.896 L 9.492,6.569 C 9.492,6.569 7.643,0 0,0"
             inkscape:connector-curvature="0" /></g><g
           transform="translate(180.3418,280.0029)"
           id="g48"><path
             id="path50"
             style="fill:#4285f4;fill-opacity:1;fill-rule:nonzero;stroke:none"
             d="m 0,0 9.557,50.138 c 1.205,6.313 8.097,11.434 15.4,11.434 4.333,0 8.042,-1.835 9.926,-4.916 L 50.487,31.163 c 0.263,-0.433 1.009,-0.433 1.437,0 l 25.324,25.493 c 3.059,3.081 7.467,4.916 11.798,4.916 7.301,0 12.246,-5.121 11.043,-11.434 L 90.532,0 H 78.951 C 70.427,0 72.237,9.438 72.237,9.438 L 77.408,36.803 58.609,17.875 c -5.952,-5.997 -16.207,-5.997 -19.875,0 L 27.146,36.803 21.727,8.345 C 21.727,8.345 21.093,0 13.206,0 Z"
             inkscape:connector-curvature="0" /></g><g
           transform="translate(180.5298,268.292)"
           id="g52"><path
             id="path54"
             style="fill:#262626;fill-opacity:1;fill-rule:nonzero;stroke:none"
             d="m 0,0 h 4.558 l 4.627,-10.988 c 0.588,-1.444 1.096,-2.914 1.686,-4.395 h 0.169 c 0.578,1.481 1.054,2.951 1.641,4.395 L 17.242,0 h 4.594 v -21.727 h -3.702 v 10.739 c 0,1.955 0.309,4.759 0.509,6.74 H 18.505 L 16.487,-9.271 12.094,-19.623 H 9.626 L 5.212,-9.271 3.223,-4.248 H 3.081 C 3.254,-6.229 3.56,-9.033 3.56,-10.988 V -21.727 H 0 Z"
             inkscape:connector-curvature="0" /></g><path
           id="path56"
           style="fill:#262626;fill-opacity:1;fill-rule:nonzero;stroke:none"
           d="m 208.636,262.804 h 3.915 v -16.238 h -3.915 z m -0.543,5.043 c 0,1.215 1.065,2.013 2.503,2.013 1.435,0 2.537,-0.798 2.537,-2.013 0,-1.182 -1.102,-2.006 -2.537,-2.006 -1.438,0 -2.503,0.824 -2.503,2.006"
           inkscape:connector-curvature="0" /><g
           transform="translate(218.4795,262.8037)"
           id="g58"><path
             id="path60"
             style="fill:#262626;fill-opacity:1;fill-rule:nonzero;stroke:none"
             d="M 0,0 H 3.218 L 3.53,-2.246 h 0.105 c 1.75,1.441 3.663,2.662 6.237,2.662 4.014,0 5.798,-2.309 5.798,-6.447 v -10.207 h -3.947 v 9.802 c 0,2.807 -0.96,3.922 -3.186,3.922 -1.745,0 -2.944,-0.761 -4.624,-2.207 V -16.238 H 0 Z"
             inkscape:connector-curvature="0" /></g><path
           id="path62"
           style="fill:#262626;fill-opacity:1;fill-rule:nonzero;stroke:none"
           d="m 239.875,262.804 h 3.907 v -16.238 h -3.907 z m -0.544,5.043 c 0,1.215 1.061,2.013 2.499,2.013 1.441,0 2.531,-0.798 2.531,-2.013 0,-1.182 -1.09,-2.006 -2.531,-2.006 -1.438,0 -2.499,0.824 -2.499,2.006"
           inkscape:connector-curvature="0" /><g
           transform="translate(247.731,248.4268)"
           id="g64"><path
             id="path66"
             style="fill:#262626;fill-opacity:1;fill-rule:nonzero;stroke:none"
             d="M 0,0 1.843,2.186 C 3.524,1.031 5.175,0.332 7.2,0.332 c 2.259,0 3.315,0.938 3.315,2.178 0,1.48 -2.12,2.123 -4.174,2.801 -2.506,0.828 -5.383,1.98 -5.383,4.72 0,2.721 2.538,4.762 6.689,4.762 2.532,0 4.587,-0.893 6.126,-1.922 l -1.846,-2.092 c -1.308,0.819 -2.639,1.412 -4.217,1.412 -2.053,0 -3.018,-0.888 -3.018,-2.009 0,-1.389 1.954,-1.916 4.017,-2.563 2.633,-0.853 5.547,-1.857 5.547,-4.93 0,-2.714 -2.506,-4.937 -7.168,-4.937 C 4.487,-2.248 1.813,-1.301 0,0"
             inkscape:connector-curvature="0" /></g><g
           transform="translate(266.0371,251.8779)"
           id="g68"><path
             id="path70"
             style="fill:#262626;fill-opacity:1;fill-rule:nonzero;stroke:none"
             d="m 0,0 v 8.209 h -2.741 v 2.539 l 2.91,0.178 0.445,4.486 H 3.939 V 10.926 H 8.846 V 8.209 H 3.939 v -8.236 c 0,-1.95 0.789,-2.953 2.748,-2.953 0.647,0 1.475,0.179 2.022,0.38 L 9.426,-5.104 C 8.364,-5.398 7.095,-5.699 5.728,-5.699 1.471,-5.699 0,-3.422 0,0"
             inkscape:connector-curvature="0" /></g><g
           transform="translate(302.3574,245.5967)"
           id="g72"><path
             id="path74"
             style="fill:#262626;fill-opacity:1;fill-rule:nonzero;stroke:none"
             d="m 0,0 c -1.482,-3.49 -3.467,-5.818 -7.438,-5.818 -0.961,0 -1.716,0.115 -2.369,0.33 l 0.753,2.648 c 0.339,-0.09 0.896,-0.234 1.37,-0.234 2.061,0 3.258,1.301 3.945,3.037 l 0.376,1.125 -7.47,16.119 h 4.039 l 3.502,-8.355 c 0.554,-1.448 1.125,-3.067 1.711,-4.573 h 0.174 l 1.473,4.573 3.017,8.355 h 3.835 z"
             inkscape:connector-curvature="0" /></g><g
           transform="translate(332.8018,254.6553)"
           id="g76"><path
             id="path78"
             style="fill:#262626;fill-opacity:1;fill-rule:nonzero;stroke:none"
             d="m 0,0 c 0,3.455 -1.851,5.758 -4.841,5.758 -2.943,0 -4.793,-2.303 -4.793,-5.758 0,-3.424 1.85,-5.699 4.793,-5.699 C -1.851,-5.699 0,-3.424 0,0 m -13.714,0 c 0,5.432 4.214,8.564 8.873,8.564 4.665,0 8.882,-3.132 8.882,-8.564 0,-5.377 -4.217,-8.477 -8.882,-8.477 -4.659,0 -8.873,3.1 -8.873,8.477"
             inkscape:connector-curvature="0" /></g><g
           transform="translate(350.5229,267.3799)"
           id="g80"><path
             id="path82"
             style="fill:#262626;fill-opacity:1;fill-rule:nonzero;stroke:none"
             d="m 0,0 c -0.683,0.266 -1.402,0.412 -2.054,0.412 -1.678,0 -2.508,-0.941 -2.508,-2.924 V -4.576 H -0.75 V -7.293 H -4.562 V -20.814 H -8.5 v 13.521 h -2.574 v 2.539 l 2.574,0.178 v 2.043 c 0,3.328 1.752,5.633 5.959,5.633 1.277,0 2.475,-0.241 3.333,-0.565 z"
             inkscape:connector-curvature="0" /></g><g
           transform="translate(359.4766,249.3799)"
           id="g84"><path
             id="path86"
             style="fill:#262626;fill-opacity:1;fill-rule:nonzero;stroke:none"
             d="m 0,0 2.327,2.355 c 1.815,-1.56 4.284,-2.57 6.716,-2.57 3.056,0 4.768,1.24 4.768,3.069 0,1.984 -1.712,2.603 -4.041,3.484 L 6.272,7.639 c -2.436,0.886 -5.146,2.537 -5.146,5.701 0,3.42 3.501,5.984 8.304,5.984 2.946,0 5.719,-1.058 7.636,-2.734 l -2.091,-2.194 c -1.577,1.208 -3.328,1.944 -5.545,1.944 -2.579,0 -4.258,-1.057 -4.258,-2.799 0,-1.859 2.023,-2.568 4.082,-3.277 L 12.719,8.99 c 2.979,-1.09 5.139,-2.674 5.139,-5.867 0,-3.488 -3.364,-6.324 -8.879,-6.324 C 5.517,-3.201 2.296,-2.016 0,0"
             inkscape:connector-curvature="0" /></g><g
           transform="translate(380.4238,254.6553)"
           id="g88"><path
             id="path90"
             style="fill:#262626;fill-opacity:1;fill-rule:nonzero;stroke:none"
             d="m 0,0 c 0,5.432 4.351,8.564 9.321,8.564 2.401,0 4.149,-0.83 5.515,-1.861 L 12.89,4.484 C 11.854,5.287 10.795,5.758 9.49,5.758 6.339,5.758 4.076,3.455 4.076,0 c 0,-3.424 2.154,-5.699 5.32,-5.699 1.571,0 2.975,0.65 4.105,1.474 l 1.613,-2.236 C 13.401,-7.799 11.171,-8.477 9.017,-8.477 3.904,-8.477 0,-5.377 0,0"
             inkscape:connector-curvature="0" /></g><path
           id="path92"
           style="fill:#262626;fill-opacity:1;fill-rule:nonzero;stroke:none"
           d="m 399.477,262.804 h 3.91 v -16.238 h -3.91 z m -0.55,5.043 c 0,1.215 1.068,2.013 2.507,2.013 1.44,0 2.539,-0.798 2.539,-2.013 0,-1.182 -1.099,-2.006 -2.539,-2.006 -1.439,0 -2.507,0.824 -2.507,2.006"
           inkscape:connector-curvature="0" /><g
           transform="translate(420.8745,256.1318)"
           id="g94"><path
             id="path96"
             style="fill:#262626;fill-opacity:1;fill-rule:nonzero;stroke:none"
             d="M 0,0 C 0,2.807 -1.471,4.426 -4.216,4.426 -6.581,4.426 -8.671,2.857 -9.054,0 Z m -12.885,-1.477 c 0,5.288 4.184,8.565 8.601,8.565 5.003,0 7.673,-3.106 7.673,-7.701 0,-0.655 -0.062,-1.33 -0.172,-1.719 H -9.014 c 0.313,-3.1 2.568,-4.963 5.826,-4.963 1.681,0 3.117,0.441 4.49,1.215 l 1.376,-2.154 c -1.753,-1.006 -3.911,-1.719 -6.379,-1.719 -5.107,0 -9.184,3.133 -9.184,8.476"
             inkscape:connector-curvature="0" /></g><g
           transform="translate(428.6914,262.8037)"
           id="g98"><path
             id="path100"
             style="fill:#262626;fill-opacity:1;fill-rule:nonzero;stroke:none"
             d="M 0,0 H 3.224 L 3.53,-2.246 h 0.106 c 1.743,1.441 3.668,2.662 6.237,2.662 4.01,0 5.798,-2.309 5.798,-6.447 v -10.207 h -3.946 v 9.802 c 0,2.807 -0.958,3.922 -3.183,3.922 -1.75,0 -2.951,-0.761 -4.631,-2.207 V -16.238 H 0 Z"
             inkscape:connector-curvature="0" /></g><g
           transform="translate(448.7549,254.6553)"
           id="g102"><path
             id="path104"
             style="fill:#262626;fill-opacity:1;fill-rule:nonzero;stroke:none"
             d="m 0,0 c 0,5.432 4.347,8.564 9.324,8.564 2.4,0 4.148,-0.83 5.517,-1.861 L 12.886,4.484 C 11.854,5.287 10.793,5.758 9.492,5.758 6.336,5.758 4.078,3.455 4.078,0 c 0,-3.424 2.155,-5.699 5.311,-5.699 1.578,0 2.985,0.65 4.11,1.474 l 1.616,-2.236 C 13.408,-7.799 11.173,-8.477 9.015,-8.477 3.902,-8.477 0,-5.377 0,0"
             inkscape:connector-curvature="0" /></g><g
           transform="translate(478.4746,256.1318)"
           id="g106"><path
             id="path108"
             style="fill:#262626;fill-opacity:1;fill-rule:nonzero;stroke:none"
             d="M 0,0 C 0,2.807 -1.475,4.426 -4.216,4.426 -6.579,4.426 -8.673,2.857 -9.051,0 Z m -12.89,-1.477 c 0,5.288 4.185,8.565 8.604,8.565 5,0 7.679,-3.106 7.679,-7.701 0,-0.655 -0.062,-1.33 -0.167,-1.719 H -9.01 c 0.305,-3.1 2.565,-4.963 5.826,-4.963 1.672,0 3.118,0.441 4.492,1.215 L 2.677,-8.234 C 0.928,-9.24 -1.23,-9.953 -3.702,-9.953 c -5.105,0 -9.188,3.133 -9.188,8.476"
             inkscape:connector-curvature="0" /></g><g
           transform="translate(504.1914,250.7627)"
           id="g110"><path
             id="path112"
             style="fill:#262626;fill-opacity:1;fill-rule:nonzero;stroke:none"
             d="m 0,0 v 3.984 c -5.586,-0.595 -7.478,-1.802 -7.478,-3.63 0,-1.6 1.27,-2.247 2.955,-2.247 1.644,0 2.981,0.684 4.523,1.893 m -11.278,0.117 c 0,3.479 3.424,5.279 11.278,6.024 -0.034,1.882 -0.831,3.547 -3.604,3.547 -1.982,0 -3.834,-0.784 -5.453,-1.665 l -1.463,2.303 c 1.947,1.072 4.588,2.131 7.604,2.131 4.694,0 6.851,-2.574 6.851,-6.877 V -4.197 H 0.723 l -0.351,1.861 h -0.1 c -1.71,-1.268 -3.738,-2.248 -5.999,-2.248 -3.257,0 -5.551,1.828 -5.551,4.701"
             inkscape:connector-curvature="0" /></g><g
           transform="translate(513.7236,262.8037)"
           id="g114"><path
             id="path116"
             style="fill:#262626;fill-opacity:1;fill-rule:nonzero;stroke:none"
             d="m 0,0 h 3.222 l 0.299,-2.246 h 0.111 c 1.748,1.441 3.67,2.662 6.233,2.662 4.019,0 5.802,-2.309 5.802,-6.447 v -10.207 h -3.949 v 9.802 c 0,2.807 -0.947,3.922 -3.186,3.922 -1.748,0 -2.946,-0.761 -4.621,-2.207 V -16.238 H 0 Z"
             inkscape:connector-curvature="0" /></g><g
           transform="translate(546.8418,250.9658)"
           id="g118"><path
             id="path120"
             style="fill:#262626;fill-opacity:1;fill-rule:nonzero;stroke:none"
             d="m 0,0 v 7.943 c -1.416,1.09 -2.743,1.475 -4.151,1.475 -2.632,0 -4.768,-2.152 -4.768,-5.668 0,-3.691 1.685,-5.729 4.63,-5.729 1.579,0 2.92,0.62 4.289,1.979 m -12.996,3.689 c 0,5.288 3.874,8.565 8.093,8.565 2.16,0 3.534,-0.713 5.068,-1.838 L 0,13.111 v 6.024 H 3.944 V -4.4 H 0.718 L 0.375,-2.564 H 0.278 c -1.408,-1.243 -3.369,-2.223 -5.486,-2.223 -4.735,0 -7.788,3.1 -7.788,8.476"
             inkscape:connector-curvature="0" /></g><g
           transform="translate(569.917,265.4287)"
           id="g122"><path
             id="path124"
             style="fill:#262626;fill-opacity:1;fill-rule:nonzero;stroke:none"
             d="M 0,0 H -7.407 V 2.863 H 11.414 V 0 H 3.971 V -18.863 H 0 Z"
             inkscape:connector-curvature="0" /></g><g
           transform="translate(594.2168,256.1318)"
           id="g126"><path
             id="path128"
             style="fill:#262626;fill-opacity:1;fill-rule:nonzero;stroke:none"
             d="M 0,0 C 0,2.807 -1.471,4.426 -4.215,4.426 -6.577,4.426 -8.667,2.857 -9.05,0 Z m -12.884,-1.477 c 0,5.288 4.185,8.565 8.604,8.565 5.009,0 7.688,-3.106 7.688,-7.701 0,-0.655 -0.079,-1.33 -0.18,-1.719 H -9.019 c 0.32,-3.1 2.58,-4.963 5.837,-4.963 1.678,0 3.119,0.441 4.493,1.215 l 1.365,-2.154 c -1.739,-1.006 -3.904,-1.719 -6.375,-1.719 -5.108,0 -9.185,3.133 -9.185,8.476"
             inkscape:connector-curvature="0" /></g><g
           transform="translate(600.708,254.6553)"
           id="g130"><path
             id="path132"
             style="fill:#262626;fill-opacity:1;fill-rule:nonzero;stroke:none"
             d="m 0,0 c 0,5.432 4.349,8.564 9.323,8.564 2.396,0 4.14,-0.83 5.516,-1.861 L 12.886,4.484 C 11.857,5.287 10.786,5.758 9.492,5.758 6.336,5.758 4.077,3.455 4.077,0 c 0,-3.424 2.152,-5.699 5.313,-5.699 1.579,0 2.981,0.65 4.108,1.474 l 1.618,-2.236 C 13.399,-7.799 11.175,-8.477 9.017,-8.477 3.905,-8.477 0,-5.377 0,0"
             inkscape:connector-curvature="0" /></g><g
           transform="translate(619.7637,270.1006)"
           id="g134"><path
             id="path136"
             style="fill:#262626;fill-opacity:1;fill-rule:nonzero;stroke:none"
             d="M 0,0 H 3.907 V -6.24 L 3.774,-9.455 c 1.646,1.353 3.525,2.574 6.093,2.574 4.02,0 5.802,-2.308 5.802,-6.447 v -10.207 h -3.942 v 9.803 c 0,2.806 -0.964,3.921 -3.189,3.921 -1.751,0 -2.948,-0.761 -4.631,-2.207 V -23.535 H 0 Z"
             inkscape:connector-curvature="0" /></g><g
           transform="translate(641.0586,262.8037)"
           id="g138"><path
             id="path140"
             style="fill:#262626;fill-opacity:1;fill-rule:nonzero;stroke:none"
             d="m 0,0 h 3.223 l 0.301,-2.246 h 0.107 c 1.751,1.441 3.663,2.662 6.238,2.662 4.012,0 5.794,-2.309 5.794,-6.447 v -10.207 h -3.936 v 9.802 c 0,2.807 -0.966,3.922 -3.193,3.922 -1.746,0 -2.945,-0.761 -4.63,-2.207 V -16.238 H 0 Z"
             inkscape:connector-curvature="0" /></g><g
           transform="translate(674.8232,254.6553)"
           id="g142"><path
             id="path144"
             style="fill:#262626;fill-opacity:1;fill-rule:nonzero;stroke:none"
             d="m 0,0 c 0,3.455 -1.849,5.758 -4.831,5.758 -2.947,0 -4.797,-2.303 -4.797,-5.758 0,-3.424 1.85,-5.699 4.797,-5.699 C -1.849,-5.699 0,-3.424 0,0 m -13.71,0 c 0,5.432 4.21,8.564 8.879,8.564 4.665,0 8.877,-3.132 8.877,-8.564 0,-5.377 -4.212,-8.477 -8.877,-8.477 -4.669,0 -8.879,3.1 -8.879,8.477"
             inkscape:connector-curvature="0" /></g><g
           transform="translate(683.499,250.3799)"
           id="g146"><path
             id="path148"
             style="fill:#262626;fill-opacity:1;fill-rule:nonzero;stroke:none"
             d="M 0,0 V 19.721 H 3.903 V -0.186 c 0,-0.916 0.488,-1.238 0.965,-1.238 0.175,0 0.312,0 0.653,0.059 L 6.039,-3.928 C 5.556,-4.076 4.868,-4.201 3.903,-4.201 1.062,-4.201 0,-2.627 0,0"
             inkscape:connector-curvature="0" /></g><g
           transform="translate(706.0889,254.6553)"
           id="g150"><path
             id="path152"
             style="fill:#262626;fill-opacity:1;fill-rule:nonzero;stroke:none"
             d="m 0,0 c 0,3.455 -1.843,5.758 -4.829,5.758 -2.946,0 -4.805,-2.303 -4.805,-5.758 0,-3.424 1.859,-5.699 4.805,-5.699 C -1.843,-5.699 0,-3.424 0,0 m -13.708,0 c 0,5.432 4.221,8.564 8.879,8.564 4.66,0 8.879,-3.132 8.879,-8.564 0,-5.377 -4.219,-8.477 -8.879,-8.477 -4.658,0 -8.879,3.1 -8.879,8.477"
             inkscape:connector-curvature="0" /></g><g
           transform="translate(724.9131,257.3721)"
           id="g154"><path
             id="path156"
             style="fill:#262626;fill-opacity:1;fill-rule:nonzero;stroke:none"
             d="m 0,0 c 0,2.184 -1.58,3.449 -3.56,3.449 -1.985,0 -3.567,-1.238 -3.567,-3.449 0,-2.156 1.606,-3.488 3.567,-3.488 C -1.61,-3.488 0,-2.156 0,0 m 2.368,-12.955 c 0,1.35 -1.231,1.762 -3.525,1.762 h -2.858 c -0.882,0 -1.743,0.093 -2.53,0.246 -1.134,-0.715 -1.611,-1.543 -1.611,-2.367 0,-1.6 1.922,-2.54 5.038,-2.54 3.292,0 5.486,1.391 5.486,2.899 m -13.882,-0.863 c 0,1.357 0.986,2.625 2.74,3.543 v 0.148 c -0.963,0.508 -1.715,1.357 -1.715,2.684 0,1.271 1.062,2.365 2.091,3.015 v 0.116 c -1.271,0.855 -2.467,2.392 -2.467,4.312 0,3.689 3.395,5.848 7.305,5.848 1.059,0 2.024,-0.178 2.742,-0.416 H 5.869 V 2.893 H 2.262 C 2.979,2.242 3.5,1.15 3.5,-0.092 3.5,-3.635 0.378,-5.67 -3.56,-5.67 c -0.859,0 -1.814,0.176 -2.648,0.51 -0.609,-0.477 -1.018,-0.945 -1.018,-1.719 0,-0.976 0.742,-1.596 3.146,-1.596 h 3.465 c 4.45,0 6.79,-1.173 6.79,-3.955 0,-3.129 -3.844,-5.67 -9.874,-5.67 -4.527,0 -7.815,1.452 -7.815,4.282"
             inkscape:connector-curvature="0" /></g><g
           transform="translate(743.3184,245.5967)"
           id="g158"><path
             id="path160"
             style="fill:#262626;fill-opacity:1;fill-rule:nonzero;stroke:none"
             d="m 0,0 c -1.465,-3.49 -3.455,-5.818 -7.432,-5.818 -0.957,0 -1.714,0.115 -2.365,0.33 l 0.759,2.648 c 0.337,-0.09 0.888,-0.234 1.367,-0.234 2.053,0 3.257,1.301 3.946,3.037 l 0.374,1.125 -7.476,16.119 H -6.78 L -3.286,8.852 C -2.74,7.404 -2.152,5.785 -1.568,4.279 H -1.4 l 1.479,4.573 3.012,8.355 h 3.841 z"
             inkscape:connector-curvature="0" /></g><g
           transform="translate(288.5195,262.8643)"
           id="g162"><path
             id="path164"
             style="fill:#262626;fill-opacity:1;fill-rule:nonzero;stroke:none"
             d="m 0,0 c -2.573,0 -5.018,-1.244 -6.238,-2.605 h -0.105 l -0.311,2.544 h -3.217 v -16.238 h 3.912 v 10.17 c 0,0.201 0.049,0.404 0.158,0.572 0.848,1.319 2.288,1.979 4.26,1.979 0.703,0 1.477,-0.113 1.935,-0.354 0.171,-0.088 0.37,0.034 0.37,0.225 v 3.648 C 0.51,-0.037 0.273,0 0,0"
             inkscape:connector-curvature="0" /></g><g
           transform="translate(736.9033,315.0073)"
           id="g166"><path
             id="path168"
             style="fill:#262626;fill-opacity:1;fill-rule:nonzero;stroke:none"
             d="m 0,0 c 2.257,-3.609 3.403,-6.932 3.403,-9.873 0,-2.053 -0.222,-3.499 -0.665,-4.415 -0.64,-1.449 -1.899,-2.182 -3.732,-2.182 -1.076,0 -0.879,0.109 -2.416,0.337 l -0.278,0.043 v 33.767 h 6.126 c 0.604,0 0.965,-0.323 0.965,-0.857 0,-3.863 -1.197,-8 -3.566,-12.311 C -0.5,3.985 -0.667,3.357 -0.667,2.584 -0.667,1.754 -0.436,0.874 0,0 m 9.248,3.095 0.049,0.132 c 2.686,7.09 4.05,12.905 4.05,17.282 0,3.324 -1.749,4.94 -5.341,4.94 H -8.347 c -2.924,0 -5.063,-1.976 -5.063,-5.17 v -54.795 h 9.75 v 10.93 c 2.221,-1.025 3.952,-1.194 6.476,-1.194 3.658,0 6.365,1.113 8.064,3.329 1.636,1.772 2.467,4.69 2.467,8.672 0,4.943 -1.362,10.238 -4.04,15.746 z"
             inkscape:connector-curvature="0" /></g><g
           transform="translate(708.2168,288.5713)"
           id="g170"><path
             id="path172"
             style="fill:#262626;fill-opacity:1;fill-rule:nonzero;stroke:none"
             d="m 0,0 h -16.976 v 9.896 c 0,0.639 0.263,1.71 2.01,1.71 h 13.133 c 1.191,0 1.848,-0.606 1.848,-1.71 z m 4.931,19.5 h -26.274 c -2.686,0 -4.867,-2.18 -4.867,-4.871 L -26.214,-8.08 H 9.805 L 9.8,14.629 C 9.8,17.32 7.618,19.5 4.931,19.5"
             inkscape:connector-curvature="0" /></g><g
           transform="translate(706.3604,327.8564)"
           id="g174"><path
             id="path176"
             style="fill:#262626;fill-opacity:1;fill-rule:nonzero;stroke:none"
             d="m 0,0 c -0.346,-2.687 -1.289,-5.54 -2.105,-7.655 h -8.978 c -0.663,2.001 -1.961,5.513 -3.878,8.899 -0.128,0.249 -0.279,0.475 -0.449,0.687 L 1.07,1.918 C 0.561,1.404 0.175,0.756 0,0 m 14.347,5.96 c 0,2.234 -1.815,4.034 -4.05,4.034 H -1.685 v 0.498 c 0,2.689 -2.18,4.869 -4.871,4.869 -2.686,0 -4.867,-2.18 -4.867,-4.869 V 9.994 H -27.568 V 1.938 l 5.882,-10e-4 c -0.975,-1.213 -1.21,-2.935 -0.448,-4.407 1.048,-1.605 1.926,-3.474 2.616,-5.185 h -8.05 v -8.055 l 37.865,-0.029 c 2.235,0 4.05,1.811 4.05,4.048 0,2.235 -1.815,4.036 -4.05,4.036 H 6.315 c 0.567,1.711 1.143,3.719 1.553,5.824 C 8.193,-0.433 7.75,0.96 6.821,1.914 l 3.476,-0.002 c 2.235,0 4.05,1.811 4.05,4.048"
             inkscape:connector-curvature="0" /></g><g
           transform="translate(577.0254,303.3237)"
           id="g178"><path
             id="path180"
             style="fill:#262626;fill-opacity:1;fill-rule:nonzero;stroke:none"
             d="M 0,0 C -0.256,2.22 -2.266,3.799 -4.487,3.541 -5.572,3.299 -6.676,3.064 -7.781,2.84 l -0.002,32.008 c 0,2.689 -2.181,4.869 -4.869,4.869 -2.69,0 -4.869,-2.18 -4.869,-4.869 L -17.523,1.101 c -10.047,-1.58 -18.435,-2.317 -18.435,-2.317 v -8.001 c 0,0 8.489,0.51 18.435,2.003 l -0.002,-15.576 h 9.746 l -0.002,17.319 c 1.43,0.307 2.845,0.633 4.225,0.983 C -1.335,-4.229 0.257,-2.22 0,0"
             inkscape:connector-curvature="0" /></g><g
           transform="translate(556.1289,325.7979)"
           id="g182"><path
             id="path184"
             style="fill:#262626;fill-opacity:1;fill-rule:nonzero;stroke:none"
             d="m 0,0 c 1.427,1.719 1.181,4.262 -0.541,5.689 -4.39,3.929 -9.386,6.549 -9.386,6.549 l -5.144,-6.199 c 0,0 5.747,-2.885 9.371,-6.568 C -3.979,-1.958 -1.431,-1.719 0,0"
             inkscape:connector-curvature="0" /></g><g
           transform="translate(554.4033,308.6528)"
           id="g186"><path
             id="path188"
             style="fill:#262626;fill-opacity:1;fill-rule:nonzero;stroke:none"
             d="m 0,0 c 1.429,1.721 1.183,4.261 -0.538,5.69 -4.391,3.927 -9.388,6.548 -9.388,6.548 L -15.069,6.04 c 0,0 5.748,-2.885 9.37,-6.57 C -3.977,-1.959 -1.424,-1.722 0,0"
             inkscape:connector-curvature="0" /></g><g
           transform="translate(538.0107,320.8315)"
           id="g190"><path
             id="path192"
             style="fill:#262626;fill-opacity:1;fill-rule:nonzero;stroke:none"
             d="m 0,0 c 0,2.237 -1.811,4.034 -4.047,4.034 h -7.046 v 6.82 c 4.009,0.655 6.311,1.267 6.311,1.267 2.211,0.349 3.717,2.421 3.367,4.629 -0.346,2.208 -2.418,3.702 -4.627,3.355 -12.433,-2.366 -25.901,-2.763 -25.901,-2.763 V 9.301 c 4.051,-0.036 7.789,0.126 11.111,0.389 V 4.034 H -32.154 V -4.02 l 11.322,-0.01 v -0.073 c -1.632,-2.377 -6.129,-8.517 -11.322,-11.907 v -11.62 c 0,0 8.034,5.499 11.32,10.65 l -0.004,-23.343 h 9.748 l -0.002,25.009 c 1.271,-1.447 2.622,-3.171 3.626,-4.933 1.299,-1.825 3.823,-2.248 5.646,-0.952 1.823,1.296 2.234,3.817 0.936,5.64 -2.441,3.976 -7.331,8.869 -10.129,11.517 l 6.966,-0.005 C -1.811,-4.047 0,-2.234 0,0"
             inkscape:connector-curvature="0" /></g><g
           transform="translate(612.1836,314.5552)"
           id="g194"><path
             id="path196"
             style="fill:#262626;fill-opacity:1;fill-rule:nonzero;stroke:none"
             d="M 0,0 -3.481,-0.678 -3.484,10.316 0,10.31 c 2.237,0 4.05,1.812 4.05,4.049 0,2.234 -1.813,4.033 -4.05,4.033 h -3.484 v 5.224 c 0,2.69 -2.18,4.869 -4.87,4.869 -2.689,0 -4.867,-2.179 -4.867,-4.869 v -5.224 h -7.534 v -8.053 l 7.531,-0.009 -0.002,-12.904 -7.529,-1.466 v -8.051 l 7.529,1.454 -0.002,-12.142 c 0,0 0.307,-1.567 -2.778,-1.567 -3.084,0 -4.749,0.56 -4.749,0.56 v -9.133 l 7.12,-0.875 c 0,0 10.156,-0.364 10.156,6.252 L -3.481,-8.753 0,-8.081 c 2.237,0 4.05,1.813 4.05,4.048 C 4.05,-1.797 2.237,0 0,0"
             inkscape:connector-curvature="0" /></g><g
           transform="translate(639.582,300.1138)"
           id="g198"><path
             id="path200"
             style="fill:#262626;fill-opacity:1;fill-rule:nonzero;stroke:none"
             d="m 0,0 c -6.012,4.459 -9.171,8.385 -9.171,8.385 -1.601,1.576 0.364,2.015 0.364,2.015 H 8.525 C 9.738,10.4 9.87,9.608 9.87,9.268 9.87,8.824 6.986,4.716 0,0 m 22.272,12.522 c 0,3.312 -2.683,5.995 -5.993,5.995 H 4.912 l -0.002,7.466 14.274,-0.01 c 2.235,0 4.044,1.814 4.044,4.047 0,2.238 -1.809,4.034 -4.044,4.034 H 4.91 l -0.003,4.004 c 0,2.689 -2.179,4.869 -4.867,4.869 -2.689,0 -4.87,-2.18 -4.87,-4.869 V 34.054 H -20.406 V 26.002 L -4.83,25.989 -4.832,18.517 h -10.609 c -3.311,0 -5.993,-2.683 -5.993,-5.995 0,-4.791 4.639,-11.516 12.295,-17.676 -4.048,-1.91 -8.819,-3.743 -14.414,-5.304 v -9.297 c 9.639,2.31 17.358,5.257 23.519,8.439 6.724,-3.82 14.662,-6.928 23.262,-8.459 v 8.857 C 17.895,-9.641 13.179,-7.759 9.105,-5.666 19.167,1.835 22.272,9.399 22.272,12.522"
             inkscape:connector-curvature="0" /></g><g
           transform="translate(329.3545,336.2729)"
           id="g202"><path
             id="path204"
             style="fill:#ffffff;fill-opacity:1;fill-rule:nonzero;stroke:none"
             d="m 0,0 c -0.227,0.196 -0.477,0.347 -0.774,0.393 -1.02,0.161 -1.712,-0.956 -2.531,-1.582 -1.173,-0.901 -2.815,-0.834 -4.17,-1.427 -1.254,-0.551 -2.184,-1.63 -3.068,-2.674 -3.269,-3.858 -6.569,-7.227 -9.576,-11.293 -2.312,-3.128 -6.213,-7.091 -6.924,-11.821 -1.674,-11.147 6.719,-15.703 8.407,-19.826 0.484,-1.178 0.719,-2.276 0.607,-3.483 -0.033,-0.35 0.195,-0.661 0.534,-0.739 0.535,-0.131 1.236,-0.65 1.789,-1.105 0.383,-0.315 0.961,-0.129 1.091,0.348 0.88,3.232 0.43,7.363 2.204,10.082 0.781,1.197 1.913,2.109 2.942,3.102 2.397,2.306 4.001,5.143 5.241,8.228 1.664,4.137 2.146,8.717 4.179,12.683 1.342,2.622 3.39,5.111 3.354,8.056 -0.014,1.069 -0.311,2.142 -0.147,3.203 0.164,1.04 0.773,1.849 1.584,2.484 0.392,0.309 0.674,0.704 0.583,1.222 -0.069,0.399 -0.18,0.761 -0.476,1.08 -0.327,0.352 -0.781,0.385 -1.206,0.503 -0.37,0.103 -0.729,0.241 -1.073,0.409 -0.688,0.339 -1.313,0.804 -1.83,1.37 C 0.502,-0.524 0.268,-0.23 0,0"
             inkscape:connector-curvature="0" /></g></g></g></g></svg>