<?xml version="1.0" encoding="UTF-8" standalone="no"?>
<svg
   xmlns:dc="http://purl.org/dc/elements/1.1/"
   xmlns:cc="http://creativecommons.org/ns#"
   xmlns:rdf="http://www.w3.org/1999/02/22-rdf-syntax-ns#"
   xmlns:svg="http://www.w3.org/2000/svg"
   xmlns="http://www.w3.org/2000/svg"
   xmlns:sodipodi="http://sodipodi.sourceforge.net/DTD/sodipodi-0.dtd"
   xmlns:inkscape="http://www.inkscape.org/namespaces/inkscape"
   id="svgRoot"
   viewBox="0 0 151.93798 223.96416"
   xml:space="preserve"
   sodipodi:version="0.32"
   inkscape:version="0.48.4 r9939"
   width="200"
   height="200"
   sodipodi:docname="Taiwan_Power_Company.svg"
   inkscape:output_extension="org.inkscape.output.svg.inkscape"
   version="1.0"><metadata
   id="metadata471"><rdf:RDF><cc:Work
       rdf:about=""><dc:format>image/svg+xml</dc:format><dc:type
         rdf:resource="http://purl.org/dc/dcmitype/StillImage" /><dc:title></dc:title></cc:Work></rdf:RDF></metadata><sodipodi:namedview
   inkscape:window-height="712"
   inkscape:window-width="1024"
   inkscape:pageshadow="2"
   inkscape:pageopacity="0.0"
   guidetolerance="10.0"
   gridtolerance="10.0"
   objecttolerance="10.0"
   borderopacity="1.0"
   bordercolor="#666666"
   pagecolor="#ffffff"
   id="base"
   showgrid="false"
   inkscape:zoom="2.5351717"
   inkscape:cx="136.32553"
   inkscape:cy="119.45933"
   inkscape:window-x="-4"
   inkscape:window-y="-4"
   inkscape:current-layer="svgRoot"
   fit-margin-top="0"
   fit-margin-left="0"
   fit-margin-right="0"
   fit-margin-bottom="0"
   inkscape:window-maximized="0" />
<defs
   id="defs3"><inkscape:perspective
   sodipodi:type="inkscape:persp3d"
   inkscape:vp_x="0 : 526.18109 : 1"
   inkscape:vp_y="0 : 1000 : 0"
   inkscape:vp_z="744.09448 : 526.18109 : 1"
   inkscape:persp3d-origin="372.04724 : 350.78739 : 1"
   id="perspective473" />
<clipPath
   id="clp74"
   clip-rule="nonzero">
<path
   d="m -45.709,-4.605 595.279,0 0,807.875 -595.279,0 0,-807.875 z"
   id="path446"
   inkscape:connector-curvature="0" />
</clipPath>
<clipPath
   clip-rule="nonzero"
   id="clp75">
<path
   id="path451"
   d="m -45.851,-5.028 595.281,0 0,807.878 -595.281,0 0,-807.878 z"
   inkscape:connector-curvature="0" />
</clipPath>
<clipPath
   id="clp76"
   clip-rule="nonzero">
<path
   d="m -45.851,802.85 595.281,0 0,-807.878 -595.281,0 0,807.878 z"
   id="path456"
   inkscape:connector-curvature="0" />
</clipPath>
</defs>
<style
   type="text/css"
   id="style5">
.ps03 { stroke:#1D5CB2;fill:none; }
.ps06 { stroke:#7F7FFF;fill:none; }
.ps05 { stroke:none;fill:#2056AD;fill-rule:nonzero; }
.ps01 { stroke:none;fill:#231F20;fill-rule:nonzero; }
.ps04 { stroke:none;fill:#EC1B24;fill-rule:nonzero; }
.ps02 { stroke:none;fill:#FFFFFF;fill-rule:nonzero; }
.ps00 { stroke:none;fill:none; }
.ps14 { stroke-width:0.000001;stroke-linecap:butt;stroke-linejoin:miter;stroke-miterlimit:10;stroke-dasharray:none; }
.ps11 { stroke-width:0.25;stroke-linecap:butt;stroke-linejoin:miter;stroke-miterlimit:4;stroke-dasharray:none; }
.ps10 { stroke-width:0.25;stroke-miterlimit:4; }
.ps12 { stroke-width:0.75;stroke-linecap:butt;stroke-linejoin:miter;stroke-miterlimit:4;stroke-dasharray:none; }
.ps13 { stroke-width:1;stroke-linecap:butt;stroke-linejoin:miter;stroke-miterlimit:10;stroke-dasharray:none; }
.ps20 { 
letter-spacing:0;word-spacing:0;font-family:Arial;font-size:11.461; }
</style>
<clipPath
   id="clp1"
   clip-rule="nonzero">
<rect
   x="0"
   y="0"
   width="196"
   height="60"
   id="rect8" />
</clipPath>
<g
   id="g3522"
   transform="matrix(3.877158,0,0,3.8773216,139.76586,-4.3332282)"><g
     transform="matrix(1.6739606,0,0,-1.6739385,-65.449697,80.211177)"
     id="q15"
     class="">
<clipPath
   id="clp44"
   clip-rule="nonzero">
<path
   d="m -45.709,-4.605 595.279,0 0,807.875 -595.279,0 0,-807.875 z"
   id="path266"
   inkscape:connector-curvature="0" />
</clipPath>
<g
   clip-path="url(#clp44)"
   id="g268">
<clipPath
   id="clp45"
   clip-rule="nonzero">
<path
   d="m -45.851,-5.028 595.281,0 0,807.878 -595.281,0 0,-807.878 z"
   id="path271"
   inkscape:connector-curvature="0" />
</clipPath>
<g
   clip-path="url(#clp45)"
   id="g273">
<clipPath
   id="clp46"
   clip-rule="nonzero">
<path
   d="m -45.851,802.85 595.281,0 0,-807.878 -595.281,0 0,807.878 z"
   id="path276"
   inkscape:connector-curvature="0" />
</clipPath>
<g
   clip-path="url(#clp46)"
   id="g278">
<path
   d="m 29.271,12.743 c 9.527,0 17.252,7.725 17.252,17.253 0,9.529 -7.725,17.254 -17.252,17.254 -9.528,0 -17.256,-7.725 -17.256,-17.254 0,-9.528 7.728,-17.253 17.256,-17.253"
   class="ps02 ps11"
   id="path280"
   style="fill:#ffffff;fill-rule:nonzero;stroke:none"
   inkscape:connector-curvature="0" />
</g>
</g>
</g>
</g><g
     transform="matrix(1.6739606,0,0,-1.6739385,-65.449697,80.211177)"
     id="q16"
     class="">
<clipPath
   id="clp47"
   clip-rule="nonzero">
<path
   d="m -45.709,-4.605 595.279,0 0,807.875 -595.279,0 0,-807.875 z"
   id="path284"
   inkscape:connector-curvature="0" />
</clipPath>
<g
   clip-path="url(#clp47)"
   id="g286">
<clipPath
   id="clp48"
   clip-rule="nonzero">
<path
   d="m -45.851,-5.028 595.281,0 0,807.878 -595.281,0 0,-807.878 z"
   id="path289"
   inkscape:connector-curvature="0" />
</clipPath>
<g
   clip-path="url(#clp48)"
   id="g291">
<clipPath
   id="clp49"
   clip-rule="nonzero">
<path
   d="m -45.851,802.85 595.281,0 0,-807.878 -595.281,0 0,807.878 z"
   id="path294"
   inkscape:connector-curvature="0" />
</clipPath>
<g
   clip-path="url(#clp49)"
   id="g296">
<path
   d="m 29.271,15.16 c 8.191,0 14.836,6.645 14.836,14.836 0,8.195 -6.645,14.838 -14.836,14.838 -8.193,0 -14.836,-6.643 -14.836,-14.838 0,-8.191 6.643,-14.836 14.836,-14.836 z"
   class="ps03 ps12"
   id="path298"
   style="fill:none;stroke:#1d5cb2;stroke-width:0.75;stroke-linecap:butt;stroke-linejoin:miter;stroke-miterlimit:4;stroke-dasharray:none"
   inkscape:connector-curvature="0" />
</g>
</g>
</g>
</g><g
     transform="matrix(1.6739606,0,0,-1.6739385,-65.449697,80.211177)"
     id="q17"
     class="">
<clipPath
   id="clp50"
   clip-rule="nonzero">
<path
   d="m -45.709,-4.605 595.279,0 0,807.875 -595.279,0 0,-807.875 z"
   id="path302"
   inkscape:connector-curvature="0" />
</clipPath>
<g
   clip-path="url(#clp50)"
   id="g304">
<clipPath
   id="clp51"
   clip-rule="nonzero">
<path
   d="m -45.851,-5.028 595.281,0 0,807.878 -595.281,0 0,-807.878 z"
   id="path307"
   inkscape:connector-curvature="0" />
</clipPath>
<g
   clip-path="url(#clp51)"
   id="g309">
<clipPath
   id="clp52"
   clip-rule="nonzero">
<path
   d="m -45.851,802.85 595.281,0 0,-807.878 -595.281,0 0,807.878 z"
   id="path312"
   inkscape:connector-curvature="0" />
</clipPath>
<g
   clip-path="url(#clp52)"
   id="g314">
<path
   d="m 29.271,13.882 c 8.897,0 16.113,7.215 16.113,16.114 0,8.9 -7.216,16.117 -16.113,16.117 -8.901,0 -16.116,-7.217 -16.116,-16.117 0,-8.899 7.215,-16.114 16.116,-16.114 z"
   class="ps03 ps12"
   id="path316"
   style="fill:none;stroke:#1d5cb2;stroke-width:0.75;stroke-linecap:butt;stroke-linejoin:miter;stroke-miterlimit:4;stroke-dasharray:none"
   inkscape:connector-curvature="0" />
</g>
</g>
</g>
</g><g
     transform="matrix(1.6739606,0,0,-1.6739385,-65.449697,80.211177)"
     id="q18"
     class="">
<clipPath
   id="clp53"
   clip-rule="nonzero">
<path
   d="m -45.709,-4.605 595.279,0 0,807.875 -595.279,0 0,-807.875 z"
   id="path320"
   inkscape:connector-curvature="0" />
</clipPath>
<g
   clip-path="url(#clp53)"
   id="g322">
<clipPath
   id="clp54"
   clip-rule="nonzero">
<path
   d="m -45.851,-5.028 595.281,0 0,807.878 -595.281,0 0,-807.878 z"
   id="path325"
   inkscape:connector-curvature="0" />
</clipPath>
<g
   clip-path="url(#clp54)"
   id="g327">
<clipPath
   id="clp55"
   clip-rule="nonzero">
<path
   d="m -45.851,802.85 595.281,0 0,-807.878 -595.281,0 0,807.878 z"
   id="path330"
   inkscape:connector-curvature="0" />
</clipPath>
<g
   clip-path="url(#clp55)"
   id="g332">
<path
   d="m 29.271,16.515 c 7.444,0 13.48,6.034 13.48,13.481 0,7.446 -6.036,13.483 -13.48,13.483 -7.446,0 -13.483,-6.037 -13.483,-13.483 0,-7.447 6.037,-13.481 13.483,-13.481 z"
   class="ps03 ps12"
   id="path334"
   style="fill:none;stroke:#1d5cb2;stroke-width:0.75;stroke-linecap:butt;stroke-linejoin:miter;stroke-miterlimit:4;stroke-dasharray:none"
   inkscape:connector-curvature="0" />
</g>
</g>
</g>
</g><g
     transform="matrix(1.6739606,0,0,-1.6739385,-65.449697,80.211177)"
     id="q19"
     class="">
<clipPath
   id="clp56"
   clip-rule="nonzero">
<path
   d="m -45.709,-4.605 595.279,0 0,807.875 -595.279,0 0,-807.875 z"
   id="path338"
   inkscape:connector-curvature="0" />
</clipPath>
<g
   clip-path="url(#clp56)"
   id="g340">
<clipPath
   id="clp57"
   clip-rule="nonzero">
<path
   d="m -45.851,-5.028 595.281,0 0,807.878 -595.281,0 0,-807.878 z"
   id="path343"
   inkscape:connector-curvature="0" />
</clipPath>
<g
   clip-path="url(#clp57)"
   id="g345">
<clipPath
   id="clp58"
   clip-rule="nonzero">
<path
   d="m -45.851,802.85 595.281,0 0,-807.878 -595.281,0 0,807.878 z"
   id="path348"
   inkscape:connector-curvature="0" />
</clipPath>
<g
   clip-path="url(#clp58)"
   id="g350">
<path
   d="m 27.62,40.467 -5.325,-7.338 -0.272,1.144 -2.607,-3.261 -0.165,1.031 -1.576,-1.356 2.609,3.965 0.381,-0.379 2.824,3.422 0.271,-1.084 3.86,3.856 z"
   class="ps04 ps12"
   id="path352"
   style="fill:#ec1b24;fill-rule:nonzero;stroke:none"
   inkscape:connector-curvature="0" />
</g>
</g>
</g>
</g><g
     transform="matrix(1.6739606,0,0,-1.6739385,-65.449697,80.211177)"
     id="q20"
     class="">
<clipPath
   id="clp59"
   clip-rule="nonzero">
<path
   d="m -45.709,-4.605 595.279,0 0,807.875 -595.279,0 0,-807.875 z"
   id="path356"
   inkscape:connector-curvature="0" />
</clipPath>
<g
   clip-path="url(#clp59)"
   id="g358">
<clipPath
   id="clp60"
   clip-rule="nonzero">
<path
   d="m -45.851,-5.028 595.281,0 0,807.878 -595.281,0 0,-807.878 z"
   id="path361"
   inkscape:connector-curvature="0" />
</clipPath>
<g
   clip-path="url(#clp60)"
   id="g363">
<clipPath
   id="clp61"
   clip-rule="nonzero">
<path
   d="m -45.851,802.85 595.281,0 0,-807.878 -595.281,0 0,807.878 z"
   id="path366"
   inkscape:connector-curvature="0" />
</clipPath>
<g
   clip-path="url(#clp61)"
   id="g368">
<path
   d="m 31.1,40.467 5.325,-7.338 0.273,1.144 2.61,-3.261 0.161,1.031 1.576,-1.356 -2.608,3.965 -0.383,-0.379 -2.824,3.422 -0.272,-1.084 -3.858,3.856 z"
   class="ps04 ps12"
   id="path370"
   style="fill:#ec1b24;fill-rule:nonzero;stroke:none"
   inkscape:connector-curvature="0" />
</g>
</g>
</g>
</g><g
     transform="matrix(1.6739606,0,0,-1.6739385,-65.449697,80.211177)"
     id="q21"
     class="">
<clipPath
   id="clp62"
   clip-rule="nonzero">
<path
   d="m -45.709,-4.605 595.279,0 0,807.875 -595.279,0 0,-807.875 z"
   id="path374"
   inkscape:connector-curvature="0" />
</clipPath>
<g
   clip-path="url(#clp62)"
   id="g376">
<clipPath
   id="clp63"
   clip-rule="nonzero">
<path
   d="m -45.851,-5.028 595.281,0 0,807.878 -595.281,0 0,-807.878 z"
   id="path379"
   inkscape:connector-curvature="0" />
</clipPath>
<g
   clip-path="url(#clp63)"
   id="g381">
<clipPath
   id="clp64"
   clip-rule="nonzero">
<path
   d="m -45.851,802.85 595.281,0 0,-807.878 -595.281,0 0,807.878 z"
   id="path384"
   inkscape:connector-curvature="0" />
</clipPath>
<g
   clip-path="url(#clp64)"
   id="g386">
<path
   d="m 27.62,19.273 -5.325,7.337 -0.272,-1.143 -2.607,3.26 -0.165,-1.028 -1.576,1.358 2.609,-3.972 0.381,0.382 2.824,-3.422 0.271,1.088 3.86,-3.86 z"
   class="ps04 ps12"
   id="path388"
   style="fill:#ec1b24;fill-rule:nonzero;stroke:none"
   inkscape:connector-curvature="0" />
</g>
</g>
</g>
</g><g
     transform="matrix(1.6739606,0,0,-1.6739385,-65.449697,80.211177)"
     id="q22"
     class="">
<clipPath
   id="clp65"
   clip-rule="nonzero">
<path
   d="m -45.709,-4.605 595.279,0 0,807.875 -595.279,0 0,-807.875 z"
   id="path392"
   inkscape:connector-curvature="0" />
</clipPath>
<g
   clip-path="url(#clp65)"
   id="g394">
<clipPath
   id="clp66"
   clip-rule="nonzero">
<path
   d="m -45.851,-5.028 595.281,0 0,807.878 -595.281,0 0,-807.878 z"
   id="path397"
   inkscape:connector-curvature="0" />
</clipPath>
<g
   clip-path="url(#clp66)"
   id="g399">
<clipPath
   id="clp67"
   clip-rule="nonzero">
<path
   d="m -45.851,802.85 595.281,0 0,-807.878 -595.281,0 0,807.878 z"
   id="path402"
   inkscape:connector-curvature="0" />
</clipPath>
<g
   clip-path="url(#clp67)"
   id="g404">
<path
   d="m 31.1,19.273 5.325,7.337 0.273,-1.143 2.61,3.26 0.161,-1.028 1.576,1.358 -2.608,-3.972 -0.383,0.382 -2.824,-3.422 -0.272,1.088 -3.858,-3.86 z"
   class="ps04 ps12"
   id="path406"
   style="fill:#ec1b24;fill-rule:nonzero;stroke:none"
   inkscape:connector-curvature="0" />
</g>
</g>
</g>
</g><g
     transform="matrix(1.6739606,0,0,-1.6739385,-65.449697,80.211177)"
     id="q23"
     class="">
<clipPath
   id="clp68"
   clip-rule="nonzero">
<path
   d="m -45.709,-4.605 595.279,0 0,807.875 -595.279,0 0,-807.875 z"
   id="path410"
   inkscape:connector-curvature="0" />
</clipPath>
<g
   clip-path="url(#clp68)"
   id="g412">
<clipPath
   id="clp69"
   clip-rule="nonzero">
<path
   d="m -45.851,-5.028 595.281,0 0,807.878 -595.281,0 0,-807.878 z"
   id="path415"
   inkscape:connector-curvature="0" />
</clipPath>
<g
   clip-path="url(#clp69)"
   id="g417">
<clipPath
   id="clp70"
   clip-rule="nonzero">
<path
   d="m -45.851,802.85 595.281,0 0,-807.878 -595.281,0 0,807.878 z"
   id="path420"
   inkscape:connector-curvature="0" />
</clipPath>
<g
   clip-path="url(#clp70)"
   id="g422">
<path
   d="m 29.25,41.556 -1.683,-4.783 3.642,0 -0.924,2.826 -0.544,-0.382 0.488,-1.574 -1.577,0 1.035,3.043 -0.437,0.87 z"
   class="ps05 ps12"
   id="path424"
   style="fill:#2056ad;fill-rule:nonzero;stroke:none"
   inkscape:connector-curvature="0" />
</g>
</g>
</g>
</g><g
     transform="matrix(1.6739606,0,0,-1.6739385,-65.449697,80.211177)"
     id="q24"
     class="">
<clipPath
   id="clp71"
   clip-rule="nonzero">
<path
   d="m -45.709,-4.605 595.279,0 0,807.875 -595.279,0 0,-807.875 z"
   id="path428"
   inkscape:connector-curvature="0" />
</clipPath>
<g
   clip-path="url(#clp71)"
   id="g430">
<clipPath
   id="clp72"
   clip-rule="nonzero">
<path
   d="m -45.851,-5.028 595.281,0 0,807.878 -595.281,0 0,-807.878 z"
   id="path433"
   inkscape:connector-curvature="0" />
</clipPath>
<g
   clip-path="url(#clp72)"
   id="g435">
<clipPath
   id="clp73"
   clip-rule="nonzero">
<path
   d="m -45.851,802.85 595.281,0 0,-807.878 -595.281,0 0,807.878 z"
   id="path438"
   inkscape:connector-curvature="0" />
</clipPath>
<g
   clip-path="url(#clp73)"
   id="g440">
<path
   d="m 27.351,33.505 3.965,0 -0.558,1.789 -2.729,0 -0.678,-1.789 z m -0.163,2.671 4.457,0 1.465,-3.589 -7.499,0 1.577,3.589 z"
   class="ps05 ps12"
   id="path442"
   style="fill:#2056ad;fill-rule:nonzero;stroke:none"
   inkscape:connector-curvature="0" />
</g>
</g>
</g>
</g><path
     d="m -13.247236,38.854852 -1.817921,0 0,1.181801 1.456346,0 0.361575,-1.181801 z m 0.547385,-2.094097 -2.365306,0 0,1.178453 1.998709,0 0.366597,-1.178453 z m -6.058063,3.275898 1.452998,0 0,-1.181801 -1.816247,0 0.363249,1.181801 z m -0.545711,-2.097445 1.998709,0 0,-1.178453 -2.360285,0 0.361576,1.178453 z m -4.00244,-10.823686 14.5550875,0 0.5457111,1.277215 -6.9134576,0 0,1.272193 6.9134576,0 -1.4563457,4.73055 -1.3626039,0 0.816893,-3.275897 -1.364278,0 -0.726499,3.275897 -1.454672,0 0.455317,-3.275897 -1.821269,0 0,4.459372 4.459431,0 -1.817921,5.909003 -2.64151,0 0,2.368623 1.454672,-1.181801 0.815219,0.180785 -4.456083,5.277929 0,-6.645536 -2.224694,0 -2.547768,-5.909003 4.772462,0 0,-4.459372 -1.77105,0 0.726498,3.275897 -1.68233,0 -0.910635,-3.275897 -1.273884,0 1.091423,3.275897 -1.633786,0 -1.550087,-4.73055 7.003851,0 0,-1.272193 -6.819716,0 0.818567,-1.277215 z"
     class="ps05 ps12"
     id="path460"
     style="fill:#2056ad;fill-rule:nonzero;stroke:none"
     inkscape:connector-curvature="0" /></g>
</svg>