<?xml version="1.0" encoding="UTF-8" standalone="no"?>
<!DOCTYPE svg PUBLIC "-//W3C//DTD SVG 1.1//EN" "http://www.w3.org/Graphics/SVG/1.1/DTD/svg11.dtd">
<svg width="100%" height="100%" viewBox="0 0 53 52" version="1.1" xmlns="http://www.w3.org/2000/svg" xmlns:xlink="http://www.w3.org/1999/xlink" xml:space="preserve" xmlns:serif="http://www.serif.com/" style="fill-rule:evenodd;clip-rule:evenodd;stroke-linecap:square;stroke-linejoin:round;stroke-miterlimit:1.5;">
    <g transform="matrix(1,0,0,1,-4540,0)">
        <g id="Projecticon_cloudcomputing" transform="matrix(0.0361111,0,0,0.0577778,4540.42,0)">
            <rect x="0" y="0" width="1440" height="900" style="fill:none;"/>
            <g transform="matrix(27.6923,0,0,17.3077,-124109,0)">
                <circle cx="4507.7" cy="26" r="26" style="fill:rgb(89,217,172);"/>
            </g>
            <g transform="matrix(6.1992,0,0,3.8745,-6590.02,-2243.3)">
                <g transform="matrix(1.4233,0,0,1.4233,-60.5264,-254.179)">
                    <g transform="matrix(0.763316,0,0,0.763316,89.3944,147.567)">
                        <path d="M1021.9,675.518L1021.9,735.002L1026.05,735.002L1026.05,675.518L1021.9,675.518Z" style="fill:white;"/>
                    </g>
                    <g transform="matrix(0.914021,0,0,0.914021,-75.4753,45.4506)">
                        <path d="M1058.27,665.355L1058.27,702.003C1058.27,702.958 1059.05,703.733 1060,703.733L1077.6,703.733L1077.6,700.274L1061.73,700.274L1061.73,665.355L1058.27,665.355Z" style="fill:white;"/>
                    </g>
                    <g transform="matrix(0.914021,0,0,0.914021,-68.0774,45.4506)">
                        <path d="M996.843,665.355L996.843,713.642L983.437,713.642L983.437,717.101L998.572,717.101C999.527,717.101 1000.3,716.327 1000.3,715.372L1000.3,665.355L996.843,665.355Z" style="fill:white;"/>
                    </g>
                    <g transform="matrix(0.914021,0,0,0.914021,-80.0654,45.4506)">
                        <path d="M1088.79,692.371C1083.47,692.371 1079.16,696.687 1079.16,702.003C1079.16,707.319 1083.47,711.635 1088.79,711.635C1094.11,711.635 1098.42,707.319 1098.42,702.003C1098.42,696.687 1094.11,692.371 1088.79,692.371ZM1088.79,695.83C1092.2,695.83 1094.96,698.596 1094.96,702.003C1094.96,705.41 1092.2,708.176 1088.79,708.176C1085.38,708.176 1082.62,705.41 1082.62,702.003C1082.62,698.596 1085.38,695.83 1088.79,695.83Z" style="fill:white;"/>
                    </g>
                    <g transform="matrix(3.13853,0,0,3.13853,-13460.8,585.378)">
                        <path d="M4577.39,33.313C4577.78,34.643 4579.01,35.615 4580.47,35.615C4582.24,35.615 4583.67,34.178 4583.67,32.41C4583.67,30.641 4582.24,29.204 4580.47,29.204C4579.01,29.204 4577.78,30.176 4577.39,31.506L4574.45,31.506C4574.45,31.506 4574.45,21.737 4574.45,21.737C4574.45,21.516 4574.27,21.337 4574.05,21.337L4573.04,21.337C4572.82,21.337 4572.64,21.516 4572.64,21.737L4572.64,32.41C4572.64,32.909 4573.05,33.313 4573.55,33.313L4577.39,33.313ZM4578.24,33.313C4578.6,34.193 4579.46,34.815 4580.47,34.815C4581.8,34.815 4582.87,33.737 4582.87,32.41C4582.87,31.082 4581.8,30.004 4580.47,30.004C4579.46,30.004 4578.6,30.626 4578.24,31.506L4578.47,31.506C4578.81,30.743 4579.58,30.212 4580.47,30.212C4581.68,30.212 4582.67,31.197 4582.67,32.41C4582.67,33.622 4581.68,34.607 4580.47,34.607C4579.58,34.607 4578.81,34.076 4578.47,33.313L4578.24,33.313ZM4580.47,31.012C4581.24,31.012 4581.87,31.638 4581.87,32.41C4581.87,33.181 4581.24,33.807 4580.47,33.807C4579.7,33.807 4579.07,33.181 4579.07,32.41C4579.07,31.638 4579.7,31.012 4580.47,31.012ZM4577.27,32.306L4574.05,32.306C4573.83,32.306 4573.65,32.127 4573.65,31.906C4573.65,31.906 4573.65,22.137 4573.65,22.137L4573.44,22.137L4573.44,32.41C4573.44,32.467 4573.49,32.513 4573.55,32.513L4577.27,32.513C4577.26,32.479 4577.26,32.444 4577.26,32.41C4577.26,32.375 4577.26,32.34 4577.27,32.306ZM4578.07,32.306L4578.27,32.306L4578.27,32.513L4578.07,32.513C4578.06,32.479 4578.06,32.444 4578.06,32.41C4578.06,32.375 4578.06,32.34 4578.07,32.306Z" style="fill:white;"/>
                    </g>
                    <g transform="matrix(0.914021,0,0,0.914021,-124.166,73.7197)">
                        <path d="M1088.79,692.371C1083.47,692.371 1079.16,696.687 1079.16,702.003C1079.16,707.319 1083.47,711.635 1088.79,711.635C1094.11,711.635 1098.42,707.319 1098.42,702.003C1098.42,696.687 1094.11,692.371 1088.79,692.371ZM1088.79,695.83C1092.2,695.83 1094.96,698.596 1094.96,702.003C1094.96,705.41 1092.2,708.176 1088.79,708.176C1085.38,708.176 1082.62,705.41 1082.62,702.003C1082.62,698.596 1085.38,695.83 1088.79,695.83Z" style="fill:white;"/>
                    </g>
                    <g transform="matrix(3.13853,0,0,3.13853,-13460.8,585.378)">
                        <path d="M4565.51,38.341C4564.18,38.732 4563.21,39.962 4563.21,41.417C4563.21,43.186 4564.65,44.622 4566.42,44.622C4568.19,44.622 4569.62,43.186 4569.62,41.417C4569.62,39.962 4568.65,38.732 4567.32,38.341L4567.32,24.796C4567.32,24.575 4567.14,24.396 4566.92,24.396L4565.91,24.396C4565.69,24.396 4565.51,24.575 4565.51,24.796L4565.51,38.341ZM4565.51,39.187C4564.63,39.545 4564.01,40.409 4564.01,41.417C4564.01,42.744 4565.09,43.822 4566.42,43.822C4567.74,43.822 4568.82,42.744 4568.82,41.417C4568.82,40.409 4568.2,39.545 4567.32,39.187L4567.32,39.263C4567.32,39.312 4567.31,39.359 4567.3,39.402C4568.07,39.741 4568.61,40.516 4568.61,41.417C4568.61,42.63 4567.63,43.614 4566.42,43.614C4565.2,43.614 4564.22,42.63 4564.22,41.417C4564.22,40.516 4564.76,39.741 4565.54,39.402C4565.52,39.359 4565.51,39.312 4565.51,39.263L4565.51,39.187ZM4566.42,40.019C4567.19,40.019 4567.82,40.645 4567.82,41.417C4567.82,42.188 4567.19,42.814 4566.42,42.814C4565.65,42.814 4565.02,42.188 4565.02,41.417C4565.02,40.645 4565.65,40.019 4566.42,40.019ZM4566.31,38.213C4566.35,38.212 4566.38,38.212 4566.42,38.212C4566.45,38.212 4566.49,38.212 4566.52,38.213L4566.52,25.196L4566.31,25.196L4566.31,38.213Z" style="fill:white;"/>
                    </g>
                    <g transform="matrix(0.914021,0,0,0.914021,-170.014,57.6696)">
                        <path d="M1088.79,692.371C1083.47,692.371 1079.16,696.687 1079.16,702.003C1079.16,707.319 1083.47,711.635 1088.79,711.635C1094.11,711.635 1098.42,707.319 1098.42,702.003C1098.42,696.687 1094.11,692.371 1088.79,692.371ZM1088.79,695.83C1092.2,695.83 1094.96,698.596 1094.96,702.003C1094.96,705.41 1092.2,708.176 1088.79,708.176C1085.38,708.176 1082.62,705.41 1082.62,702.003C1082.62,698.596 1085.38,695.83 1088.79,695.83Z" style="fill:white;"/>
                    </g>
                    <g transform="matrix(3.13853,0,0,3.13853,-13460.8,585.378)">
                        <path d="M4554.88,35.399C4554.49,34.07 4553.26,33.098 4551.81,33.098C4550.04,33.098 4548.6,34.534 4548.6,36.303C4548.6,38.072 4550.04,39.508 4551.81,39.508C4553.26,39.508 4554.49,38.536 4554.88,37.206L4558.01,37.206C4558.51,37.206 4558.92,36.802 4558.92,36.303C4558.92,36.303 4558.92,21.737 4558.92,21.737C4558.92,21.516 4558.74,21.337 4558.52,21.337L4557.51,21.337C4557.29,21.337 4557.11,21.516 4557.11,21.737L4557.11,35.399L4554.88,35.399ZM4554.04,35.399C4553.68,34.519 4552.82,33.898 4551.81,33.898C4550.48,33.898 4549.4,34.975 4549.4,36.303C4549.4,37.63 4550.48,38.708 4551.81,38.708C4552.82,38.708 4553.68,38.086 4554.04,37.206L4553.81,37.206C4553.47,37.969 4552.7,38.5 4551.81,38.5C4550.6,38.5 4549.61,37.516 4549.61,36.303C4549.61,35.09 4550.6,34.105 4551.81,34.105C4552.7,34.105 4553.47,34.636 4553.81,35.399L4554.04,35.399ZM4551.81,34.905C4552.58,34.905 4553.21,35.531 4553.21,36.303C4553.21,37.074 4552.58,37.7 4551.81,37.7C4551.04,37.7 4550.41,37.074 4550.41,36.303C4550.41,35.531 4551.04,34.905 4551.81,34.905ZM4554.01,36.199L4554.21,36.199C4554.21,36.233 4554.21,36.268 4554.21,36.303C4554.21,36.338 4554.21,36.372 4554.21,36.406L4554.01,36.406L4554.01,36.199ZM4555.01,36.406L4558.01,36.406C4558.07,36.406 4558.12,36.36 4558.12,36.303C4558.12,36.303 4558.12,22.137 4558.12,22.137L4557.91,22.137L4557.91,35.799C4557.91,36.02 4557.73,36.199 4557.51,36.199L4555.01,36.199C4555.01,36.234 4555.01,36.268 4555.01,36.303C4555.01,36.337 4555.01,36.372 4555.01,36.406Z" style="fill:white;"/>
                    </g>
                </g>
                <g transform="matrix(0.696976,0,0,0.696976,360.203,103.488)">
                    <path d="M1142.87,763.591C1153.68,744.774 1173.98,732.09 1197.22,732.09C1223.35,732.09 1245.76,748.118 1255.15,770.869C1256.7,770.701 1258.27,770.615 1259.86,770.615C1283.8,770.615 1303.24,790.051 1303.24,813.992C1303.24,837.932 1283.8,857.368 1259.86,857.369L1078.28,857.369C1060.94,857.369 1046.87,843.294 1046.87,825.958C1046.87,808.622 1060.94,794.548 1078.28,794.548C1081.58,794.548 1084.77,795.059 1087.76,796.005C1093.72,776.653 1111.76,762.573 1133.06,762.573C1136.42,762.573 1139.7,762.924 1142.87,763.591Z" style="fill:white;stroke:white;stroke-width:9.61px;"/>
                </g>
            </g>
        </g>
    </g>
</svg>
