<svg width="53" height="54" viewBox="0 0 53 54" fill="none" xmlns="http://www.w3.org/2000/svg">
<path fill-rule="evenodd" clip-rule="evenodd" d="M26.4 52.905C40.9803 52.905 52.8 41.0618 52.8 26.4525C52.8 11.8432 40.9803 0 26.4 0C11.8197 0 0 11.8432 0 26.4525C0 41.0618 11.8197 52.905 26.4 52.905Z" fill="#59D9AC"/>
<path d="M26.8801 23.1841C27.6404 23.1841 28.3547 23.3799 29.0228 23.7716C29.691 24.1633 30.2209 24.6932 30.6126 25.3614C31.0043 26.0295 31.2001 26.7438 31.2001 27.5041C31.2001 28.2644 31.0043 28.9787 30.6126 29.6468C30.2209 30.315 29.691 30.8449 29.0228 31.2366C28.3547 31.6283 27.6404 31.8241 26.8801 31.8241C26.1198 31.8241 25.4055 31.6283 24.7374 31.2366C24.0692 30.8449 23.5393 30.315 23.1476 29.6468C22.7559 28.9787 22.5601 28.2644 22.5601 27.5041C22.5601 26.7438 22.7559 26.0295 23.1476 25.3614C23.5393 24.6932 24.0692 24.1633 24.7374 23.7716C25.4055 23.3799 26.1198 23.1841 26.8801 23.1841ZM26.8801 34.7271C28.1934 34.7271 29.403 34.4046 30.5089 33.7595C31.6148 33.1143 32.4903 32.2388 33.1355 31.1329C33.7806 30.027 34.1031 28.8174 34.1031 27.5041C34.1031 26.1908 33.7806 24.9812 33.1355 23.8753C32.4903 22.7694 31.6148 21.8939 30.5089 21.2487C29.403 20.6036 28.1934 20.2811 26.8801 20.2811C25.5668 20.2811 24.3572 20.6036 23.2513 21.2487C22.1454 21.8939 21.2699 22.7694 20.6247 23.8753C19.9796 24.9812 19.6571 26.1908 19.6571 27.5041C19.6571 28.8174 19.9796 30.027 20.6247 31.1329C21.2699 32.2388 22.1454 33.1143 23.2513 33.7595C24.3572 34.4046 25.5668 34.7271 26.8801 34.7271ZM26.8801 16.6868C29.2532 16.6868 31.5111 17.1476 33.6539 18.0692C35.7275 18.9678 37.5476 20.235 39.1143 21.8708C40.7041 23.5067 41.9137 25.3844 42.7431 27.5041C41.9137 29.6238 40.7041 31.5015 39.1143 33.1374C37.5476 34.7502 35.7275 36.0059 33.6539 36.9044C31.5111 37.826 29.2532 38.2868 26.8801 38.2868C24.507 38.2868 22.2491 37.826 20.1063 36.9044C18.0327 36.0059 16.2011 34.7502 14.6113 33.1374C13.0446 31.5015 11.8465 29.6238 11.0171 27.5041C11.8465 25.3844 13.0446 23.5067 14.6113 21.8708C16.2011 20.235 18.0327 18.9678 20.1063 18.0692C22.2491 17.1476 24.507 16.6868 26.8801 16.6868Z" fill="white"/>
</svg>
