<?xml version="1.0" encoding="UTF-8" standalone="no"?>
<!DOCTYPE svg PUBLIC "-//W3C//DTD SVG 1.1//EN" "http://www.w3.org/Graphics/SVG/1.1/DTD/svg11.dtd">
<svg width="100%" height="100%" viewBox="0 0 53 52" version="1.1" xmlns="http://www.w3.org/2000/svg" xmlns:xlink="http://www.w3.org/1999/xlink" xml:space="preserve" xmlns:serif="http://www.serif.com/" style="fill-rule:evenodd;clip-rule:evenodd;stroke-linejoin:round;stroke-miterlimit:2;">
    <g transform="matrix(1,0,0,1,-4481,0)">
        <g id="ProjectIcon_AIOT" transform="matrix(0.0361111,0,0,0.0577778,4481.7,0)">
            <rect x="0" y="0" width="1440" height="900" style="fill:none;"/>
            <g transform="matrix(27.6923,0,0,17.3077,-124109,0)">
                <circle cx="4507.7" cy="26" r="26" style="fill:rgb(89,217,172);"/>
            </g>
            <g transform="matrix(25.4375,0,0,15.7374,-15919.4,-9588.25)">
                <g transform="matrix(0.347947,0,0,0.347947,426.246,414.617)">
                    <path d="M675.179,625.385C675.179,622.082 672.528,619.404 669.258,619.404L638.138,619.404C634.868,619.404 632.217,622.082 632.217,625.385L632.217,656.506C632.217,659.809 634.868,662.487 638.138,662.487L669.258,662.487C672.528,662.487 675.179,659.809 675.179,656.506L675.179,625.385ZM669.258,625.385L638.138,625.385L638.138,656.506L669.258,656.506L669.258,625.385Z" style="fill:white;"/>
                </g>
                <g transform="matrix(0.347947,0,0,0.347947,426.246,414.617)">
                    <path d="M676.43,625.385C676.43,621.384 673.219,618.14 669.258,618.14L638.138,618.14C634.177,618.14 630.966,621.384 630.966,625.385C630.966,625.385 630.966,656.506 630.966,656.506C630.966,660.507 634.177,663.751 638.138,663.751L669.258,663.751C673.219,663.751 676.43,660.507 676.43,656.506L676.43,625.385ZM673.927,625.385L673.927,656.506C673.927,659.111 671.837,661.222 669.258,661.222L638.138,661.222C635.559,661.222 633.469,659.111 633.469,656.506C633.469,656.506 633.469,625.385 633.469,625.385C633.469,622.78 635.559,620.668 638.138,620.668C638.138,620.668 669.258,620.668 669.258,620.668C671.837,620.668 673.927,622.78 673.927,625.385ZM670.51,625.385C670.51,624.687 669.949,624.121 669.258,624.121L638.138,624.121C637.447,624.121 636.886,624.687 636.886,625.385L636.886,656.506C636.886,657.204 637.447,657.77 638.138,657.77L669.258,657.77C669.949,657.77 670.51,657.204 670.51,656.506L670.51,625.385ZM668.007,626.649L668.007,655.241C668.007,655.241 639.389,655.241 639.389,655.241C639.389,655.241 639.389,626.65 639.389,626.65L668.007,626.649Z" style="fill:white;"/>
                </g>
                <g transform="matrix(0.770399,0,0,0.770399,150.09,143.848)">
                    <path d="M671.932,625.385C671.932,623.893 670.735,622.684 669.258,622.684L638.138,622.684C636.661,622.684 635.464,623.893 635.464,625.385L635.464,656.506C635.464,657.997 636.661,659.207 638.138,659.207L669.258,659.207C670.735,659.207 671.932,657.997 671.932,656.506L671.932,625.385ZM669.258,625.385L638.138,625.385L638.138,656.506L669.258,656.506L669.258,625.385Z" style="fill:white;"/>
                </g>
                <g transform="matrix(0.770399,0,0,0.770399,150.09,143.848)">
                    <path d="M672.497,625.385C672.497,623.578 671.047,622.113 669.258,622.113C669.258,622.113 638.138,622.113 638.138,622.113C636.349,622.113 634.899,623.578 634.899,625.385C634.899,625.385 634.899,656.506 634.899,656.506C634.899,658.313 636.349,659.778 638.138,659.778C638.138,659.778 669.258,659.778 669.258,659.778C671.047,659.778 672.497,658.313 672.497,656.506C672.497,656.506 672.497,625.385 672.497,625.385ZM671.367,625.385L671.367,656.506C671.367,657.682 670.423,658.636 669.258,658.636L638.138,658.636C636.973,658.636 636.029,657.682 636.029,656.506C636.029,656.506 636.029,625.385 636.029,625.385C636.029,624.209 636.973,623.255 638.138,623.255C638.138,623.255 669.258,623.255 669.258,623.255C670.423,623.255 671.367,624.209 671.367,625.385ZM669.823,625.385C669.823,625.07 669.57,624.814 669.258,624.814L638.138,624.814C637.826,624.814 637.573,625.07 637.573,625.385L637.573,656.506C637.573,656.821 637.826,657.077 638.138,657.077L669.258,657.077C669.57,657.077 669.823,656.821 669.823,656.506L669.823,625.385ZM668.693,625.956L668.693,655.935C668.693,655.935 638.703,655.935 638.703,655.935C638.703,655.935 638.703,625.956 638.703,625.956L668.693,625.956Z" style="fill:white;"/>
                </g>
                <path d="M649.314,623.495L649.314,617.118C649.314,616.544 648.852,616.078 648.284,616.078C647.715,616.078 647.254,616.544 647.254,617.118L647.254,623.495C647.254,624.069 647.715,624.535 648.284,624.535C648.852,624.535 649.314,624.069 649.314,623.495Z" style="fill:white;"/>
                <path d="M649.749,623.495L649.749,617.118C649.749,616.301 649.093,615.638 648.284,615.638C647.475,615.638 646.818,616.301 646.818,617.118L646.818,623.495C646.818,624.312 647.475,624.975 648.284,624.975C649.093,624.975 649.749,624.312 649.749,623.495ZM648.878,623.495C648.878,623.826 648.612,624.095 648.284,624.095C647.956,624.095 647.689,623.826 647.689,623.495C647.689,623.495 647.689,617.118 647.689,617.118C647.689,616.787 647.956,616.517 648.284,616.517C648.612,616.517 648.878,616.787 648.878,617.118L648.878,623.495Z" style="fill:white;"/>
                <g transform="matrix(1,0,0,1,0,35.109)">
                    <path d="M649.314,623.495L649.314,617.118C649.314,616.544 648.852,616.078 648.284,616.078C647.715,616.078 647.254,616.544 647.254,617.118L647.254,623.495C647.254,624.069 647.715,624.535 648.284,624.535C648.852,624.535 649.314,624.069 649.314,623.495Z" style="fill:white;"/>
                </g>
                <g transform="matrix(1,0,0,1,0,35.109)">
                    <path d="M649.749,623.495L649.749,617.118C649.749,616.301 649.093,615.638 648.284,615.638C647.475,615.638 646.818,616.301 646.818,617.118L646.818,623.495C646.818,624.312 647.475,624.975 648.284,624.975C649.093,624.975 649.749,624.312 649.749,623.495ZM648.878,623.495C648.878,623.826 648.612,624.095 648.284,624.095C647.956,624.095 647.689,623.826 647.689,623.495C647.689,623.495 647.689,617.118 647.689,617.118C647.689,616.787 647.956,616.517 648.284,616.517C648.612,616.517 648.878,616.787 648.878,617.118L648.878,623.495Z" style="fill:white;"/>
                </g>
                <g transform="matrix(1,0,0,1,9.61856,0)">
                    <path d="M649.314,623.495L649.314,617.118C649.314,616.544 648.852,616.078 648.284,616.078C647.715,616.078 647.254,616.544 647.254,617.118L647.254,623.495C647.254,624.069 647.715,624.535 648.284,624.535C648.852,624.535 649.314,624.069 649.314,623.495Z" style="fill:white;"/>
                </g>
                <g transform="matrix(1,0,0,1,9.61856,0)">
                    <path d="M649.749,623.495L649.749,617.118C649.749,616.301 649.093,615.638 648.284,615.638C647.475,615.638 646.818,616.301 646.818,617.118C646.818,617.118 646.818,623.495 646.818,623.495C646.818,624.312 647.475,624.975 648.284,624.975C649.093,624.975 649.749,624.312 649.749,623.495ZM648.878,623.495C648.878,623.826 648.612,624.095 648.284,624.095C647.956,624.095 647.689,623.826 647.689,623.495L647.689,617.118C647.689,616.787 647.956,616.517 648.284,616.517C648.612,616.517 648.878,616.787 648.878,617.118L648.878,623.495Z" style="fill:white;"/>
                </g>
                <g transform="matrix(1,0,0,1,9.61856,35.109)">
                    <path d="M649.314,623.495L649.314,617.118C649.314,616.544 648.852,616.078 648.284,616.078C647.715,616.078 647.254,616.544 647.254,617.118L647.254,623.495C647.254,624.069 647.715,624.535 648.284,624.535C648.852,624.535 649.314,624.069 649.314,623.495Z" style="fill:white;"/>
                </g>
                <g transform="matrix(1,0,0,1,9.61856,35.109)">
                    <path d="M649.749,623.495L649.749,617.118C649.749,616.301 649.093,615.638 648.284,615.638C647.475,615.638 646.818,616.301 646.818,617.118C646.818,617.118 646.818,623.495 646.818,623.495C646.818,624.312 647.475,624.975 648.284,624.975C649.093,624.975 649.749,624.312 649.749,623.495ZM648.878,623.495C648.878,623.826 648.612,624.095 648.284,624.095C647.956,624.095 647.689,623.826 647.689,623.495L647.689,617.118C647.689,616.787 647.956,616.517 648.284,616.517C648.612,616.517 648.878,616.787 648.878,617.118L648.878,623.495Z" style="fill:white;"/>
                </g>
                <g transform="matrix(6.12323e-17,-1,1,6.12323e-17,16.269,1290.83)">
                    <path d="M649.324,623.495L649.324,617.118C649.324,616.55 648.858,616.088 648.284,616.088C647.71,616.088 647.243,616.55 647.243,617.118L647.243,623.495C647.243,624.063 647.71,624.525 648.284,624.525C648.858,624.525 649.324,624.063 649.324,623.495Z" style="fill:white;"/>
                </g>
                <g transform="matrix(6.12323e-17,-1,1,6.12323e-17,16.269,1290.83)">
                    <path d="M649.764,623.495L649.764,617.118C649.764,616.309 649.101,615.653 648.284,615.653C647.467,615.653 646.803,616.309 646.803,617.118C646.803,617.118 646.803,623.495 646.803,623.495C646.803,624.304 647.467,624.96 648.284,624.96C649.101,624.96 649.764,624.304 649.764,623.495ZM648.885,623.495C648.884,623.823 648.615,624.089 648.284,624.089C647.952,624.089 647.683,623.823 647.683,623.495L647.683,617.118C647.683,616.79 647.952,616.524 648.284,616.524C648.615,616.524 648.885,616.79 648.885,617.118L648.885,623.495Z" style="fill:white;"/>
                </g>
                <g transform="matrix(6.12323e-17,-1,1,6.12323e-17,51.378,1290.83)">
                    <path d="M649.324,623.495L649.324,617.118C649.324,616.55 648.858,616.088 648.284,616.088C647.71,616.088 647.243,616.55 647.243,617.118L647.243,623.495C647.243,624.063 647.71,624.525 648.284,624.525C648.858,624.525 649.324,624.063 649.324,623.495Z" style="fill:white;"/>
                </g>
                <g transform="matrix(6.12323e-17,-1,1,6.12323e-17,51.378,1290.83)">
                    <path d="M649.764,623.495L649.764,617.118C649.764,616.309 649.101,615.653 648.284,615.653C647.467,615.653 646.803,616.309 646.803,617.118C646.803,617.118 646.803,623.495 646.803,623.495C646.803,624.304 647.467,624.96 648.284,624.96C649.101,624.96 649.764,624.304 649.764,623.495ZM648.885,623.495C648.884,623.823 648.615,624.089 648.284,624.089C647.952,624.089 647.683,623.823 647.683,623.495L647.683,617.118C647.683,616.79 647.952,616.524 648.284,616.524C648.615,616.524 648.885,616.79 648.885,617.118L648.885,623.495Z" style="fill:white;"/>
                </g>
                <g transform="matrix(6.12323e-17,-1,1,6.12323e-17,16.269,1281.21)">
                    <path d="M649.324,623.495L649.324,617.118C649.324,616.55 648.858,616.088 648.284,616.088C647.71,616.088 647.243,616.55 647.243,617.118L647.243,623.495C647.243,624.063 647.71,624.525 648.284,624.525C648.858,624.525 649.324,624.063 649.324,623.495Z" style="fill:white;"/>
                </g>
                <g transform="matrix(6.12323e-17,-1,1,6.12323e-17,16.269,1281.21)">
                    <path d="M649.764,623.495L649.764,617.118C649.764,616.309 649.101,615.653 648.284,615.653C647.467,615.653 646.803,616.309 646.803,617.118L646.803,623.495C646.803,624.304 647.467,624.96 648.284,624.96C649.101,624.96 649.764,624.304 649.764,623.495ZM648.885,623.495C648.885,623.823 648.615,624.089 648.284,624.089C647.952,624.089 647.683,623.823 647.683,623.495C647.683,623.495 647.683,617.118 647.683,617.118C647.683,616.79 647.952,616.524 648.284,616.524C648.615,616.524 648.885,616.79 648.885,617.118L648.885,623.495Z" style="fill:white;"/>
                </g>
                <g transform="matrix(6.12323e-17,-1,1,6.12323e-17,51.378,1281.21)">
                    <path d="M649.324,623.495L649.324,617.118C649.324,616.55 648.858,616.088 648.284,616.088C647.71,616.088 647.243,616.55 647.243,617.118L647.243,623.495C647.243,624.063 647.71,624.525 648.284,624.525C648.858,624.525 649.324,624.063 649.324,623.495Z" style="fill:white;"/>
                </g>
                <g transform="matrix(6.12323e-17,-1,1,6.12323e-17,51.378,1281.21)">
                    <path d="M649.764,623.495L649.764,617.118C649.764,616.309 649.101,615.653 648.284,615.653C647.467,615.653 646.803,616.309 646.803,617.118L646.803,623.495C646.803,624.304 647.467,624.96 648.284,624.96C649.101,624.96 649.764,624.304 649.764,623.495ZM648.885,623.495C648.885,623.823 648.615,624.089 648.284,624.089C647.952,624.089 647.683,623.823 647.683,623.495C647.683,623.495 647.683,617.118 647.683,617.118C647.683,616.79 647.952,616.524 648.284,616.524C648.615,616.524 648.885,616.79 648.885,617.118L648.885,623.495Z" style="fill:white;"/>
                </g>
            </g>
        </g>
    </g>
</svg>
