<?xml version="1.0" encoding="UTF-8" standalone="no"?>
<svg
   xmlns:dc="http://purl.org/dc/elements/1.1/"
   xmlns:cc="http://creativecommons.org/ns#"
   xmlns:rdf="http://www.w3.org/1999/02/22-rdf-syntax-ns#"
   xmlns:svg="http://www.w3.org/2000/svg"
   xmlns="http://www.w3.org/2000/svg"
   xmlns:sodipodi="http://sodipodi.sourceforge.net/DTD/sodipodi-0.dtd"
   xmlns:inkscape="http://www.inkscape.org/namespaces/inkscape"
   id="svgRoot"
   viewBox="0 0 411.62791 2382.4003"
   xml:space="preserve"
   sodipodi:version="0.32"
   inkscape:version="0.48.4 r9939"
   width="200"
   height="200"
   sodipodi:docname="CPC.svg"
   inkscape:output_extension="org.inkscape.output.svg.inkscape"
   version="1.0"><metadata
   id="metadata361"><rdf:RDF><cc:Work
       rdf:about=""><dc:format>image/svg+xml</dc:format><dc:type
         rdf:resource="http://purl.org/dc/dcmitype/StillImage" /><dc:title></dc:title></cc:Work></rdf:RDF></metadata><sodipodi:namedview
   inkscape:window-height="712"
   inkscape:window-width="1024"
   inkscape:pageshadow="2"
   inkscape:pageopacity="0.0"
   guidetolerance="10.0"
   gridtolerance="10.0"
   objecttolerance="10.0"
   borderopacity="1.0"
   bordercolor="#666666"
   pagecolor="#ffffff"
   id="base"
   showgrid="false"
   inkscape:zoom="3.5968992"
   inkscape:cx="119.4696"
   inkscape:cy="127.0412"
   inkscape:window-x="-4"
   inkscape:window-y="-4"
   inkscape:current-layer="svgRoot"
   fit-margin-top="0"
   fit-margin-left="0"
   fit-margin-right="0"
   fit-margin-bottom="0"
   inkscape:window-maximized="0" />
<defs
   id="defs3"><inkscape:perspective
   sodipodi:type="inkscape:persp3d"
   inkscape:vp_x="0 : 526.18109 : 1"
   inkscape:vp_y="0 : 1000 : 0"
   inkscape:vp_z="744.09448 : 526.18109 : 1"
   inkscape:persp3d-origin="372.04724 : 350.78739 : 1"
   id="perspective363" />
<inkscape:perspective
   id="perspective2959"
   inkscape:persp3d-origin="372.04724 : 350.78739 : 1"
   inkscape:vp_z="744.09448 : 526.18109 : 1"
   inkscape:vp_y="0 : 1000 : 0"
   inkscape:vp_x="0 : 526.18109 : 1"
   sodipodi:type="inkscape:persp3d" /><inkscape:perspective
   id="perspective2587"
   inkscape:persp3d-origin="372.04724 : 350.78739 : 1"
   inkscape:vp_z="744.09448 : 526.18109 : 1"
   inkscape:vp_y="0 : 1000 : 0"
   inkscape:vp_x="0 : 526.18109 : 1"
   sodipodi:type="inkscape:persp3d" />
<inkscape:perspective
   id="perspective2857"
   inkscape:persp3d-origin="372.04724 : 350.78739 : 1"
   inkscape:vp_z="744.09448 : 526.18109 : 1"
   inkscape:vp_y="0 : 1000 : 0"
   inkscape:vp_x="0 : 526.18109 : 1"
   sodipodi:type="inkscape:persp3d" />
</defs>
<g
   id="g2967"
   transform="matrix(3.5828181,0,0,3.5819602,3585.401,38.499407)"><g
     transform="matrix(0,-16.285768,-16.285856,0,8248.7052,1863.5809)"
     id="q1"
     class="">
<clipPath
   id="clp1"
   clip-rule="evenodd">
<path
   inkscape:connector-curvature="0"
   d="m 94.669,544 c -11.272,0 -20.42,9.14 -20.42,20.41 0,11.27 9.148,20.42 20.42,20.42 11.271,0 20.421,-9.15 20.421,-20.42 0,-11.27 -9.15,-20.41 -20.421,-20.41 z"
   id="path11" />
</clipPath>
<g
   clip-path="url(#clp1)"
   id="g13">
<clipPath
   id="clp2"
   clip-rule="nonzero">
<path
   inkscape:connector-curvature="0"
   d="m -200.63,977.61 914,0 0,-1315 -914,0 0,1315 z"
   id="path16" />
</clipPath>
<g
   clip-path="url(#clp2)"
   id="g18">
<clipPath
   id="clp3"
   clip-rule="nonzero">
<path
   inkscape:connector-curvature="0"
   d="m -209.63,1021.7 932,0 0,-1367.99 -932,0 0,1367.99 z"
   id="path21" />
</clipPath>
<g
   clip-path="url(#clp3)"
   id="g23">
<path
   inkscape:connector-curvature="0"
   d="m 94.668,543.77 c 11.382,0 20.622,9.23 20.622,20.61 0,11.39 -9.24,20.62 -20.622,20.62 -10.265,0 -18.777,-7.5 -20.354,-17.32 l 1.101,0 c 1.565,9.21 9.589,16.23 19.253,16.23 10.792,0 19.532,-8.74 19.532,-19.53 0,-10.78 -8.74,-19.53 -19.532,-19.53 -9.814,0 -17.936,7.24 -19.322,16.67 l -1.096,0 c 1.394,-10.03 10.004,-17.75 20.418,-17.75"
   class="ps01"
   id="path25"
   style="fill:#134e8b;fill-rule:nonzero;stroke:none" />
</g>
</g>
</g>
</g><g
     transform="matrix(0,-16.285768,-16.285856,0,8248.7052,1863.5809)"
     id="q2"
     class="">
<clipPath
   id="clp4"
   clip-rule="evenodd">
<path
   inkscape:connector-curvature="0"
   d="m 94.669,544 c -11.272,0 -20.42,9.14 -20.42,20.41 0,11.27 9.148,20.42 20.42,20.42 11.271,0 20.421,-9.15 20.421,-20.42 0,-11.27 -9.15,-20.41 -20.421,-20.41 z"
   id="path29" />
</clipPath>
<g
   clip-path="url(#clp4)"
   id="g31">
<clipPath
   id="clp5"
   clip-rule="nonzero">
<path
   inkscape:connector-curvature="0"
   d="m -200.63,977.61 914,0 0,-1315 -914,0 0,1315 z"
   id="path34" />
</clipPath>
<g
   clip-path="url(#clp5)"
   id="g36">
<clipPath
   id="clp6"
   clip-rule="nonzero">
<path
   inkscape:connector-curvature="0"
   d="m -209.63,1021.7 932,0 0,-1367.99 -932,0 0,1367.99 z"
   id="path39" />
</clipPath>
<g
   clip-path="url(#clp6)"
   id="g41">
<path
   inkscape:connector-curvature="0"
   d="m 94.686,546.17 c 10.094,0 18.284,8.18 18.284,18.28 0,10.1 -8.19,18.29 -18.284,18.29 -8.981,0 -16.449,-6.48 -17.992,-15.01 l 1.269,0 c 1.527,7.84 8.433,13.76 16.723,13.76 9.414,0 17.034,-7.63 17.034,-17.04 0,-9.41 -7.62,-17.04 -17.034,-17.04 -8.419,0 -15.41,6.11 -16.79,14.13 l -1.264,0 c 1.393,-8.71 8.945,-15.37 18.054,-15.37"
   class="ps01 ps10"
   id="path43"
   style="fill:#134e8b;fill-rule:nonzero;stroke:none" />
</g>
</g>
</g>
</g><g
     transform="matrix(0,-16.285768,-16.285856,0,8248.7052,1863.5809)"
     id="q3"
     class="">
<clipPath
   id="clp7"
   clip-rule="evenodd">
<path
   inkscape:connector-curvature="0"
   d="m 94.669,544 c -11.272,0 -20.42,9.14 -20.42,20.41 0,11.27 9.148,20.42 20.42,20.42 11.271,0 20.421,-9.15 20.421,-20.42 0,-11.27 -9.15,-20.41 -20.421,-20.41 z"
   id="path47" />
</clipPath>
<g
   clip-path="url(#clp7)"
   id="g49">
<clipPath
   id="clp8"
   clip-rule="nonzero">
<path
   inkscape:connector-curvature="0"
   d="m -200.63,977.61 914,0 0,-1315 -914,0 0,1315 z"
   id="path52" />
</clipPath>
<g
   clip-path="url(#clp8)"
   id="g54">
<clipPath
   id="clp9"
   clip-rule="nonzero">
<path
   inkscape:connector-curvature="0"
   d="m -209.63,1021.7 932,0 0,-1367.99 -932,0 0,1367.99 z"
   id="path57" />
</clipPath>
<g
   clip-path="url(#clp9)"
   id="g59">
<path
   inkscape:connector-curvature="0"
   d="m 94.686,548.66 c 8.724,0 15.794,7.07 15.794,15.79 0,8.72 -7.07,15.79 -15.794,15.79 -7.599,0 -13.943,-5.36 -15.451,-12.51 l 1.276,0 c 1.485,6.45 7.268,11.27 14.175,11.27 8.034,0 14.544,-6.52 14.544,-14.55 0,-8.03 -6.51,-14.54 -14.544,-14.54 -7.037,0 -12.907,4.99 -14.254,11.63 l -1.27,0 c 1.365,-7.33 7.796,-12.88 15.524,-12.88"
   class="ps01 ps10"
   id="path61"
   style="fill:#134e8b;fill-rule:nonzero;stroke:none" />
</g>
</g>
</g>
</g><g
     transform="matrix(0,-16.285768,-16.285856,0,8248.7052,1863.5809)"
     id="q4"
     class="">
<clipPath
   id="clp10"
   clip-rule="evenodd">
<path
   inkscape:connector-curvature="0"
   d="m 94.669,544 c -11.272,0 -20.42,9.14 -20.42,20.41 0,11.27 9.148,20.42 20.42,20.42 11.271,0 20.421,-9.15 20.421,-20.42 0,-11.27 -9.15,-20.41 -20.421,-20.41 z"
   id="path65" />
</clipPath>
<g
   clip-path="url(#clp10)"
   id="g67">
<clipPath
   id="clp11"
   clip-rule="nonzero">
<path
   inkscape:connector-curvature="0"
   d="m -200.63,977.61 914,0 0,-1315 -914,0 0,1315 z"
   id="path70" />
</clipPath>
<g
   clip-path="url(#clp11)"
   id="g72">
<clipPath
   id="clp12"
   clip-rule="nonzero">
<path
   inkscape:connector-curvature="0"
   d="m -209.63,1021.7 932,0 0,-1367.99 -932,0 0,1367.99 z"
   id="path75" />
</clipPath>
<g
   clip-path="url(#clp12)"
   id="g77">
<path
   inkscape:connector-curvature="0"
   d="m 93.237,564.27 0.606,0 0,0.69 -0.62,0 c -0.16,3.27 -1.616,5.57 -1.616,5.57 0,0 -1.498,-0.71 -1.393,-0.95 0.88,-2.02 1.325,-3.36 1.412,-4.62 l -1.009,0 0,-0.69 1.022,0 c -0.045,-1.33 -0.477,-2.69 -1.205,-4.8 -0.073,-0.22 1.393,-0.59 1.393,-0.59 1.028,1.9 1.394,3.74 1.41,5.39 z m -2.4,5.31 0.623,0.26 c 0,0 1.162,-1.92 1.256,-4.88 l -0.609,0 c -0.046,1.43 -0.381,3.02 -1.27,4.62 z m 0.147,-9.93 c 0,0 1.039,1.94 1.124,4.62 l 0.608,0 c -0.038,-1.41 -0.325,-3.01 -1.072,-4.73 -0.085,-0.2 -0.66,0.11 -0.66,0.11"
   class="ps01 ps10"
   id="path79"
   style="fill:#134e8b;fill-rule:nonzero;stroke:none" />
</g>
</g>
</g>
</g><g
     transform="matrix(0,-16.285768,-16.285856,0,8248.7052,1863.5809)"
     id="q5"
     class="">
<clipPath
   id="clp13"
   clip-rule="evenodd">
<path
   inkscape:connector-curvature="0"
   d="m 94.669,544 c -11.272,0 -20.42,9.14 -20.42,20.41 0,11.27 9.148,20.42 20.42,20.42 11.271,0 20.421,-9.15 20.421,-20.42 0,-11.27 -9.15,-20.41 -20.421,-20.41 z"
   id="path83" />
</clipPath>
<g
   clip-path="url(#clp13)"
   id="g85">
<clipPath
   id="clp14"
   clip-rule="nonzero">
<path
   inkscape:connector-curvature="0"
   d="m -200.63,977.61 914,0 0,-1315 -914,0 0,1315 z"
   id="path88" />
</clipPath>
<g
   clip-path="url(#clp14)"
   id="g90">
<clipPath
   id="clp15"
   clip-rule="nonzero">
<path
   inkscape:connector-curvature="0"
   d="m -209.63,1021.7 932,0 0,-1367.99 -932,0 0,1367.99 z"
   id="path93" />
</clipPath>
<g
   clip-path="url(#clp15)"
   id="g95">
<path
   inkscape:connector-curvature="0"
   d="m 107.88,563.86 c 0,0 -2.13,2.06 -4.03,1.84 -0.58,-0.07 -2.05,-0.08 -2.64,0.58 -0.21,0.24 1.9,1.45 1.69,3.15 -0.37,0 -1.32,-2.05 -3.523,0.15 -0.354,0.43 -5.791,4.33 -6.377,-1.1 -0.036,-0.32 1.686,3.45 5.204,-0.29 0.207,-0.22 -3.892,-0.15 -3.892,-3.74 0,-0.88 1.18,-3.22 3.672,-2.91 0.293,-0.39 -2.712,-4.57 -4.838,-0.83 0,0 -0.293,-1.24 0.733,-2.42 1.17,-1.33 3.354,-2.21 6.301,1.25 0,0 1.32,-0.59 2.28,-0.07 0.37,0.2 1.61,0.14 1.97,0 0.37,-0.15 -0.8,0.73 -1.53,0.66 -0.74,-0.08 -1.62,1.02 -1.47,1.41 0.11,0.29 0.73,-0.83 3.44,1.81 0.48,0.46 1.77,1.14 3.01,0.51"
   class="ps02 ps10"
   id="path97"
   style="fill:#ec1c23;fill-rule:nonzero;stroke:none" />
</g>
</g>
</g>
</g><g
     transform="matrix(0,-16.285768,-16.285856,0,8248.7052,1863.5809)"
     id="q6"
     class="">
<clipPath
   id="clp16"
   clip-rule="evenodd">
<path
   inkscape:connector-curvature="0"
   d="m 94.669,544 c -11.272,0 -20.42,9.14 -20.42,20.41 0,11.27 9.148,20.42 20.42,20.42 11.271,0 20.421,-9.15 20.421,-20.42 0,-11.27 -9.15,-20.41 -20.421,-20.41 z"
   id="path101" />
</clipPath>
<g
   clip-path="url(#clp16)"
   id="g103">
<clipPath
   id="clp17"
   clip-rule="nonzero">
<path
   inkscape:connector-curvature="0"
   d="m -200.63,977.61 914,0 0,-1315 -914,0 0,1315 z"
   id="path106" />
</clipPath>
<g
   clip-path="url(#clp17)"
   id="g108">
<clipPath
   id="clp18"
   clip-rule="nonzero">
<path
   inkscape:connector-curvature="0"
   d="m -209.63,1021.7 932,0 0,-1367.99 -932,0 0,1367.99 z"
   id="path111" />
</clipPath>
<g
   clip-path="url(#clp18)"
   id="g113">
<path
   inkscape:connector-curvature="0"
   d="m 96.848,568.45 c 0,0 -2.162,-0.11 -3.115,-1.69 -0.06,-0.1 0.513,2.97 3.115,1.69"
   class="ps02 ps10"
   id="path115"
   style="fill:#ec1c23;fill-rule:nonzero;stroke:none" />
</g>
</g>
</g>
</g><g
     transform="matrix(0,-16.285768,-16.285856,0,8248.7052,1863.5809)"
     id="q7"
     class="">
<clipPath
   id="clp19"
   clip-rule="evenodd">
<path
   inkscape:connector-curvature="0"
   d="m 94.669,544 c -11.272,0 -20.42,9.14 -20.42,20.41 0,11.27 9.148,20.42 20.42,20.42 11.271,0 20.421,-9.15 20.421,-20.42 0,-11.27 -9.15,-20.41 -20.421,-20.41 z"
   id="path119" />
</clipPath>
<g
   clip-path="url(#clp19)"
   id="g121">
<clipPath
   id="clp20"
   clip-rule="nonzero">
<path
   inkscape:connector-curvature="0"
   d="m -200.63,977.61 914,0 0,-1315 -914,0 0,1315 z"
   id="path124" />
</clipPath>
<g
   clip-path="url(#clp20)"
   id="g126">
<clipPath
   id="clp21"
   clip-rule="nonzero">
<path
   inkscape:connector-curvature="0"
   d="m -209.63,1021.7 932,0 0,-1367.99 -932,0 0,1367.99 z"
   id="path129" />
</clipPath>
<g
   clip-path="url(#clp21)"
   id="g131">
<path
   inkscape:connector-curvature="0"
   d="m 96.793,560.72 c -0.128,-0.19 -2.767,-0.89 -3.115,1.91 -0.021,0.16 0.604,-1.62 3.115,-1.91"
   class="ps02 ps10"
   id="path133"
   style="fill:#ec1c23;fill-rule:nonzero;stroke:none" />
</g>
</g>
</g>
</g><g
     transform="matrix(0,-16.285768,-16.285856,0,8248.7052,1863.5809)"
     id="q8"
     class="">
<clipPath
   id="clp22"
   clip-rule="evenodd">
<path
   inkscape:connector-curvature="0"
   d="m 94.669,544 c -11.272,0 -20.42,9.14 -20.42,20.41 0,11.27 9.148,20.42 20.42,20.42 11.271,0 20.421,-9.15 20.421,-20.42 0,-11.27 -9.15,-20.41 -20.421,-20.41 z"
   id="path137" />
</clipPath>
<g
   clip-path="url(#clp22)"
   id="g139">
<clipPath
   id="clp23"
   clip-rule="nonzero">
<path
   inkscape:connector-curvature="0"
   d="m -200.63,977.61 914,0 0,-1315 -914,0 0,1315 z"
   id="path142" />
</clipPath>
<g
   clip-path="url(#clp23)"
   id="g144">
<clipPath
   id="clp24"
   clip-rule="nonzero">
<path
   inkscape:connector-curvature="0"
   d="m -209.63,1021.7 932,0 0,-1367.99 -932,0 0,1367.99 z"
   id="path147" />
</clipPath>
<g
   clip-path="url(#clp24)"
   id="g149">
<path
   inkscape:connector-curvature="0"
   d="m 90.288,567.73 c 0,0 -2.47,-0.32 -2.713,-0.42 -0.342,-0.15 0.66,1.07 2.346,1.54 0.171,-0.15 0.367,-1.12 0.367,-1.12"
   class="ps01 ps10"
   id="path151"
   style="fill:#134e8b;fill-rule:nonzero;stroke:none" />
</g>
</g>
</g>
</g><g
     transform="matrix(0,-16.285768,-16.285856,0,8248.7052,1863.5809)"
     id="q9"
     class="">
<clipPath
   id="clp25"
   clip-rule="evenodd">
<path
   inkscape:connector-curvature="0"
   d="m 94.669,544 c -11.272,0 -20.42,9.14 -20.42,20.41 0,11.27 9.148,20.42 20.42,20.42 11.271,0 20.421,-9.15 20.421,-20.42 0,-11.27 -9.15,-20.41 -20.421,-20.41 z"
   id="path155" />
</clipPath>
<g
   clip-path="url(#clp25)"
   id="g157">
<clipPath
   id="clp26"
   clip-rule="nonzero">
<path
   inkscape:connector-curvature="0"
   d="m -200.63,977.61 914,0 0,-1315 -914,0 0,1315 z"
   id="path160" />
</clipPath>
<g
   clip-path="url(#clp26)"
   id="g162">
<clipPath
   id="clp27"
   clip-rule="nonzero">
<path
   inkscape:connector-curvature="0"
   d="m -209.63,1021.7 932,0 0,-1367.99 -932,0 0,1367.99 z"
   id="path165" />
</clipPath>
<g
   clip-path="url(#clp27)"
   id="g167">
<path
   inkscape:connector-curvature="0"
   d="m 90.507,566.87 0.123,-1 -3.299,-0.05 c 0,0 -0.244,-0.54 -0.287,-1.37 -0.004,-0.07 -6.896,0.05 -6.896,0.05 l 0.024,0.41 6.402,0.18 c 0,0 0.171,1.24 0.537,1.56 0.124,0.11 3.396,0.22 3.396,0.22"
   class="ps01 ps10"
   id="path169"
   style="fill:#134e8b;fill-rule:nonzero;stroke:none" />
</g>
</g>
</g>
</g><g
     transform="matrix(0,-16.285768,-16.285856,0,8248.7052,1863.5809)"
     id="q10"
     class="">
<clipPath
   id="clp28"
   clip-rule="evenodd">
<path
   inkscape:connector-curvature="0"
   d="m 94.669,544 c -11.272,0 -20.42,9.14 -20.42,20.41 0,11.27 9.148,20.42 20.42,20.42 11.271,0 20.421,-9.15 20.421,-20.42 0,-11.27 -9.15,-20.41 -20.421,-20.41 z"
   id="path173" />
</clipPath>
<g
   clip-path="url(#clp28)"
   id="g175">
<clipPath
   id="clp29"
   clip-rule="nonzero">
<path
   inkscape:connector-curvature="0"
   d="m -200.63,977.61 914,0 0,-1315 -914,0 0,1315 z"
   id="path178" />
</clipPath>
<g
   clip-path="url(#clp29)"
   id="g180">
<clipPath
   id="clp30"
   clip-rule="nonzero">
<path
   inkscape:connector-curvature="0"
   d="m -209.63,1021.7 932,0 0,-1367.99 -932,0 0,1367.99 z"
   id="path183" />
</clipPath>
<g
   clip-path="url(#clp30)"
   id="g185">
<path
   inkscape:connector-curvature="0"
   d="m 89.98,562.31 0.65,-0.01 c 0,0 0.07,0.43 0.07,0.48 -0.101,-0.01 -0.357,0.01 -0.559,0.02 0.027,0.3 0.11,1.04 0.11,1.12 -0.342,-0.05 -3.531,-0.01 -3.531,-0.01 0,0 0.587,-2.64 2.786,-3.27 0.098,-0.03 0.474,1.67 0.474,1.67 z m -0.261,1.17 c 0,0 0.005,-0.25 -0.058,-0.66 -0.19,0 -0.439,0.01 -0.708,0.03 0.058,0.26 0.091,0.49 0.108,0.63 0.374,0 0.658,0 0.658,0 z m -1.059,0 c -10e-4,-0.21 -0.029,-0.42 -0.07,-0.61 -0.401,0.03 -0.811,0.08 -1.121,0.16 -0.063,0.12 -0.125,0.25 -0.187,0.39 -0.016,0.04 0.713,0.06 1.378,0.06 z m -0.878,-0.98 0.692,-0.06 c -0.074,-0.22 -0.154,-0.41 -0.208,-0.53 -0.156,0.15 -0.319,0.34 -0.484,0.59 z m 0.775,-0.83 c 0.12,0.24 0.213,0.5 0.285,0.74 l 0.73,-0.05 c -0.064,-0.29 -0.157,-0.61 -0.292,-0.97 0,0 -0.304,-0.01 -0.723,0.28"
   class="ps01 ps10"
   id="path187"
   style="fill:#134e8b;fill-rule:nonzero;stroke:none" />
</g>
</g>
</g>
</g><g
     transform="matrix(0,-16.285768,-16.285856,0,8248.7052,1863.5809)"
     id="q11"
     class="">
<clipPath
   id="clp31"
   clip-rule="evenodd">
<path
   inkscape:connector-curvature="0"
   d="m 94.669,544 c -11.272,0 -20.42,9.14 -20.42,20.41 0,11.27 9.148,20.42 20.42,20.42 11.271,0 20.421,-9.15 20.421,-20.42 0,-11.27 -9.15,-20.41 -20.421,-20.41 z"
   id="path191" />
</clipPath>
<g
   clip-path="url(#clp31)"
   id="g193">
<clipPath
   id="clp32"
   clip-rule="nonzero">
<path
   inkscape:connector-curvature="0"
   d="m -200.63,977.61 914,0 0,-1315 -914,0 0,1315 z"
   id="path196" />
</clipPath>
<g
   clip-path="url(#clp32)"
   id="g198">
<clipPath
   id="clp33"
   clip-rule="nonzero">
<path
   inkscape:connector-curvature="0"
   d="m -209.63,1021.7 932,0 0,-1367.99 -932,0 0,1367.99 z"
   id="path201" />
</clipPath>
<g
   clip-path="url(#clp33)"
   id="g203">
<path
   inkscape:connector-curvature="0"
   d="m 87.722,565.24 2.492,0 0,-0.57 -2.492,0 0,0.57 z"
   class="ps01 ps10"
   id="path205"
   style="fill:#134e8b;fill-rule:nonzero;stroke:none" />
</g>
</g>
</g>
</g><g
     transform="matrix(0,-16.285768,-16.285856,0,8248.7052,1863.5809)"
     id="q12"
     class="">
<clipPath
   id="clp34"
   clip-rule="evenodd">
<path
   inkscape:connector-curvature="0"
   d="m 94.669,544 c -11.272,0 -20.42,9.14 -20.42,20.41 0,11.27 9.148,20.42 20.42,20.42 11.271,0 20.421,-9.15 20.421,-20.42 0,-11.27 -9.15,-20.41 -20.421,-20.41 z"
   id="path209" />
</clipPath>
<g
   clip-path="url(#clp34)"
   id="g211">
<clipPath
   id="clp35"
   clip-rule="nonzero">
<path
   inkscape:connector-curvature="0"
   d="m -200.63,977.61 914,0 0,-1315 -914,0 0,1315 z"
   id="path214" />
</clipPath>
<g
   clip-path="url(#clp35)"
   id="g216">
<clipPath
   id="clp36"
   clip-rule="nonzero">
<path
   inkscape:connector-curvature="0"
   d="m -209.63,1021.7 932,0 0,-1367.99 -932,0 0,1367.99 z"
   id="path219" />
</clipPath>
<g
   clip-path="url(#clp36)"
   id="g221">
<path
   inkscape:connector-curvature="0"
   d="m 86.476,566.38 c 0,0 -0.293,-0.63 -0.318,-0.73 -0.024,-0.1 -5.986,-0.3 -5.986,-0.3 l -0.024,0.54 6.328,0.49"
   class="ps01 ps10"
   id="path223"
   style="fill:#134e8b;fill-rule:nonzero;stroke:none" />
</g>
</g>
</g>
</g><g
     transform="matrix(0,-16.285768,-16.285856,0,8248.7052,1863.5809)"
     id="q13"
     class="">
<clipPath
   id="clp37"
   clip-rule="evenodd">
<path
   inkscape:connector-curvature="0"
   d="m 94.669,544 c -11.272,0 -20.42,9.14 -20.42,20.41 0,11.27 9.148,20.42 20.42,20.42 11.271,0 20.421,-9.15 20.421,-20.42 0,-11.27 -9.15,-20.41 -20.421,-20.41 z"
   id="path227" />
</clipPath>
<g
   clip-path="url(#clp37)"
   id="g229">
<clipPath
   id="clp38"
   clip-rule="nonzero">
<path
   inkscape:connector-curvature="0"
   d="m -200.63,977.61 914,0 0,-1315 -914,0 0,1315 z"
   id="path232" />
</clipPath>
<g
   clip-path="url(#clp38)"
   id="g234">
<clipPath
   id="clp39"
   clip-rule="nonzero">
<path
   inkscape:connector-curvature="0"
   d="m -209.63,1021.7 932,0 0,-1367.99 -932,0 0,1367.99 z"
   id="path237" />
</clipPath>
<g
   clip-path="url(#clp39)"
   id="g239">
<path
   inkscape:connector-curvature="0"
   d="m 86.256,563.62 c 0,0 0.293,-0.71 0.342,-0.83 0.049,-0.12 -6.401,0.73 -6.401,0.73 l 0.024,0.39 6.035,-0.29"
   class="ps01 ps10"
   id="path241"
   style="fill:#134e8b;fill-rule:nonzero;stroke:none" />
</g>
</g>
</g>
</g><g
     transform="matrix(0,-16.285768,-16.285856,0,8248.7052,1863.5809)"
     id="q14"
     class="">
<clipPath
   id="clp40"
   clip-rule="evenodd">
<path
   inkscape:connector-curvature="0"
   d="m 94.669,544 c -11.272,0 -20.42,9.14 -20.42,20.41 0,11.27 9.148,20.42 20.42,20.42 11.271,0 20.421,-9.15 20.421,-20.42 0,-11.27 -9.15,-20.41 -20.421,-20.41 z"
   id="path245" />
</clipPath>
<g
   clip-path="url(#clp40)"
   id="g247">
<clipPath
   id="clp41"
   clip-rule="nonzero">
<path
   inkscape:connector-curvature="0"
   d="m -200.63,977.61 914,0 0,-1315 -914,0 0,1315 z"
   id="path250" />
</clipPath>
<g
   clip-path="url(#clp41)"
   id="g252">
<clipPath
   id="clp42"
   clip-rule="nonzero">
<path
   inkscape:connector-curvature="0"
   d="m -209.63,1021.7 932,0 0,-1367.99 -932,0 0,1367.99 z"
   id="path255" />
</clipPath>
<g
   clip-path="url(#clp42)"
   id="g257">
<path
   inkscape:connector-curvature="0"
   d="m 79.048,566.7 0.513,0 0,-1.34 -0.513,0 0,1.34 z"
   class="ps02 ps10"
   id="path259"
   style="fill:#ec1c23;fill-rule:nonzero;stroke:none" />
</g>
</g>
</g>
</g><g
     transform="matrix(0,-16.285768,-16.285856,0,8248.7052,1863.5809)"
     id="q15"
     class="">
<clipPath
   id="clp43"
   clip-rule="evenodd">
<path
   inkscape:connector-curvature="0"
   d="m 94.669,544 c -11.272,0 -20.42,9.14 -20.42,20.41 0,11.27 9.148,20.42 20.42,20.42 11.271,0 20.421,-9.15 20.421,-20.42 0,-11.27 -9.15,-20.41 -20.421,-20.41 z"
   id="path263" />
</clipPath>
<g
   clip-path="url(#clp43)"
   id="g265">
<clipPath
   id="clp44"
   clip-rule="nonzero">
<path
   inkscape:connector-curvature="0"
   d="m -200.63,977.61 914,0 0,-1315 -914,0 0,1315 z"
   id="path268" />
</clipPath>
<g
   clip-path="url(#clp44)"
   id="g270">
<clipPath
   id="clp45"
   clip-rule="nonzero">
<path
   inkscape:connector-curvature="0"
   d="m -209.63,1021.7 932,0 0,-1367.99 -932,0 0,1367.99 z"
   id="path273" />
</clipPath>
<g
   clip-path="url(#clp45)"
   id="g275">
<path
   inkscape:connector-curvature="0"
   d="m 78.105,565.3 0.504,0.1 -0.255,1.31 -0.503,-0.1 0.254,-1.31"
   class="ps02 ps10"
   id="path277"
   style="fill:#ec1c23;fill-rule:nonzero;stroke:none" />
</g>
</g>
</g>
</g><g
     transform="matrix(0,-16.285768,-16.285856,0,8248.7052,1863.5809)"
     id="q16"
     class="">
<clipPath
   id="clp46"
   clip-rule="evenodd">
<path
   inkscape:connector-curvature="0"
   d="m 94.669,544 c -11.272,0 -20.42,9.14 -20.42,20.41 0,11.27 9.148,20.42 20.42,20.42 11.271,0 20.421,-9.15 20.421,-20.42 0,-11.27 -9.15,-20.41 -20.421,-20.41 z"
   id="path281" />
</clipPath>
<g
   clip-path="url(#clp46)"
   id="g283">
<clipPath
   id="clp47"
   clip-rule="nonzero">
<path
   inkscape:connector-curvature="0"
   d="m -200.63,977.61 914,0 0,-1315 -914,0 0,1315 z"
   id="path286" />
</clipPath>
<g
   clip-path="url(#clp47)"
   id="g288">
<clipPath
   id="clp48"
   clip-rule="nonzero">
<path
   inkscape:connector-curvature="0"
   d="m -209.63,1021.7 932,0 0,-1367.99 -932,0 0,1367.99 z"
   id="path291" />
</clipPath>
<g
   clip-path="url(#clp48)"
   id="g293">
<path
   inkscape:connector-curvature="0"
   d="m 79.83,564.86 0,-0.68 -0.269,0 0,-2.01 -0.922,0 0.024,0.68 0.385,0 0,2.01 0.782,0"
   class="ps02 ps10"
   id="path295"
   style="fill:#ec1c23;fill-rule:nonzero;stroke:none" />
</g>
</g>
</g>
</g><g
     transform="matrix(0,-16.285768,-16.285856,0,8248.7052,1863.5809)"
     id="q17"
     class="">
<clipPath
   id="clp49"
   clip-rule="evenodd">
<path
   inkscape:connector-curvature="0"
   d="m 94.669,544 c -11.272,0 -20.42,9.14 -20.42,20.41 0,11.27 9.148,20.42 20.42,20.42 11.271,0 20.421,-9.15 20.421,-20.42 0,-11.27 -9.15,-20.41 -20.421,-20.41 z"
   id="path299" />
</clipPath>
<g
   clip-path="url(#clp49)"
   id="g301">
<clipPath
   id="clp50"
   clip-rule="nonzero">
<path
   inkscape:connector-curvature="0"
   d="m -200.63,977.61 914,0 0,-1315 -914,0 0,1315 z"
   id="path304" />
</clipPath>
<g
   clip-path="url(#clp50)"
   id="g306">
<clipPath
   id="clp51"
   clip-rule="nonzero">
<path
   inkscape:connector-curvature="0"
   d="m -209.63,1021.7 932,0 0,-1367.99 -932,0 0,1367.99 z"
   id="path309" />
</clipPath>
<g
   clip-path="url(#clp51)"
   id="g311">
<path
   inkscape:connector-curvature="0"
   d="m 77.649,566.7 -2.886,0 0,-0.69 -0.504,0 0,-0.6 0.504,0.02 0,-1.95 -0.504,0.02 0,-0.65 0.504,0 0,-0.68 2.886,0 0,4.53 z m -2.373,-0.69 0.247,0 0,-3.16 -0.247,0 0,3.16 z m 0.761,0 0.25,0 0,-3.16 -0.25,0 0,3.16 z m 0.763,0 0.336,0 0,-3.16 -0.336,0 0,3.16 z"
   class="ps02 ps10"
   id="path313"
   style="fill:#ec1c23;fill-rule:nonzero;stroke:none" />
</g>
</g>
</g>
</g><g
     transform="matrix(0,-16.285768,-16.285856,0,8248.7052,1863.5809)"
     id="q18"
     class="">
<clipPath
   id="clp52"
   clip-rule="evenodd">
<path
   inkscape:connector-curvature="0"
   d="m 94.669,544 c -11.272,0 -20.42,9.14 -20.42,20.41 0,11.27 9.148,20.42 20.42,20.42 11.271,0 20.421,-9.15 20.421,-20.42 0,-11.27 -9.15,-20.41 -20.421,-20.41 z"
   id="path317" />
</clipPath>
<g
   clip-path="url(#clp52)"
   id="g319">
<clipPath
   id="clp53"
   clip-rule="nonzero">
<path
   inkscape:connector-curvature="0"
   d="m -200.63,977.61 914,0 0,-1315 -914,0 0,1315 z"
   id="path322" />
</clipPath>
<g
   clip-path="url(#clp53)"
   id="g324">
<clipPath
   id="clp54"
   clip-rule="nonzero">
<path
   inkscape:connector-curvature="0"
   d="m -209.63,1021.7 932,0 0,-1367.99 -932,0 0,1367.99 z"
   id="path327" />
</clipPath>
<g
   clip-path="url(#clp54)"
   id="g329">
<path
   inkscape:connector-curvature="0"
   d="m 78.859,563.82 -0.959,1.34 0,-0.83 0.415,-0.56 -0.415,-0.51 0,-0.73 0.959,1.29"
   class="ps02 ps10"
   id="path331"
   style="fill:#ec1c23;fill-rule:nonzero;stroke:none" />
</g>
</g>
</g>
</g></g><g
   id="xfrm1"
   transform="matrix(8265.9421,0,0,-10367.453,-1632.4738,10426.64)">
<g
   id="frm2"
   transform="scale(0.01,0.01)">
</g>
</g></svg>