<svg xmlns="http://www.w3.org/2000/svg" height="800" width="1200" version="1.0" viewBox="-28.5 -12.363525 247 74.18115"><g fill="red"><path d="M11.9517 26.9695h9.2318l17.358-20.2177-26.5898 20.2177"/><path d="M49.332 22.2692C48.0798 9.576 37.5002 0 24.727 0 11.0925 0 0 11.0969 0 24.727c0 5.8682 2.0915 11.5565 5.8837 16.0148.4019.473 1.1101.524 1.5786.1265.473-.3997.5284-1.108.1266-1.5742-3.4502-4.0609-5.3508-9.234-5.3508-14.5671 0-6.0058 2.3402-11.652 6.5875-15.9016C13.073 4.576 18.7213 2.238 24.7271 2.238c11.6165 0 21.239 8.7123 22.378 20.251.0622.6173.6662.8637 1.119 1.2834.6173.5683 1.1702.1998 1.108-1.5032"/><path d="M47.2627 26.0792c-.7038-1.3566-2.5821-3.6168-7.2713-3.4947-.615.0178-1.1146.6417-1.4743 1.1457-.4374.615-.4485 1.11 1.5342 1.0923 3.4703-.0266 4.7625 1.3921 5.2243 2.2891.7016 1.35 1.1412 3.69.5773 5.382C42.6002 41.288 34.1054 47.216 24.727 47.216c-5.02 0-9.7692-1.6141-13.7346-4.6803 0 0-.515-.4108.0666-1.1745L36.4478 21.996l-9.2318-.0088L9.7048 42.3426c-.0245.0243-.9525 1.21-.0777 1.9627 4.3584 3.3704 9.5805 5.1488 15.1 5.1488 10.311 0 19.6494-6.5187 23.2373-16.219.8126-2.4378.2043-5.4152-.7016-7.1559"/></g><path d="M87.5893 39.4363c-3.8077-.8548-6.7007-2.9618-8.6035-4.7913h6.2856c1.1878 0 2.1492-.9636 2.1492-2.1515v-9.909c0-1.1878-.9614-2.1559-2.1492-2.1559H75.0782v-1.5653h12.067c1.1902 0 2.1537-.9613 2.1537-2.1536 0-1.1879-.9635-2.1514-2.1536-2.1514H75.0782v-2.238c0-1.188-.9636-2.156-2.1537-2.156-1.19 0-2.1536.968-2.1536 2.156v2.238H59.161c-1.19 0-2.1536.9635-2.1536 2.1514 0 1.1923.9635 2.1536 2.1536 2.1536h11.61v1.5653H60.722c-1.19 0-2.1536.968-2.1536 2.1559v9.909c0 1.1879.9636 2.1515 2.1537 2.1515h5.5462c-1.9028 1.8295-4.7958 3.9365-8.6036 4.7913-1.159.2598-1.8872 1.4099-1.6274 2.5666.2598 1.1634 1.412 1.8961 2.571 1.6363 5.9393-1.3321 10.0023-4.9889 12.1627-7.4645v5.8038c0 1.1878.9636 2.1492 2.1536 2.1492s2.1537-.9614 2.1537-2.1492v-5.1488c2.2735 2.42 6.1345 5.5906 11.5698 6.8095 1.1611.2598 2.3112-.4729 2.5732-1.6363.2576-1.1567-.4729-2.3068-1.6319-2.5666zM62.8756 29.2986h7.8953v1.1612h-7.8953zm12.2026 0h8.0373v1.1612h-8.0373zm0-4.9223h8.0373v1.2278h-8.0373zm-12.2026 0h7.8953v1.2278h-7.8953zm39.6206-11.9783c-1.19 0-2.1515.959-2.1515 2.1514v4.0209h-6.1745c-1.1878 0-2.1537.9569-2.1537 2.1492 0 1.1878.9659 2.1559 2.1537 2.1559h6.1745v13.2949c-2.1625.8082-5.4862 1.9871-6.8583 2.2425-1.1657.222-1.9383 1.3477-1.7185 2.5155.2153 1.17 1.3432 1.9383 2.5133 1.7163 1.4121-.2642 4.012-1.1435 6.0635-1.885v.7748c0 1.1879.9614 2.156 2.1515 2.156 1.19 0 2.1514-.9681 2.1514-2.156v-26.985c0-1.1923-.9614-2.1515-2.1514-2.1515m17.933 25.2133c-1.1168-.4085-2.3534.1643-2.7642 1.2833l-.131.382-.0333.1044h-4.929V22.8754h6.299c1.19 0 2.1536-.968 2.1536-2.1558 0-1.1923-.9636-2.1492-2.1537-2.1492h-6.2989v-4.021c0-1.1922-.9636-2.1514-2.1536-2.1514s-2.1537.9592-2.1537 2.1515v26.985c0 1.1879.9636 2.1559 2.1537 2.1559h7.0071c3.206 0 3.9321-2.2425 4.2052-3.0884l.0778-.2242c.413-1.119-.162-2.3557-1.2789-2.7665m33.5792-11.8963c1.1745.191 2.2824-.6016 2.4734-1.7761.1243-.7682.424-3.3748-.9081-4.9401l-.182-.1954c-.3864-.5773-1.0436-.9547-1.7874-.9547h-10.9859V16.27h9.2585c1.1923 0 2.156-.9658 2.156-2.1492 0-1.1923-.9637-2.156-2.156-2.156h-24.1142c-1.1901 0-2.1537.9637-2.1537 2.156 0 1.1834.9636 2.1492 2.1537 2.1492h10.5507v1.5786h-10.5419c-.988 0-1.8805.4085-2.511 1.15-1.33 1.5654-1.0303 4.172-.906 4.9402.1888 1.1745 1.2945 1.9671 2.4712 1.7762 1.1745-.1865 1.9716-1.2922 1.7784-2.4667l.0018.0035c-.0533-.342-.0687-.7638-.0533-1.0968h3.2305v1.0746c0 1.1923.9614 2.1559 2.1514 2.1559 1.1901 0 2.156-.9636 2.156-2.1559V22.155h2.2224v1.9383c0 .806.444 1.4964 1.099 1.8695h-10.4308c-1.1878 0-2.1514.9569-2.1514 2.1492v9.6181c0 1.1901.9636 2.156 2.1514 2.156h9.656v2.4378c0 1.0102.8192 1.8339 1.8317 1.8339h11.8406c1.3788 0 2.4024-.3996 3.0374-1.1745.7238-.8859.6039-1.8273.5528-2.096-.1976-.9924-1.1612-1.634-2.1559-1.4342-.595.1176-1.0635.5195-1.301 1.0368l-.1333.1244h-10.0133v-.7283h9.9423c1.19 0 2.1536-.9658 2.1536-2.1559V28.112c0-1.1923-.9635-2.1492-2.1536-2.1492h-10.7172c.6527-.373 1.0968-1.0636 1.0968-1.8695V22.155h2.6576v1.0746c0 1.1923.9636 2.1559 2.156 2.1559 1.1855 0 2.1514-.9636 2.1514-2.1559V22.155h2.6976c.0177.333 0 .7549-.051 1.0968l.0018-.0035c-.1932 1.1745.6061 2.2802 1.7762 2.4667zm-1.723 15.613l.0244.282zm-9.9889-6.632h7.7909v1.25h-7.7909zm-11.159 0h7.5v1.25h-7.5zm11.159-4.7957h7.7909v1.2833h-7.7909zm-11.159 0h7.5v1.2833h-7.5zm58.7548-8.4348c-.071-1.1346-1.0147-2.0204-2.1515-2.0204h-11.4232c.373-3.1617.1222-5.2376.091-5.4686-.1578-1.179-1.2412-2.0115-2.418-1.8517-1.1767.1578-2.007 1.2412-1.8494 2.4157v-.0036c.0222.1999.1199 2.8842-.1554 4.909h-10.1022c-1.1879 0-2.1515.968-2.1515 2.156 0 1.1878.9636 2.1513 2.1515 2.1513h9.1608c-1.3944 4.6138-4.374 10.3287-10.6506 15.6374-.9081.766-1.0191 2.1292-.2531 3.0306.766.9103 2.127 1.028 3.035.2598 7.58-6.4144 10.9082-13.4304 12.3336-18.9278h10.1555c.0687 3.104.0243 9.2186-1.088 14.1786l-1.4809-.8459c-1.028-.5928-2.3445-.2375-2.9374.7949-.5905 1.0324-.233 2.349.7949 2.944l3.8766 2.2203a2.1398 2.1398 0 001.8272.151c.6017-.2243 1.0702-.7105 1.2811-1.3122 2.6932-7.7842 1.9872-19.9046 1.9539-20.4175"/></svg>